<?xml version="1.0" encoding="utf-8"?>
<!-- Generator: Adobe Illustrator 25.3.1, SVG Export Plug-In . SVG Version: 6.00 Build 0)  -->
<svg version="1.1" id="Layer_1" xmlns="http://www.w3.org/2000/svg" xmlns:xlink="http://www.w3.org/1999/xlink" x="0px" y="0px"
	 width="300px" height="300px" viewBox="0 0 300 300" style="enable-background:new 0 0 300 300;" xml:space="preserve">
<style type="text/css">
	.st0{fill:#211F62;}
	.st1{fill:#892A6E;}
</style>
<g>
	<path class="st0" d="M272.1,220.6c-20.9,4.1-41.7,5.4-62.8,3.1c-12.6-1.3-25-4-36.5-9.3c-12.6-5.9-21.8-14.7-25.3-28.6
		c-2.1-8.6-4-17.2-6-25.8c-0.4-1.8-0.1-2.9,1.4-4.2c20.6-18.1,39-38.3,55.7-60c3.6-4.7,7.7-9,9.4-15C186,102.3,163,122.4,138,140.8
		c-0.2-1.2-0.4-1.8-0.5-2.6c-1.5-7.8-2.9-15.6-4.3-23.4c-3.1-15.9-6.5-31.8-12-47.2c-2.6-7.4-5.6-14.7-10.6-20.9
		c-2.5-3.2-5.6-5.9-9.6-7.2c-3.4-1.1-6.4-0.5-8.9,1.9c-1.9,1.9-3.6,4-5.1,6.2c-4.2,6.5-7,13.8-9.6,21.2c-6.8,19.3-11.9,39.1-16.9,59
		c-5.2,20.5-10.8,40.9-18,60.8c-0.3,0.7-0.5,1.9-1.1,2.1c-2.3,1-4.9,1.6-7.8,2.5c0.3-1.2,0.4-1.8,0.6-2.4c2.3-8.3,5-16.6,7.1-25
		c6.2-25.4,12.3-50.7,18.4-76.1c1.6-6.5,3.6-12.9,5.6-19.5c0.3-1.1,1.6-2.8,2.2-2.7c1.2,0.2,2.2,1.4,3.2,2.2c0.6,0.6,1,1.6,1.6,2.7
		c0.3-0.5,0.5-0.6,0.5-1c3.5-9.6,6.7-19.3,13-27.5c0.4-0.5,0.4-1.9,0.1-2.1c-4-3-7.2-4.4-11.2-0.4c-2,1.9-3.6,4.3-5.1,6.6
		c-4.3,7.4-7.3,15.4-10,23.5c-7.9,24.2-13.8,48.9-20,73.5c-3.2,12.7-6.6,25.4-10,38c1.1,1.7,2,3.6,2.5,5.8
		c2.4,9.3,0.5,17.9-3.4,26.2c1.3-0.3,2.4-0.7,3.7-1.1c0.2,0.1,0.3,0.3,0.5,0.4c-5.4,13.8-10.9,27.7-16.3,41.5
		c0.2,0.1,0.4,0.2,0.6,0.3c1.5-2,3-4,4.3-6c7.3-11.6,12.9-24,18.3-36.5c0.8-1.9,1.9-2.9,3.9-3.5c23.3-7.6,45.6-17.4,66.5-30.4
		c0.5-0.3,1.2-0.6,1.9-1c0.2,0.9,0.4,1.5,0.5,2.1c1.8,8,3.6,16.2,5.5,24.2c3,12.7,9.4,23,21,29.7c8.6,5,18.1,7.2,27.9,8
		c13.3,1.1,26.5-0.2,39.6-2.6c21.5-3.9,42.2-10.4,62.7-17.9c0.1-0.1,0.3-0.2,0.6-0.4h-2.1c1.1-0.4,1.6-0.7,2.2-1
		C270.9,221.1,271.4,220.8,272.1,220.6z M107.1,161.6c-17.3,10.6-35.7,18.7-54.7,25.5c-0.5,0.2-1.1,0.2-1.8,0.4
		c0.1-0.5,0-0.9,0.1-1.2c4.3-12.3,6.6-25.3,9.5-37.9c4.6-19.2,9-38.4,15.3-57.1c2-6,4.7-11.8,7.2-17.7c0.6-1.5,1.7-2.9,2.9-4.1
		c2.2-2.4,4.9-2.1,6.5,0.7c1.2,2.2,2.2,4.8,2.8,7.3c2.1,11.7,4,23.4,6,35.2c2.5,15.3,5,30.5,7.6,45.8
		C108.8,160.1,108.4,160.9,107.1,161.6z"/>
	<path class="st1" d="M254.2,30.9c-0.2,1.3-0.2,2.2-0.4,3.1c-0.1,0.4-0.5,0.9-0.8,1.2c-13.2,9.9-23.4,22.6-34.1,34.8
		c-2,2.3-3.9,4.7-5.9,6.9c-0.4,0.4-1.5,0.9-1.8,0.6c-4.6-3-9.3-6.2-13.4-9c0-1.4,0-2.3,0-3.2c0-1,1.8-2,3.2-1.8
		c2.3,0.4,4.6,0.7,7,1.3c1.6,0.4,2.7,0,3.9-1.2c9.1-8.2,18-16.5,27.4-24.4c3.9-3.3,8.8-5.5,13.2-8.2C252.9,30.9,253.7,31,254.2,30.9
		z"/>
	<path class="st1" d="M219,51.5c-1.1,5.7-6.4,7.8-9.7,11.7c-0.8,1.1-4.3,0.6-5.7-0.6c-2.3-2.1-4.6-4.4-6.9-6.6
		c-0.3-0.3-0.2-1.3-0.2-1.8c0-0.1,0.2-0.2,0.2-0.3c-0.6-3.4,2.7-3.7,4.2-5.4c0.4-0.4,1.5-0.6,2.1-0.5c5.2,1.1,10.3,2.1,15.4,3.3
		C218.7,51.1,218.8,51.4,219,51.5z"/>
	<path class="st0" d="M282.4,218.1c0.7-0.3,1.6-0.7,2.3-1.1c0-0.1,0.1-0.1,0.1-0.1c-1.6,0.4-3.4,0.6-5,1.1c-22.5,7-0.1-0.1-0.1-0.2
		c7.6-2.8,14.9-5.7,22.3-9.2c-0.5,0.3-1.7,1.5-3.1,2.1c-1.8,0.9-3.5,2-5,2.7c-4,1.6-20,7.4-24,8.8C270,222,282.4,218.3,282.4,218.1z
		"/>
	<path class="st1" d="M5.4,197.7C4,208.2,1.1,217.1,0,221c0,0.1,0,0.1,0,0.2c0.5,1.6,16.1-2.4,20.2-3.4c1-0.2,1.7-0.4,1.8-0.4
		c16.6-4.3,27.2-6.8,37.3-10.8c5.6-2.2,9.7-4.5,19.4-8.7c8.8-3.9,26.3-12.8,47.2-28c23.4-17,39-34.1,49-45.6
		c8.3-9.3,14.7-17.5,18.8-22.4c7.8-9.2,15.2-19.9,14.4-20.7c-1.4-1.2-25.3,24.4-60.3,52c-24.6,19.4-43.9,31.1-50.8,34.8
		c-26.8,13.9-51.2,21.5-68.7,26.4l-1.6,0.2C26.5,194.8,5.5,197.7,5.4,197.7z"/>
	<g>
		<path class="st0" d="M73.3,73.1c-0.8-1.4-1.5-2.7-2.3-3.8c-1.6-2-3.4-1.9-4.2,0.5c-1.6,4.5-3.2,9.1-4.3,13.6
			c-5,20.7-9.6,41.5-14.8,62c-4.5,18.1-9.7,36.1-14.7,54.3c-1.4,4.9-3.3,9.8-4.9,14.7c-4.1,11.9-8.5,23.8-14.9,34.8
			c-2.1,3.6-4.9,6.8-7.4,10.1c-0.2,0.2-0.5,0.4-1.2,0.4c0.2-0.7,0.4-1.6,0.7-2.3c5.3-13.6,10.7-27.3,15.8-41
			c1.9-5.1,3.5-10.3,5-15.6c5.3-19.4,10.4-38.9,15.4-58.4c6.1-23.8,11.7-47.5,19.4-70.9c2.6-7.9,5.5-15.8,9.7-23
			c1.6-2.6,3.4-5.1,5.6-7.1c3.2-3.1,8-2.6,10.9,0.7c0.3,0.4,0.3,1.6-0.1,2c-6.4,8.4-9.7,18.3-13.2,28.1
			C73.8,72.5,73.6,72.7,73.3,73.1z"/>
	</g>
</g>
</svg>
