<?xml version="1.0" encoding="UTF-8"?>
<!DOCTYPE svg PUBLIC "-//W3C//DTD SVG 1.1//EN" "http://www.w3.org/Graphics/SVG/1.1/DTD/svg11.dtd">
<!-- Creator: CorelDRAW X7 -->
<svg xmlns="http://www.w3.org/2000/svg" xml:space="preserve" width="1.11111in" height="1.11111in" version="1.1" style="shape-rendering:geometricPrecision; text-rendering:geometricPrecision; image-rendering:optimizeQuality; fill-rule:evenodd; clip-rule:evenodd"
viewBox="0 0 1111 1111"
 xmlns:xlink="http://www.w3.org/1999/xlink">
 <defs>
  <style type="text/css">
   <![CDATA[
    .fil0 {fill:blue}
   ]]>
  </style>
 </defs>
 <g id="Layer_x0020_1">
  <metadata id="CorelCorpID_0Corel-Layer"/>
  <path class="fil0" d="M449 13c18,-5 37,-8 55,-10 -34,8 -67,22 -99,38 -44,25 -84,58 -114,99 -44,63 -64,143 -56,220 2,30 9,60 19,88 5,16 12,30 21,44 22,36 47,70 79,97 32,27 70,46 109,60 23,9 45,24 57,46 18,30 32,63 36,98 0,7 2,13 2,20 0,4 -3,7 -6,9 -11,10 -25,16 -39,19 -21,5 -42,10 -62,19 -24,11 -46,25 -70,36 -26,12 -53,21 -81,26 -14,3 -28,3 -42,1 -10,-2 -19,-7 -28,-11 -30,-13 -58,-30 -83,-50 -20,-16 -36,-36 -52,-56 -31,-40 -56,-85 -71,-133 -16,-50 -20,-105 -10,-157 1,-7 3,-14 5,-21 9,52 27,102 52,149 21,39 47,76 79,107 21,21 44,38 69,54 10,7 24,9 35,3 0,-7 -6,-9 -11,-12 -22,-12 -41,-26 -60,-43 -37,-32 -69,-71 -94,-114 -22,-37 -40,-77 -51,-119 -4,-23 -4,-46 -4,-69 0,-30 4,-61 14,-90 24,-64 60,-124 111,-169 -22,39 -36,82 -44,126 -9,50 -8,103 4,153 13,59 41,114 80,160 43,53 99,95 161,124 11,4 22,11 33,7 7,-2 10,-12 5,-17 -6,-6 -14,-7 -21,-10 -57,-27 -109,-64 -152,-110 -43,-46 -71,-106 -84,-167 -4,-21 -8,-43 -7,-64 -1,-42 6,-83 19,-122 19,-55 51,-104 92,-144 56,-56 127,-96 204,-115zm165 -10c9,0 18,2 26,3 67,12 131,40 186,80 50,37 93,85 121,141 31,60 44,129 37,196 -7,59 -28,117 -61,167 -33,47 -78,85 -126,115 -22,14 -45,26 -70,36 -7,2 -11,12 -5,18 7,6 18,5 26,1 73,-32 139,-82 187,-146 37,-52 63,-112 72,-175 12,-83 -6,-170 -44,-244 11,8 20,19 30,30 22,26 42,56 57,88 13,26 24,52 30,81 7,36 7,73 3,110 -1,18 -7,35 -13,52 -28,77 -76,147 -138,201 -47,39 -103,66 -161,85 -19,6 -38,11 -56,15 -8,1 -16,5 -20,11 -4,5 -4,13 2,15 9,5 19,4 28,2 51,-16 101,-37 148,-63 25,-14 49,-30 71,-48 49,-40 87,-92 114,-149 20,-41 35,-85 42,-130 1,2 2,4 2,5 17,66 10,136 -15,198 -14,34 -32,66 -53,96 -11,15 -22,29 -35,42 -41,36 -86,68 -134,93 -52,28 -107,46 -164,60 -11,2 -24,3 -33,12 -5,4 -6,13 0,17 7,5 16,4 24,3 56,-9 111,-24 162,-48 60,-30 114,-71 163,-117 -3,11 -9,22 -15,32 -31,52 -77,96 -128,129 -55,36 -117,60 -181,76 -75,19 -155,19 -231,4 -40,-7 -79,-19 -116,-33 -24,-10 -48,-20 -71,-32 -14,-9 -29,-18 -45,-22 -16,-5 -32,-6 -47,-10 -36,-8 -71,-18 -104,-34 -29,-15 -53,-38 -79,-57 28,-8 55,-20 83,-25 27,-6 57,-1 79,16 11,9 23,16 36,22 28,14 59,24 90,22 32,-2 63,-11 92,-24 47,-24 95,-44 146,-56 16,-5 34,-5 46,-18 11,-14 8,-32 8,-48 0,-33 7,-66 21,-95 12,-26 35,-46 62,-56 29,-11 57,-25 83,-43 40,-28 71,-67 97,-108 20,-32 31,-68 38,-105 13,-67 4,-138 -24,-201 -22,-49 -59,-92 -103,-123 -42,-30 -89,-52 -140,-64z"/>
 </g>
</svg>
