<?xml version="1.0" encoding="utf-8"?>
<!-- Generator: Adobe Illustrator 27.9.0, SVG Export Plug-In . SVG Version: 6.00 Build 0)  -->
<svg version="1.1" id="Layer_1" xmlns="http://www.w3.org/2000/svg" xmlns:xlink="http://www.w3.org/1999/xlink" x="0px" y="0px"
	 width="60px" height="60px" viewBox="0 0 60 60" style="enable-background:new 0 0 60 60;" xml:space="preserve">
<style type="text/css">
	.st0{fill:#801625;}
	.st1{fill:#FEFDFD;}
</style>
<g id="Layer_4">
	<g>
		<path class="st0" d="M30,59.3c-16.3,0-29.5-13-29.7-28.6C0,13.9,13.4,1,29.4,0.7c16.9-0.3,30.3,13.1,30.3,29.2S46.3,59.3,30,59.3z
			 M57.8,29.9C57.9,15.1,45.6,2.8,30.6,2.7c-15.8-0.1-28.2,12-28.4,27C2.1,44.9,14.5,56.9,29.4,57.2C45.2,57.6,57.8,45,57.8,29.9z"
			/>
		<path class="st1" d="M57.8,29.9C57.9,45,45.2,57.5,29.6,57.2C14.6,56.9,2.1,44.9,2.2,29.7c0.1-14.9,12.6-27.1,28.2-27
			C45.6,2.8,57.8,15.3,57.8,29.9z M35.9,33v0.1c0.6,1.5,1.8,2.1,3.3,2.2c4.7,0.4,9.1-2.6,10.1-7.3c0.6-2.8,0.3-5.4-2.2-7.2
			c1.4-2.6,1.4-5.3-0.7-7.6c-2.5-2.5-5.1-2.4-8-0.8c0-0.1,0-0.1-0.1-0.1c-1.4-2.5-3.5-4.1-6.2-4.6c-0.3,0-0.7,0-1,0.1
			c-1.8,1.1-3,2.6-3.6,4.6c-0.1,0.6-0.3,1.4-0.4,1.9c-2.6-3.6-7.7-2.6-9.1,0.1c1.9,1.2,3.5,3,4,5.4c0.6,2.4,0.1,4.4-1.4,6.5
			c0-0.1-0.1-0.3-0.1-0.4c-0.4-1.8-1.2-3.6-2.2-5.1c-1.9-2.4-4.3-3.6-7.5-3c-1.1,0.3-2.1,0.7-3,1.4c1.8,0.7,2.6,1.5,3.3,3
			c0.3,0.7,0.6,1.4,0.7,2.1c0.7,2.5,0.7,5.1,0.7,7.6c0,2.8,0.4,5.5,1.4,8.2c3.6,10.7,15.1,16.2,25.7,12.9c0.7-0.3,1.5-0.6,2.5-0.8
			c-1.4-0.1-2.8-0.1-4-0.3c-4.1-0.6-7.6-2.2-10.1-5.5c-2.6-3.2-3.6-6.8-3.7-10.7c0-3,0.4-5.7,1.9-8.3c3.2-5.7,11.1-5.8,14.8-1.9
			c1.7,1.8,2.5,3.9,1.8,6.2c-0.3,1.2-1.1,1.9-2.1,2.5c-0.3-1.1-0.6-1.4-1.2-1.4c-0.3,0-0.7,0-1.1,0.1C37.6,33.5,36.6,33.7,35.9,33z"
			/>
		<path class="st0" d="M37.3,32.6c1,0.8,1.7,0.6,2.6,0.1c0.3-0.1,0.7-0.1,1.1-0.1c0.8,0,1,0.3,1.2,1.4c1.1-0.6,1.9-1.4,2.2-2.6
			c0.7-2.5-0.1-4.6-1.9-6.5c-3.7-4-11.9-3.9-15.4,1.9c-1.5,2.6-2.1,5.5-2.1,8.6c0,4,1.2,7.6,3.9,10.9c2.6,3.2,6.2,5.1,10.5,5.7
			c1.2,0.1,2.6,0.1,4,0.3c-1,0.3-1.7,0.6-2.5,1C30,56.9,18.2,51,14.5,40c-1-2.8-1.4-5.5-1.4-8.4c0-2.6,0-5.4-0.8-7.9
			c-0.1-0.8-0.4-1.5-0.8-2.2c-0.8-1.7-1.5-2.4-3.3-2.9c1-0.8,2.1-1.2,3.2-1.4c3.3-0.8,5.8,0.6,7.6,3c1.2,1.5,1.9,3.3,2.4,5.3
			c0,0.1,0,0.1,0.1,0.4c1.4-2.2,1.9-4.3,1.4-6.8c-0.4-2.8-2.1-4.4-4-5.8c1.5-2.9,6.8-3.9,9.4-0.1c0.1-0.6,0.1-1.4,0.4-1.9
			c0.7-2.2,1.9-3.7,3.7-4.7c0.3-0.1,0.7-0.1,1-0.1c2.9,0.4,5,1.9,6.2,4.7c0,0,0,0.1,0.1,0.1c2.9-1.5,5.9-1.7,8.3,1
			c2.2,2.4,2.2,5.1,0.8,7.9c2.6,1.9,2.9,4.6,2.4,7.3c-1.1,4.7-5.7,8-10.5,7.5c-1.5-0.1-2.8-0.8-3.5-2.4
			C37.3,32.8,37.3,32.6,37.3,32.6z"/>
	</g>
</g>
</svg>
