<?xml version="1.0" encoding="utf-8"?>
<!-- Generator: Adobe Illustrator 27.6.1, SVG Export Plug-In . SVG Version: 6.00 Build 0)  -->
<svg version="1.1" id="Layer_1" xmlns="http://www.w3.org/2000/svg" xmlns:xlink="http://www.w3.org/1999/xlink" x="0px" y="0px"
	 width="300px" height="300px" viewBox="0 0 300 300" style="enable-background:new 0 0 300 300;" xml:space="preserve">
<style type="text/css">
	.st0{fill:#EE393D;}
	.st1{fill:#B8B8B9;}
</style>
<g id="Layer_2_00000009548229992444638740000012819190593926137500_">
	<g>
		<path class="st0" d="M156,47.5c3.9-0.3,7.9,2.6,8.1,5.8c0.5,5.2-2.6,9.7-6.8,10c-3.9,0.3-10-3.4-10.2-6.3
			C146.8,52,150.5,48,156,47.5z"/>
		<path class="st0" d="M184.6,34.1c0,7.9-2.4,7.3-9.7,7.9c-3.1,0.3-6.3-4.2-6-7.9c0.3-4.2,3.7-7.3,8.1-7.1
			C182.5,27.9,184.8,29.7,184.6,34.1z"/>
		<path class="st0" d="M78.2,44.1c0,4.7-3.4,8.1-8.1,8.1c-4.5,0-7.6-3.1-7.6-7.6c0-5.2,2.9-8.1,7.6-8.1C75,36.5,78.2,39.4,78.2,44.1
			z"/>
		<path class="st0" d="M281.3,117c4.2,0,8.1,3.7,8.4,7.9c0.3,2.6-5.5,7.3-8.6,7.3c-5-0.3-7.6-3.4-7.9-9.2
			C272.9,119.6,276.6,116.5,281.3,117z"/>
		<path class="st0" d="M235.7,120.6c-6,0-9.2-2.4-9.2-7.1c0-3.7,3.9-7.3,8.6-7.3c3.9,0,8.4,3.7,8.4,6.8
			C243.8,117.5,240.1,120.9,235.7,120.6z"/>
		<path class="st0" d="M198.7,65.1c5.2,0,6.8,1.6,6.6,7.3c-0.3,3.9-3.9,7.6-8.1,7.9c-2.6,0-7.3-4.7-7.6-7.3
			C189.6,68.2,193.5,65.1,198.7,65.1z"/>
		<path class="st0" d="M223.4,93.4c-3.4,0-6.6-3.4-6.3-7.3c0-3.7,3.4-6.8,7.6-6.8c5,0,7.9,2.9,7.9,7.6
			C232.8,92.1,231,93.4,223.4,93.4z"/>
		<path class="st0" d="M14.7,114.9c5.2,0,6.6,1.6,6.6,7.3c0,4.7-2.6,7.1-7.3,7.1c-5.2,0-7.6-2.4-7.3-8.1
			C6.6,117.2,8.4,114.1,14.7,114.9z"/>
		<path class="st0" d="M221,43.3c-0.8-1.8-1.3-3.1-1.8-4.5c-2.1-4.2,1-9.2,5.8-9.4c7.9,0,11.5,5.2,8.1,12.3c-0.3,0.5-1.3,1-2.1,1
			C227.6,43.1,224.2,43.1,221,43.3z"/>
		<path class="st0" d="M56.9,108.1c-3.9,0-7.6-3.7-7.3-7.3c0.3-3.9,3.7-7.1,7.9-7.1c4.7,0,7.6,2.9,7.6,7.3
			C65.1,105.2,61.6,108.1,56.9,108.1z"/>
		<path class="st0" d="M193.5,231.3c2.9,0.3,6,0.5,8.9,0.8c3.1,7.9,2.9,10.2-1,12.8c-3.1,1.8-7.3,1.3-9.7-1.6
			C188.5,239.9,189,236.8,193.5,231.3z"/>
		<path class="st0" d="M31,101.2c5.8,0,6.8,1,6.6,7.1c0,4.5-2.6,7.3-6.6,7.3s-8.6-3.7-8.4-6.8C22.9,103.9,25.7,101.2,31,101.2z"/>
		<path class="st0" d="M124,74c-4.5,0-7.6-3.1-7.6-7.6c0-3.4,3.1-7.3,6-7.6c3.7-0.3,9.7,4.2,9.7,6.8C131.9,69.5,127.7,74,124,74z"/>
		<path class="st0" d="M66.6,65.6c0-3.7,3.9-7.9,7.6-7.9c2.4,0,8.1,6,7.9,8.4c0,3.1-4.7,7.1-8.6,7.1S66.6,70.1,66.6,65.6z"/>
		<path class="st0" d="M250.9,77.1c4.7,0,6.8,2.1,6.8,7.1c0,4.2-3.7,7.6-7.9,7.3c-3.7,0-7.1-3.7-6.8-7.6
			C242.8,79.2,245.4,77.1,250.9,77.1z"/>
		<path class="st0" d="M18.9,150.5c0-3.9,3.4-7.1,7.6-7.1c4.5,0,7.6,3.7,8.1,8.9c0,2.1-5.8,6.3-8.6,6.3
			C22.9,158.4,18.9,153.9,18.9,150.5z"/>
		<path class="st0" d="M124.3,96c0-3.7,3.4-6.8,7.3-6.6c5,0.3,7.9,3.4,7.6,7.1c-0.5,5-2.1,7.1-7.1,7.1
			C127.2,103.3,124.3,100.7,124.3,96z"/>
		<path class="st0" d="M112.5,80.8c6.3,0.3,7.6,1.6,7.9,8.9c0,2.1-4.5,5.5-7.6,5.5c-4.7,0-7.6-3.1-7.3-8.1
			C105.4,83.2,108.3,80.8,112.5,80.8z"/>
		<path class="st0" d="M197.2,37.8c1.8,0.3,3.4,0.8,4.5,0.5c4.5-1,6.8,2.4,7.1,5c0.3,2.4-1.8,5.5-3.9,7.3c-2.6,2.4-6,2.4-8.9-0.3
			c-2.4-2.4-3.4-5.2-1.6-8.4C195.3,41,196.4,39.4,197.2,37.8z"/>
		<path class="st0" d="M50.1,64.3c-3.9,1-7.6-3.1-7.9-7.3c0-3.9,3.1-7.1,7.1-7.1c4.5,0,8.6,3.9,8.4,8.4
			C57.7,60.4,52.7,64.3,50.1,64.3z"/>
		<path class="st0" d="M262.2,53.5c5.8,0,7.1,1.3,7.1,7.1c0,4.7-2.1,6.3-7.6,6.6c-3.9,0-7.1-3.1-7.1-7.1
			C254.6,55.6,256.7,53.5,262.2,53.5z"/>
		<path class="st0" d="M167.3,259.8c0,4.2-3.1,7.3-7.9,7.3c-3.7,0-7.3-3.4-7.1-7.1c0.3-4.2,2.4-7.3,7.9-7.3
			C164.7,252.8,167.3,255.4,167.3,259.8z"/>
		<path class="st0" d="M243,153.4c-4.2,0-8.1-3.7-8.1-7.3c0-2.6,4.2-7.1,6.6-7.1c5,0,8.9,3.9,9.2,8.6
			C250.6,150.3,246.4,153.4,243,153.4z"/>
		<path class="st0" d="M237.5,188.8c0,5.2-2.1,8.1-6.6,8.1c-4.7,0-7.6-2.6-7.6-7.3c0-3.9,3.4-7.9,6.8-7.9
			C233.9,182,237.3,185.4,237.5,188.8z"/>
		<path class="st0" d="M163.6,69.5c2.4,0,7.1,6.3,5.5,8.9c-1.3,2.6-5,4.7-8.1,5.8c-2.9,1-7.1-4.2-7.3-8.1
			C153.9,71.9,157.3,69.5,163.6,69.5z"/>
		<path class="st0" d="M36.7,135.1c0-3.9,3.4-6.8,7.9-7.1c3.9-0.3,7.1,3.1,7.1,7.9c0,2.9-3.9,6.8-6.8,6.8
			C40.2,142.7,36.7,139.5,36.7,135.1z"/>
		<path class="st0" d="M269.2,109.1c-0.3,4.5-3.4,7.3-7.6,7.1c-3.7-0.3-8.1-3.4-7.3-7.1c1-4.7,2.9-7.3,7.6-7.1
			C266.6,102.3,269.5,105.2,269.2,109.1z"/>
		<path class="st0" d="M231,59c4.7,0,7.1,2.4,7.1,6.8c0,3.7-4.2,7.3-8.1,7.3c-3.4,0-6.6-3.7-6.6-7.6C223.4,60.9,225.5,59,231,59z"/>
		<path class="st0" d="M199.3,212.9c2.6-6.6,4.7-8.4,9.2-8.1c3.7,0.3,5.8,2.4,7.1,5.2c0.8,2.1-2.6,7.9-5,8.4
			C204.8,220.2,201.9,216.8,199.3,212.9z"/>
		<path class="st0" d="M247,163.1c3.7,0,6.8,3.1,6.8,6.8c0,3.9-4.2,7.6-8.4,7.6c-3.7,0-6.3-3.4-6.3-7.6
			C238.8,164.9,241.5,163.1,247,163.1z"/>
		<path class="st0" d="M103.6,63.5c-3.7,0-6.8-3.1-6.8-6.8c0.3-4.2,3.1-7.9,7.1-7.6c3.7,0.3,8.4,3.7,8.4,6.6
			C112.5,59.6,108,63.5,103.6,63.5z"/>
		<path class="st0" d="M257.7,46.7c-3.9,0-7.9-3.4-7.9-6.8c0-4.2,3.7-7.6,7.9-7.9c2.4-0.3,7.6,4.7,7.6,7.3
			C265.6,42.5,261.1,46.7,257.7,46.7z"/>
		<path class="st0" d="M253,135.6c0-4.2,2.4-7.6,6.6-7.3c4.7,0.3,8.1,2.9,8.1,7.1c0,3.4-4.2,7.3-7.9,7.3
			C256.1,142.7,253,139.3,253,135.6z"/>
		<path class="st0" d="M84.5,92.6c0,5.2-1.8,7.1-7.1,7.1c-4.2,0-7.9-3.1-7.6-6.8c0-2.9,3.4-7.3,5.5-7.3
			C81.8,85.8,84.5,87.9,84.5,92.6z"/>
		<path class="st0" d="M3.7,97.1c6.6-4.2,8.6-4.5,13.1-1.3c3.4,2.1,1.6,5.2,1,7.3c-0.8,2.6-2.9,5.5-6.6,5
			C4.8,107,3.7,102.3,3.7,97.1z"/>
		<path class="st0" d="M66.6,183.6c0,3.9-3.7,7.6-7.6,7.3c-3.1,0-7.1-3.9-7.3-7.1c-0.3-3.9,3.7-7.3,8.4-7.3
			C63.7,176.7,66.6,179.6,66.6,183.6z"/>
		<path class="st0" d="M283.4,87.6c0,3.9-3.1,7.3-6.8,7.6c-3.4,0.3-7.9-3.9-7.9-7.6c-0.3-3.4,3.9-7.1,7.6-6.8
			C280.5,81.3,283.7,82.9,283.4,87.6z"/>
		<path class="st0" d="M55.6,159.2c0,3.4-3.1,6.8-6.6,6.8c-4.2,0-7.6-3.1-7.6-7.3c0-3.7,3.1-7.1,6.6-7.1
			C54.3,151.8,55.6,153.1,55.6,159.2z"/>
		<path class="st0" d="M40.2,74.8c3.7,0,7.9,2.6,7.6,4.7c-0.8,5.2-2.9,9.2-7.6,8.9c-4.7-0.3-7.3-2.6-7.3-7.1
			C32.8,76.6,34.9,74.8,40.2,74.8z"/>
		<path class="st0" d="M90.7,68.7c4.5,1.3,10.2,0,10.2,7.1c0,3.4-1,6-4.5,7.1c-2.9,0.8-6,1.3-8.1-2.1C85.8,76.6,86,74.8,90.7,68.7z"
			/>
		<path class="st0" d="M18.1,79.2c0,3.7-2.6,6-6.3,6c-3.1,0-5.2-2.1-5.2-5.5c0-2.4,2.9-6.3,5-6.6C15.5,73.2,18.1,75.6,18.1,79.2z"/>
		<path class="st0" d="M178.8,247.5c3.9,0,7.1,2.9,6,6.3c-0.5,1.8-3.7,3.4-6,3.9c-3.1,0.8-7.1-2.4-7.1-4.5
			C172.3,249.9,174.9,247.5,178.8,247.5z"/>
		<path class="st0" d="M90.5,36.2c3.7,0,5.8,1.8,5.8,5c0,3.1-2.6,6.3-5.2,6.3c-2.9,0-6.6-3.7-6.6-6.3C84.5,38.9,87.6,36.2,90.5,36.2
			z"/>
		<path class="st0" d="M257.7,189.6c-3.7,0-5.5-2.1-5.5-6c0-2.9,2.9-5.5,6.6-5c1.8,0.3,4.2,2.6,5,4.5
			C264.5,185.7,260.6,189.6,257.7,189.6z"/>
		<path class="st0" d="M213.7,29.2c-2.9,4.7-5,6-8.4,4.5c-1.6-0.8-2.6-3.4-2.9-5.2c-0.5-3.1,2.6-3.9,5-4.7
			C212.4,22.1,212.1,26.5,213.7,29.2z"/>
		<path class="st0" d="M246.7,51.2c0,2.9-2.6,5.5-5.5,5.5c-3.4,0-4.7-2.4-5.2-5c-0.5-2.6,2.9-5.8,5.8-5.8
			C244.1,46.2,246.7,48.8,246.7,51.2z"/>
		<path class="st0" d="M157.8,36.8c0,2.4-2.6,5.8-4.5,5.8c-2.6,0-6.3-3.4-6.6-6c0-2.4,2.9-4.5,6.8-4.5
			C156.3,31.8,157.8,33.4,157.8,36.8z"/>
		<path class="st0" d="M230.5,216.1c0,2.9-2.1,5-5,5.2c-2.9,0-5.8-2.4-6-4.7c-0.3-2.6,2.6-5.5,5-5.8
			C227.6,210.6,230.5,213.2,230.5,216.1z"/>
		<path class="st0" d="M249.1,27.6c0,2.6-3.7,6.8-5.5,5.8c-2.1-1-3.7-3.7-4.5-6c-0.8-2.4,2.6-5.5,5-5.5
			C246.4,21.8,249.1,25,249.1,27.6z"/>
		<path class="st0" d="M151.3,86.3c2.6,2.4,5,5,2.6,8.1c-1,1.3-3.7,2.6-5.2,2.4c-2.4-0.5-3.9-2.6-3.9-5.5
			C144.5,86.6,148.4,87.1,151.3,86.3z"/>
		<path class="st0" d="M25.2,58.3c3.9,0,5,1.3,5,6c0,2.9-2.1,3.9-5,3.9c-3.1,0-5.5-2.1-5.5-5.5C19.7,59.3,21,58.3,25.2,58.3z"/>
		<path class="st0" d="M290.5,102.3c0,2.6-2.9,6.3-4.7,5.5c-2.1-0.8-4.7-2.6-5.5-4.5c-1-2.6,3.1-7.1,5.5-6.6
			C288.4,97.3,290.5,99.2,290.5,102.3z"/>
		<path class="st0" d="M279.7,67.2c-2.6,0-5.5-2.6-5.5-5s2.6-5.5,4.7-5.5c3.1,0,5.8,2.4,6,5.2C285,64.6,282.4,67.2,279.7,67.2z"/>
		<path class="st0" d="M138.4,278.4c-7.6-2.9-7.3-6-5.5-9.4c1-1.8,4.7-2.6,6.8-1.3C143.4,269.8,142.9,272.1,138.4,278.4z"/>
		<path class="st0" d="M263.7,174.4c-2.1-0.5-5-1-4.7-4.7c0.3-2.9,2.4-5.5,5.2-5c2.4,0.3,5,0.5,5.2,3.7
			C269.8,171.5,267.1,174.4,263.7,174.4z"/>
		<path class="st0" d="M236,205.3c3.9-5,8.1-3.7,12.1,0.3c-0.8,1.3-1.8,3.1-2.9,4.7c-2.6,3.1-6.6,1.8-8.4-2.6
			C236.2,206.9,236.2,205.8,236,205.3z"/>
		<path class="st0" d="M191.1,16.1c3.1,0,5.8,2.6,5.5,5.2c-0.3,2.6-3.1,5-6,4.5c-3.1-0.3-4.2-2.4-3.9-5.2
			C186.7,17.1,189,16.3,191.1,16.1z"/>
		<path class="st0" d="M47.8,112.5c3.7,0,5.5,1.6,5.5,4.7c0,2.9-2.1,5-5,5c-2.4,0-5-2.6-5-5.2C43.6,113.3,44.3,112.5,47.8,112.5z"/>
		<path class="st0" d="M215,12.1c2.9,0.3,5.2,0.8,5.2,4.5c0,3.1-2.1,5.2-5,5.5c-2.6,0-4.7-2.6-4.7-6C210.5,13.2,212.4,12.1,215,12.1
			z"/>
		<path class="st0" d="M148.1,78.7c-1.8,0.5-4.2,2.4-6.3,1.8c-1.8-0.5-3.7-3.1-4.2-5.2c-0.8-2.1,2.6-4.5,5.5-4.5
			C146.3,71.1,148.4,74,148.1,78.7z"/>
		<path class="st0" d="M181.4,53c2.6,0.5,4.5,1.6,4.5,4.7c0,2.9-1,5-4.2,5c-3.1,0.3-5-1.8-5.2-5.2C176.2,54.3,178.3,53.3,181.4,53z"
			/>
		<path class="st0" d="M69.5,81.1c0,3.7-3.7,4.2-5.2,3.9c-1.8-0.3-4.2-2.9-4.5-5c-0.5-2.4,1.3-4.7,4.7-4.5
			C67.9,75.8,69.5,77.7,69.5,81.1z"/>
		<path class="st0" d="M97,206.4c0,2.4-3.7,5.8-6.6,4.7c-1.6-0.5-3.1-3.1-3.7-5.2c-0.5-3.1,2.1-4.2,5-4.5
			C94.4,201.4,97,204,97,206.4z"/>
		<path class="st0" d="M74.5,198.8c-3.1,0-5.8-2.1-5.8-4.7c0-2.6,2.1-4.7,5.2-4.7c3.1,0,5.2,1.8,5.2,4.7
			C78.9,197.2,77.4,198.8,74.5,198.8z"/>
		<path class="st0" d="M269.2,160.7c-3.1,0-4.2-2.4-4.5-5c-0.3-2.9,1.6-4.2,4.7-4.2c3.4,0,4.7,1.6,5.2,4.2
			C275,158.1,272.1,160.7,269.2,160.7z"/>
		<path class="st0" d="M42.3,171.5c0.3,2.9-0.8,4.7-3.9,4.5c-3.1,0-4.7-1.6-4.7-4.7c0-3.4,2.1-3.7,5-3.7
			C42,167.3,42.8,168.9,42.3,171.5z"/>
		<path class="st0" d="M235.2,163.9c-3.9,1.8-4.5,1.8-8.4-1.8c0.3-0.8,0.3-1.3,0.8-2.1c0.3-0.8,0.8-1.3,1-1.8c2.1,0,3.9,0,6.3,0
			C234.9,160,235.2,161.8,235.2,163.9z"/>
		<path class="st0" d="M221.8,54.9c-5,3.4-6.8,3.4-8.6,0.5c-1.6-2.4-0.3-4.5,2.1-5.2C219.4,48.3,220,52.5,221.8,54.9z"/>
		<path class="st0" d="M184.6,88.4c-2.1,0.8-3.9,1.6-6.8,2.6c-0.8-2.4-1.8-4.7-2.6-7.1C180.6,82.1,183.8,83.2,184.6,88.4z"/>
		<path class="st0" d="M245.7,100.2c-2.9,1.8-6,3.1-9.4,0.3c0.8-2.4,0.8-5.2,4.5-5C244.1,95.2,245.4,97.1,245.7,100.2z"/>
		<path class="st0" d="M234.1,130.9c-0.3-2.4,0.8-3.9,3.4-3.9s4.7,1,4.2,3.7c-0.3,1.3-2.4,3.1-3.7,3.7
			C236,134.5,234.1,133.5,234.1,130.9z"/>
		<path class="st0" d="M244.6,194.3c-2.9-1.8-3.7-3.4-1.3-5.8c0.5-0.5,0.3-1.8,0.5-2.9c0.3-1.3,0.5-2.6,0.8-3.9
			c1,0.3,2.1,0.5,3.1,0.8c-0.5,1.3-0.8,2.9-1.3,4.2c-0.3,0.5-0.8,0.5-1,0.8c0.8,1.8,1.8,3.4,1.8,4.7
			C247.2,192.7,245.7,193.5,244.6,194.3z"/>
		<path class="st0" d="M137.1,109.4c3.1,0,5,1.3,4.2,3.7c-0.5,1.6-2.4,2.6-3.7,3.9c-1.3-1.3-3.4-2.6-3.9-4.2
			C133.2,110.4,135.3,109.4,137.1,109.4z"/>
		<path class="st0" d="M224.9,97.3c0.3,2.1,1,4.2,0.8,6c-0.3,1-2.9,2.1-3.9,1.8c-1.3-0.3-2.9-2.6-2.6-3.7c0.5-1.8,2.4-3.4,3.7-5
			C223.6,97.1,224.4,97.3,224.9,97.3z"/>
		<path class="st0" d="M98.1,94.7c2.1,0.8,4.5,1.6,6.3,2.6c0.3,0.3,0,2.9-0.8,3.4c-1,0.8-3.9,1.6-4.5,1c-1.3-1.3-1.8-3.7-2.6-5.5
			C97,95.5,97.6,95.2,98.1,94.7z"/>
		<path class="st0" d="M140.3,43.1c1.6,2.1,3.1,3.4,3.4,4.7c0.3,1.8-0.8,3.7-3.7,3.7c-3.1,0-3.7-2.4-3.7-4.2
			C136.1,46.2,138.2,45.2,140.3,43.1z"/>
		<path class="st0" d="M179.3,68c2.6-0.3,3.4,1,3.4,3.4c0,2.1-0.5,3.7-3.1,3.4c-2.4-0.3-3.9-0.5-3.9-3.4C175.7,69,177,68,179.3,68z"
			/>
		<path class="st0" d="M130.1,76.3c1.6,2.1,2.6,3.4,4.2,5.5c-2.4,1-4.5,2.1-6.6,2.4c-0.3,0-2.1-2.6-1.6-3.7
			C126.9,79,128.5,77.9,130.1,76.3z"/>
		<path class="st0" d="M30.5,51.7c2.6-1.6,3.9-3.1,5.2-3.1c3.1,0,2.4,3.1,3.1,5.2c0,0.3-2.6,2.4-3.7,2.1
			C33.9,55.4,32.8,53.8,30.5,51.7z"/>
		<path class="st0" d="M22.1,130.6c1.8,2.4,3.7,3.7,3.4,5c0,1.3-2.4,3.1-3.4,3.1c-1.3,0-3.4-1.8-3.7-3.1S20.2,133,22.1,130.6z"/>
		<path class="st0" d="M291,76.1c-1.3,0.8-2.9,2.6-3.7,2.4c-1.6-0.5-2.6-2.1-3.9-3.4c1-1,2.4-2.9,3.4-2.9c1.3,0,2.9,1.6,4.2,2.4
			C291,75,291,75.6,291,76.1z"/>
		<path class="st0" d="M212.9,88.1c-2.9,0-6.3,1.3-6.3-3.1c0-2.1,1-3.4,3.4-3.1C213.4,82.4,213.4,85,212.9,88.1z"/>
		<path class="st0" d="M186.7,222.6c1.3-0.8,2.4-2.1,3.7-2.1c2.4-0.3,4.2,1.3,3.7,3.4c-0.3,1.3-2.4,3.1-3.7,3.1s-2.6-1.8-3.9-2.9
			C186.7,223.7,186.7,223.1,186.7,222.6z"/>
		<path class="st0" d="M198.7,35.2c-7.1-1.3-7.9-2.6-5.2-7.1C199.5,29.7,199.5,29.7,198.7,35.2z"/>
		<path class="st0" d="M236.2,174.9c-1.8,1.6-3.1,2.9-4.5,3.9c-1-1.3-2.6-2.4-2.9-3.7c-1-3.1,2.1-3.1,3.9-3.7
			C233.6,171.5,234.6,173.3,236.2,174.9z"/>
		<path class="st0" d="M224.4,19.5c1.6-1.6,3.4-3.7,3.7-3.4c1.6,0.8,3.1,2.4,4.5,3.7c-1.3,1-2.6,2.9-4.5,3.4
			C227.6,23.4,226.3,21.3,224.4,19.5z"/>
		<path class="st0" d="M94.4,59.3c-2.4,1.6-3.7,3.1-5.2,3.1c-1,0-2.1-2.1-3.1-3.4c1.3-1,2.6-2.6,4.2-2.9
			C91,55.9,92.3,57.7,94.4,59.3z"/>
		<path class="st0" d="M171,84.2c1,2.9,4.5,5.2,0.5,7.6c-0.8,0.5-3.9-0.3-4.2-1C166.2,87.9,168.1,86,171,84.2z"/>
		<path class="st0" d="M215.8,60.1c1.8,2.1,3.4,3.4,3.1,3.9c-0.5,1.6,0,4.7-3.1,3.9c-1.3-0.3-2.6-2.1-3.1-3.7
			C212.6,63.5,214.2,62.2,215.8,60.1z"/>
		<path class="st0" d="M216.6,96.5c-1.6,0.8-3.1,2.1-4.5,2.1c-0.8,0-2.6-2.1-2.4-3.1c0-1,1.8-3.1,2.9-2.9c1.6,0.3,2.9,1.6,4.5,2.4
			C216.8,95.5,216.6,96,216.6,96.5z"/>
		<path class="st0" d="M60.3,119.3c2.1,3.4,1.8,6.6-0.8,7.1c-1,0.3-3.4-1-3.9-2.1C54.3,120.6,57.5,119.9,60.3,119.3z"/>
		<path class="st0" d="M72.9,112.5c-1.8,0.8-3.9,2.1-5.8,1.8c-1-0.3-1.8-2.9-2.9-4.5c0.3-0.5,0.8-1,1-1.6c2.4,0.5,4.7,1,7.3,1.6
			C72.7,110.9,72.9,111.7,72.9,112.5z"/>
		<path class="st0" d="M48.5,35.7c1.3,1.3,2.9,2.6,3.7,4.5c0.3,0.5-1.6,2.6-2.6,2.9s-3.4-0.8-3.4-1.6c-0.3-1.8,0.5-3.7,0.8-5.5
			C47.5,36,48,36,48.5,35.7z"/>
		<path class="st0" d="M211.6,229.7c2.4-1.6,3.7-2.9,5-3.1c2.1-0.3,3.7,1.3,2.9,3.1c-0.5,1.3-2.1,2.9-3.4,3.4
			C215,233.4,213.7,231.3,211.6,229.7z"/>
		<path class="st0" d="M119.6,277.1c1.6,2.1,3.4,3.4,3.1,4.2c-0.5,1.3-2.1,3.1-3.4,3.1c-1.3,0-2.9-1.8-3.4-3.1
			C115.6,280.3,117.7,279,119.6,277.1z"/>
		<path class="st0" d="M185.9,240.4c-1.8,0.5-3.9,1.3-5.8,1.6c-0.5,0-2.1-2.1-1.8-3.1c0-1,1.8-2.6,2.6-2.4c1.8,0.3,3.4,1.6,5.2,2.4
			C186.2,239.4,185.9,239.9,185.9,240.4z"/>
		<path class="st0" d="M214.2,194.3c1.6,2.1,3.4,3.1,3.4,4.5c0,0.8-2.1,2.9-3.1,2.6c-1.3-0.3-2.9-1.6-3.4-2.9
			C210.8,197.7,212.6,196.1,214.2,194.3z"/>
		<path class="st0" d="M280.8,141.4c0.8,1.3,2.6,2.6,2.4,3.7c-0.3,1.3-2.1,2.4-3.1,3.4c-1-1.3-2.4-2.4-2.6-3.9
			c-0.3-1,1.3-2.4,1.8-3.4C279.7,141.4,280.3,141.4,280.8,141.4z"/>
		<path class="st0" d="M22.9,89.5c2.4-1.3,3.7-2.9,4.7-2.6c1.3,0.3,2.1,1.8,3.1,2.9c-1.3,1-2.4,2.6-3.7,2.9
			C26.3,92.9,25,91.3,22.9,89.5z"/>
		<path class="st0" d="M111.7,69.3c-1,2.4-1.6,5.8-5,4.5c-1-0.3-2.1-3.7-1.6-4.5C107,66.6,109.6,68.2,111.7,69.3z"/>
		<path class="st0" d="M137.1,54.3c1.3,2.4,2.9,3.7,2.6,4.5c-0.3,1-1.8,2.1-2.9,3.1c-1-1-2.6-2.1-2.9-3.4
			C133.5,57.7,135.3,56.4,137.1,54.3z"/>
		<path class="st0" d="M117.7,44.9c0.8,1.3,2.4,2.6,2.4,3.7s-1.8,2.4-3.1,2.6c-2.1,0.5-2.9-1.3-2.6-2.9c0.3-1.3,1.3-2.4,1.8-3.4
			C116.7,44.9,117.2,44.9,117.7,44.9z"/>
		<path class="st0" d="M164.7,244.6c1-0.5,2.4-1.3,3.4-1.6c2.1-0.3,3.4,0.8,2.9,2.6c-0.5,1.3-2.1,2.6-3.4,2.9
			c-0.8,0.3-2.1-1.6-3.1-2.4C164.7,245.7,164.7,245.2,164.7,244.6z"/>
		<path class="st0" d="M177.5,14.8c1,1.6,2.4,2.9,2.6,4.5c0.3,0.5-1.6,1.8-2.6,2.6c-1-1-2.6-1.8-2.9-3.1c-0.3-1,0.8-2.6,1.3-3.9
			C176.5,15,177,14.8,177.5,14.8z"/>
		<path class="st0" d="M245.1,123c1.8,0.8,3.7,1,5,2.4c0.5,0.5,0.3,2.9-0.3,3.4c-1,0.5-3.1,1-3.9,0.3c-1-1-1.6-2.9-2.1-4.5
			C244.3,123.8,244.9,123.5,245.1,123z"/>
		<path class="st0" d="M55.1,66.6c1.6,1.8,2.6,2.9,3.4,3.9c-1,0.8-2.4,2.6-3.4,2.6s-2.4-1.6-3.4-2.4C52.7,69.5,53.5,68.5,55.1,66.6z
			"/>
		<path class="st0" d="M283.4,72.7c-2.4,1.6-3.7,2.9-5.2,3.4c-0.5,0.3-2.4-2.1-2.4-2.4c0.8-1.3,1.8-2.6,3.1-3.4
			C279.7,70.1,281,71.4,283.4,72.7z"/>
		<path class="st0" d="M242,73.2c0-1-0.3-2.4,0.3-3.4c0.5-1,1.6-2.6,2.1-2.6c1.3,0.3,2.4,1.3,3.7,2.1c-0.8,1-1.3,2.4-2.4,2.9
			C244.6,72.9,243.3,72.9,242,73.2L242,73.2z"/>
		<path class="st0" d="M166.8,19.2c2.6-0.5,5.2-0.5,5.5,2.6c0,1-2.4,3.1-3.4,2.9C166,24.2,166,21.8,166.8,19.2z"/>
		<path class="st0" d="M233.9,206.1c-1.6,0-3.4,0.5-4.7-0.3c-0.8-0.5-1.6-2.1-1.6-3.4c0-0.5,2.1-1.8,2.6-1.6
			c1.6,0.8,2.9,2.1,4.2,3.4C234.4,204.8,234.1,205.6,233.9,206.1z"/>
		<path class="st0" d="M226,176.7c-2.1,1.6-3.9,2.9-5.5,4.2c-0.5-1.6-2.1-3.4-1.6-4.5C220.5,173.6,222.8,175.7,226,176.7z"/>
		<path class="st0" d="M267.7,76.1c-0.5,1.3-0.8,3.1-1.6,4.2c-0.5,0.5-2.6,0.8-3.4,0.3c-0.8-0.5-1.3-2.9-0.8-3.1
			c1-1,2.9-1.3,4.5-2.1C266.6,75.3,267.1,75.8,267.7,76.1z"/>
		<path class="st0" d="M118.3,99.2c1.3,1.8,2.9,3.1,2.6,3.7c-0.5,1-2.1,2.6-3.1,2.6s-2.4-1.8-2.6-2.9
			C114.9,102,116.7,100.7,118.3,99.2z"/>
		<path class="st0" d="M147.9,265.1c0.5,2.4,5.2,2.4,2.9,6c-0.5,0.5-3.4,0.8-3.4,0.5c-0.8-1.8-1-3.9-1.3-6
			C146.8,265.3,147.4,265.1,147.9,265.1z"/>
		<path class="st0" d="M272.7,42.5c1.3,1.6,2.6,2.6,2.9,3.4c0,1.6-0.8,3.4-2.9,2.6c-1.3-0.3-2.6-1.6-2.9-2.6
			C269.5,45.4,271.1,44.4,272.7,42.5z"/>
		<path class="st0" d="M258,197.2c-2.9,1-5.2,0.8-6.3-1.6c-0.3-0.5,1.3-2.9,2.1-2.9C257.4,191.9,256.7,195.1,258,197.2z"/>
		<path class="st0" d="M170.7,44.9c0.5,1,1.8,2.1,1.6,3.1c0,0.8-1.3,2.1-2.1,2.4c-2.1,0.5-3.1-0.8-2.9-2.6c0.3-1,1-1.8,1.8-2.9
			C169.6,44.9,170.2,44.9,170.7,44.9z"/>
		<path class="st0" d="M28.1,74.5c-2.1,1.3-3.4,2.6-4.2,2.4c-1,0-2.4-1.6-2.4-2.4s1.6-2.4,2.1-2.4C25,72.2,26,73.2,28.1,74.5z"/>
		<path class="st0" d="M112.5,41c-2.1,1.3-3.4,2.6-4.5,2.6c-0.8,0-1.6-1.8-2.6-2.6c1-0.8,1.8-2.1,3.1-2.4
			C109.4,38.6,110.4,39.9,112.5,41z"/>
		<path class="st0" d="M28.4,119.9c1.6,1.3,2.6,2.1,3.7,2.9c-1,0.8-2.4,2.1-3.4,2.4c-0.8,0-2.1-1.3-2.6-2.4
			C26,122.2,27.3,121.2,28.4,119.9z"/>
		<path class="st0" d="M41.5,68.5c-1.8,0.3-3.4,0.5-5.2,0.8c0-1-0.8-2.6-0.3-3.1C38.3,64,39.6,66.4,41.5,68.5z"/>
		<path class="st0" d="M120.6,52.8c2.1-2.4,3.4-3.7,5.2-1.6c0.5,0.8,0,2.4-0.3,3.7C124,54.1,122.5,53.5,120.6,52.8z"/>
		<path class="st0" d="M17.4,69c-1.6,0.3-3.4,0.3-5,0.5c0.3-1.3,0.5-2.6,0.8-3.9c1.6,0.5,2.9,1,4.5,1.6C17.6,67.7,17.4,68.2,17.4,69
			z"/>
		<path class="st0" d="M222.1,204.8c-1-1.6-2.6-2.6-2.4-3.7c0.3-0.8,1.8-2.1,2.9-2.4c0.5,0,2.4,1.6,2.1,2.4
			C224.7,202.2,223.4,203.2,222.1,204.8z"/>
		<path class="st0" d="M247.5,97.3c1.6,0.3,3.1,0.8,4.7,1c-0.8,1-1.6,2.4-2.4,3.4c-1-1-2.1-2.1-3.1-3.1
			C247,98.1,247.2,97.6,247.5,97.3z"/>
		<path class="st0" d="M195.3,58.8c1.3-1.6,2.9-3.4,5.2-1.6c0.5,0.3,0.3,2.4,0.3,2.4c-1.8,0.3-3.4,0.5-5.2,0.5
			C195.6,59.6,195.3,59.3,195.3,58.8z"/>
		<path class="st0" d="M54.6,169.9c1.3-0.5,2.9-0.8,4.2-1.3c0.3,1,0.8,2.4,1,3.4c-1.6,0-3.4,0-5,0C54.8,171.2,54.6,170.7,54.6,169.9
			z"/>
		<path class="st0" d="M110.1,210.8c1,1.6,2.4,2.9,2.1,3.4c-0.5,1-2.1,1.6-3.1,2.1c-0.5-0.8-1.6-1.8-1.6-2.4
			C107.8,213.2,108.8,212.4,110.1,210.8z"/>
		<path class="st0" d="M230.2,150c1,1.6,2.4,2.4,2.4,3.1c0,0.5-1.3,2.1-2.1,1.8c-1-0.3-2.1-1-2.4-2.1
			C228.1,152.6,229.1,151.6,230.2,150z"/>
		<path class="st0" d="M45.1,43.8c-1.8,1-2.9,2.4-3.7,2.1s-1.6-1.3-2.4-2.1c0.8-0.8,1.3-1.8,2.1-1.8C42.3,41.7,43.3,42.8,45.1,43.8z
			"/>
		<path class="st0" d="M54,146.3c1.3-0.8,2.6-1.8,3.7-2.6c0.5,0.8,1,1.8,1.6,2.6c-1.3,0.5-2.9,1.3-4.2,1.8
			C54.8,147.6,54.6,146.9,54,146.3z"/>
		<path class="st0" d="M11.3,136.9c1,0.8,2.4,1.8,3.4,2.6c-0.8,0.8-1.8,1.3-2.6,2.1c-0.8-1-1.6-2.4-2.1-3.4
			C10.5,137.7,10.8,137.4,11.3,136.9z"/>
		<path class="st0" d="M215,72.4c-1.6,0.8-2.4,1.8-3.1,1.8c-0.5,0-1.8-1.3-1.6-1.8c0.3-0.8,1.3-1.8,2.1-1.8
			C212.9,70.3,213.7,71.4,215,72.4z"/>
		<path class="st0" d="M217.9,45.7c-1.6,0.8-2.4,1.6-3.1,1.3c-0.8-0.3-1.6-1.3-1.6-1.8s1.3-1.6,1.8-1.6
			C216,43.6,216.6,44.6,217.9,45.7z"/>
		<path class="st0" d="M259.5,98.9c-0.8-1.3-1.8-2.1-1.8-2.9s1.3-1.6,1.8-1.6s1.6,1,1.8,1.8C261.4,97.1,260.6,97.8,259.5,98.9z"/>
		<path class="st0" d="M264.8,150.5c-1.3,0.8-2.1,1.8-2.9,1.8c-0.8,0-1.6-1.3-1.6-2.1c0-0.5,1-1.6,1.6-1.6
			C262.4,148.7,263.2,149.5,264.8,150.5z"/>
		<path class="st0" d="M251.4,200.3c0.8,1.3,1.3,2.1,1.3,2.9c0,0.5-1,1.6-1.6,1.6c-0.8-0.3-2.1-1-1.8-1.6
			C249.6,202.2,250.4,201.6,251.4,200.3z"/>
		<path class="st0" d="M242,73.2c-0.5,1-0.8,2.1-1.3,3.1c-0.5-0.5-1.3-1-1.8-1.6C239.9,74.5,240.9,74,242,73.2L242,73.2z"/>
		<path class="st0" d="M190.1,47.5c-1,0.8-1.8,1.6-2.1,1.3c-0.5-0.3-1-1-1.3-1.8c0.5-0.3,1-1,1.8-1C188.8,46.2,189.3,47,190.1,47.5z
			"/>
		<path class="st0" d="M162.3,95.5c-0.5-1-1-1.6-1-2.1c0-0.3,0.8-1,1-1c0.5,0.3,1.3,0.8,1.6,1.3C163.6,93.9,162.8,94.7,162.3,95.5z"
			/>
		<path class="st0" d="M166,88.7c-1.3,1-1.8,1.6-2.4,1.8c-0.3-0.5-1-1-1-1.3c0.3-0.5,0.8-1.3,1.3-1.3
			C164.1,87.6,164.9,88.1,166,88.7z"/>
		<path class="st1" d="M244.3,264c0.3,0.8,0.5,1.8,0.8,2.6c-0.8,0-1.6-0.3-2.1-0.3C243.3,265.6,243.8,264.8,244.3,264z"/>
		<path class="st0" d="M197.9,11.6c-0.5,0.5-1,0.8-1.3,1.3c-0.5-0.5-0.8-1-1.3-1.3c0.5-0.3,0.8-1,1.3-1
			C196.9,10.6,197.4,11.1,197.9,11.6z"/>
		<path class="st0" d="M196.4,88.7c-0.5-0.8-1-1.3-1-1.6c0-0.3,0.5-1,0.8-1c0.5,0,1.3,0.5,1.3,0.8C197.4,87.4,196.9,87.9,196.4,88.7
			z"/>
		<path class="st1" d="M217.3,73.5c0-0.3,0-0.8,0-1h0.3c0,0.3,0,0.8,0,1C217.6,73.5,217.3,73.5,217.3,73.5z"/>
	</g>
</g>
</svg>
