<?xml version="1.0" encoding="utf-8"?>
<!-- Generator: Adobe Illustrator 25.3.1, SVG Export Plug-In . SVG Version: 6.00 Build 0)  -->
<svg version="1.0" id="Layer_1" xmlns="http://www.w3.org/2000/svg" xmlns:xlink="http://www.w3.org/1999/xlink" x="0px" y="0px"
	 width="700px" height="700px" viewBox="0 0 700 700" enable-background="new 0 0 700 700" xml:space="preserve">
<g>
	<g>
		<path fill="#02B4C7" d="M282.84,376.65c4.18,1.92,8.36,3.83,12.37,5.92c26.48,13.07,54.18,21.6,83.8,21.78
			c26.83,0.17,53.13-3.31,78.05-14.46c10.98-4.88,20.56-11.85,29.79-19.69c13.24-11.32,26.48-22.65,40.42-32.93
			c6.45-4.7,14.46-8.36,22.12-10.1c21.43-5.05,39.55,14.11,35.36,36.58c-1.92,9.93-5.92,18.64-12.89,25.96
			c-16.9,17.42-34.49,33.97-57.84,42.16c-27.35,9.76-55.57,12.72-84.14,9.23c-51.04-6.27-97.04-26.31-139.37-55.75
			c-2.61-1.92-4.88-4.18-7.32-6.27c-0.52-0.35-0.7-1.05-1.05-1.57C282.49,377,282.67,376.83,282.84,376.65z"/>
	</g>
	<g>
		<g>
			<path fill="#0B528F" d="M31.98,360.98c18.47-3.48,36.93-8.88,55.4-9.93c69.68-4.01,132.92,18.47,192.16,53.83
				c43.03,25.61,87.63,45.99,137.1,52.61c61.32,8.19,118.29-0.7,161.67-52.26c12.37-14.63,22.82-30.66,23.34-51.04
				c0.87-38.33-36.76-63.41-69.51-45.12c-15.85,8.88-30.49,20.73-43.9,33.45c-34.84,33.1-75.96,43.03-121.95,40.77
				c-43.03-2.26-81.18-20.56-120.73-34.67c-41.11-14.63-82.92-25.43-126.65-25.26c-36.76,0.17-72.65,5.92-107.14,19.51
				c-0.35-1.05-0.87-2.09-1.22-3.31c16.55-7.84,32.75-16.9,50-23.17c69.68-25.43,138.85-23,208.36,2.79
				c29.62,10.98,60.8,19.51,91.98,23.17c52.09,6.27,97.56-23.17,125.08-75.61c8.36,0,17.07,0,25.78,0
				c30.49-0.17,47.73-17.94,47.73-49.65c0-17.94,0-35.71,0-55.57c24.74,16.72,42.33,37.8,55.75,62.72
				c59.75,111.32-5.92,250.34-127.87,270.9c-44.6,7.49-87.28-1.39-127.7-19.34c-32.23-14.29-63.59-31.36-93.9-49.82
				c-63.41-38.33-129.79-64.46-204.35-63.59c-9.41,0.17-18.99,1.39-28.4,2.26C32.5,363.41,32.15,362.19,31.98,360.98z"/>
			<path fill="#0B528F" d="M293.47,195.13c8.19,6.45,17.94,14.11,27.7,21.78c2.09-1.05,4.18-1.74,5.57-2.96
				c13.24-11.32,25.09-14.98,41.64-2.79c14.11,10.45,32.23,6.45,47.73-2.09c19.51-10.8,38.5-22.82,58.19-33.1
				c15.16-7.84,30.84-14.81,46.86-20.21c16.9-5.75,22.82-0.52,22.82,17.25c0,16.38,0.17,32.75,0,49.13
				c-0.17,16.03-9.41,26.83-24.74,27c-93.2,0.35-186.41,0.17-278.39,0.17C257.75,231.71,275.35,213.77,293.47,195.13z
				 M516.63,194.78c-11.15-14.63-25.96-14.46-36.06,0.35C492.94,209.24,505.31,209.06,516.63,194.78z"/>
		</g>
		<g>
			<path fill="#DCB064" d="M555.66,530.66c-12.19-7.49-24.22-14.81-36.24-22.12c0.52-0.35,1.05-0.52,1.39-0.87
				c10.28-4.88,20.38-9.58,30.49-14.46c4.18-2.09,8.36-4.36,13.24-6.79C561.58,501.56,558.62,515.85,555.66,530.66z"/>
			<path fill="#DCB064" d="M479,551.04c-8.54-12.02-16.9-23.52-25.61-35.71c16.72-0.52,32.75-0.87,49.48-1.39
				C494.68,526.48,486.84,538.67,479,551.04z"/>
			<path fill="#DCB064" d="M583.88,156.45c13.94-3.31,27.35-6.45,40.94-9.58c-1.22,14.98-2.26,29.62-3.48,44.77
				C608.97,179.8,596.77,168.47,583.88,156.45z"/>
			<path fill="#DCB064" d="M676.39,399.48c-13.41,4.53-26.48,8.88-40.07,13.59c5.23-16.72,10.45-33.27,15.68-50.17
				C660.18,375.09,668.2,387.11,676.39,399.48z"/>
			<path fill="#DCB064" d="M652,262.37c-5.4-16.9-10.63-33.27-16.03-50c13.41,4.36,26.65,8.54,40.07,12.89
				C667.85,237.63,660.01,249.83,652,262.37z"/>
			<path fill="#DCB064" d="M584.75,477c11.15-12.89,22.12-25.43,33.62-38.67c2.61,15.16,5.05,29.62,7.67,44.6
				C612.1,481.01,598.69,479.09,584.75,477z"/>
			<path fill="#DCB064" d="M656.18,340.07c-0.17-17.25-0.52-34.49-0.7-52.44c11.5,8.88,22.65,17.42,33.97,26.13
				c-10.98,8.88-21.78,17.77-32.58,26.65C656.53,340.24,656.35,340.07,656.18,340.07z"/>
		</g>
		<g>
			<path fill="#DCB064" d="M460.36,553.13c-8.71-1.57-12.89-2.44-20.56-4.36c-16.72-4.01-29.96-6.97-50.52-13.07
				c-22.65-6.62-57.32-22.3-77.52-34.15c-17.77-10.45-35.89-20.56-53.48-31.36c-12.89-8.01-24.91-17.42-37.98-25.09
				c-11.32-6.79-23.52-12.37-35.54-17.94c-10.98-5.05-22.12-10.1-33.62-13.76c-20.38-6.62-41.29-12.19-62.02-18.81
				c11.5,1.39,23.17,2.61,34.67,4.36c11.15,1.74,22.3,3.66,33.1,6.45c11.67,3.14,23.34,6.97,34.49,11.5
				c13.76,5.4,27.53,11.32,40.94,17.77c10.45,5.05,20.21,11.5,30.49,17.07c13.07,7.14,25.96,14.46,39.2,21.25
				c9.58,4.88,19.34,9.58,29.09,13.76c9.41,4.01,19.16,7.49,28.74,11.15c7.67,2.79,15.5,5.75,23.34,8.01
				c9.41,2.79,19.16,5.05,28.74,7.14c7.67,1.74,15.5,2.26,22.82,4.7c3.14,1.05,5.57,5.23,7.84,8.19
				C448.17,535.01,453.74,543.55,460.36,553.13z"/>
		</g>
	</g>
</g>
</svg>
