<?xml version="1.0" encoding="utf-8"?>
<!-- Generator: Adobe Illustrator 27.9.0, SVG Export Plug-In . SVG Version: 6.00 Build 0)  -->
<svg version="1.1" id="Layer_1" xmlns="http://www.w3.org/2000/svg" xmlns:xlink="http://www.w3.org/1999/xlink" x="0px" y="0px"
	 width="43px" height="43px" viewBox="0 0 43 43" style="enable-background:new 0 0 43 43;" xml:space="preserve">
<style type="text/css">
	.st0{fill:#143B6F;}
	.st1{fill:url(#SVGID_1_);}
	.st2{fill:#C4D7D8;}
	.st3{fill:#99A7A7;}
	.st4{fill:url(#SVGID_00000149340808362289641220000014297275821068866445_);}
	.st5{fill:url(#SVGID_00000176764616543979330870000009845387281038482623_);}
	.st6{fill:url(#SVGID_00000134950911675121390900000012173190771717946243_);}
	.st7{fill:url(#SVGID_00000039836525594468499990000017913233363161705373_);}
	.st8{fill:url(#SVGID_00000084506886998975114540000014223267994991991466_);}
	.st9{fill:url(#SVGID_00000150793410473343985440000016858758351180933020_);}
	.st10{fill:url(#SVGID_00000098201047334434219820000010260409993829120397_);}
	.st11{fill:#FCFDFD;}
	.st12{fill:#2AA4AA;}
	.st13{fill:url(#SVGID_00000052078079670821153700000004216602955338023044_);}
	.st14{fill:url(#SVGID_00000085220704806812366570000007580257008750714531_);}
	.st15{fill:url(#SVGID_00000034047563406508619690000005512845459885917371_);}
	.st16{fill:url(#SVGID_00000036244388553176487200000010051988060200147888_);}
	.st17{fill:url(#SVGID_00000102542676382784416850000017064660128977036222_);}
	.st18{fill:url(#SVGID_00000115514666327631762730000005425253898650327168_);}
</style>
<g id="Layer_4">
	<g>
		<path class="st0" d="M33.1,39.9c-1.6,1.1-3.1,1.6-5,1.6c0-0.4,0-0.8,0.1-1.1c-5.4-1.4-8.4-5-9.1-10.1c-0.8-5.3,1.6-9.3,6-12.3
			c-4.4,1.6-7.1,4.8-8.4,9c-0.3,0.9-0.7,1.6-0.8,2.5c-0.4,4.6,1.6,8.4,5.2,11.3c0.9,0.8,1.8,1.3,3,2c-0.8,0-1.4-0.1-2-0.1
			c-1.3-0.8-2.7-1.4-3.9-2.4c-6.1-5.4-5.9-13.6,0.1-19.7c0.9-0.9,0.9-0.9,0.1-1.6c0.4-0.3,0.8-0.5,1-0.8c0.7-0.3,1.3-0.6,2-0.9
			c-0.3-0.1-0.4-0.3-0.4-0.1c-2.7,0.8-5.5,1.4-8.1,2.3c-2.4,1.1-4.4,2.1-6.3,3.8c-0.1,0-0.1,0.1-0.3,0.1l0,0
			c-0.1,0.1-0.4,0.3-0.5,0.4l0,0c-2,1.6-3.4,3.5-3.8,5.9c0,0.3-0.1,0.5-0.3,0.8c0-0.1-0.1-0.1-0.1-0.3c-0.5-4.3,1.4-7.8,5.4-9.8
			c3-1.6,6.1-2.5,9.5-3c0.7-0.1,1.3-0.4,2.1-0.6c-0.4-0.3-0.8-0.4-1.2-0.4c-1-0.1-2.2-0.4-3.3-0.5c-0.8-0.3-1.6-0.4-2.4-0.6
			c-0.5-0.3-1-0.5-1.6-0.9c-0.7-0.4-1.2-0.9-1.8-1.3c-0.7-0.6-1.2-1.3-1.8-1.9c-1.7-1.8-2.6-4-3.1-6.4c0,0,0.1-0.1,0.1-0.3
			C4,5,4.2,5.4,4.4,5.6c0.9,2.3,2.1,4.3,4.1,5.8c1,0.8,2.2,1.5,3.3,2.1c0-0.6,0-0.9,0-1.3c0-0.3-0.1-0.5-0.3-0.6
			c-0.9-0.9-1.8-1.6-2.7-2.5C8.5,8.9,8.4,8.5,8.3,8.3c-2-2.3-3.1-5-4.2-7.8c0-0.1,0-0.1,0-0.4c0.3,0.3,0.5,0.4,0.7,0.5
			c1.8,2.6,4.1,4.9,6.7,6.6c-0.7,0.5-0.3,1,0.1,1.3c4.1,2.8,8.4,4.5,13.3,4.5c1.2,0,2.5,0.1,3.4,0.9c0.7,0.6,1.4,0.8,2.2,0.6
			c0.4,0.1,0.7,0.1,1,0.3c0.9,0.3,1.7,0.8,2.1,1.8c-0.4,0-0.7,0-1,0.1c-0.1,0-0.3-0.1-0.4-0.1c-2-0.1-3.8,0.5-5.5,1.4
			c-0.8,0.4-1.6,1.1-2.2,1.8c-1.4,1.4-2.4,3-2.9,4.9c-1,3-0.9,5.9,0.3,8.8c1.7,4.4,6.8,7.1,10.8,6.5C32.9,39.9,32.9,39.9,33.1,39.9z
			"/>
		
			<linearGradient id="SVGID_1_" gradientUnits="userSpaceOnUse" x1="18.5256" y1="25.4677" x2="36.8172" y2="36.0285" gradientTransform="matrix(1 0 0 -1 0 44)">
			<stop  offset="0.7035" style="stop-color:#E8A855"/>
			<stop  offset="1" style="stop-color:#F7DF9C"/>
		</linearGradient>
		<path class="st1" d="M42.5,22.2c-0.8-1-1.4-2.1-2.2-3c-1.3-1.4-3-2.1-5-2.4c-0.3,0-0.7-0.3-0.7-0.4c-0.4-1.4-1.4-2-2.6-2.5
			c-0.4-0.1-0.8-0.4-1-0.8C29.3,11,27,10,24.2,10c-4.7-0.1-9-1.5-12.9-4.1c-0.1-0.1-0.3-0.3-0.5-0.4c4.8-2.8,9.9-3.1,15.3-2
			c1.7,0.6,3.5,1.1,5.2,1.9c2.9,1.4,5.2,3.4,7.1,6C41,14.5,42.3,18.3,42.5,22.2z"/>
		<path class="st2" d="M21.6,24.5c0.5-1.9,1.4-3.5,2.9-4.9c0.7-0.6,1.4-1.3,2.2-1.8c1.7-0.9,3.5-1.5,5.5-1.4c0.1,0,0.3,0.1,0.4,0.1
			c-0.3,0.1-0.5,0.3-0.8,0.4c-0.9,0.4-2,0.6-2.9,1c-0.4,0.1-0.9,0.3-1.2,0.5c-3.7,2.6-5,7.9-3,11.9c0.9,1.8,2.2,3.1,4.3,4.3
			c0-1.4,0-2.6,0-3.8c3.4,2.1,6.7,2.1,10.1,0c0.5-0.4,1-0.9,1.6-1.4c0.1-0.1,0.5-0.6,0.5,0.1c-1.4,2.3-3.1,4.4-6,5.4
			c-0.1,0.1-0.4,0.4-0.4,0.6c0,0.6,0.1,1.1,0.1,1.8c-2.9,1.9-6.8,1.1-9.4-0.9c-3.9-2.9-4.7-6.9-4.1-11.3
			C21.7,25,21.6,24.8,21.6,24.5z"/>
		<path class="st3" d="M21.6,17.8c-0.7,0.3-1.3,0.6-2,0.9c-0.4,0.3-0.8,0.5-1,0.8c-1.2,1-2.5,2-3.7,3c-0.9,1-1.8,1.9-2.5,2.9
			c-2.6,4-2.2,8-0.3,12.1c1,2.1,2.7,3.8,4.6,5.3l0,0c-2.2-0.3-4.1-1.1-5.8-2.5c0.7-0.5,0.7-1.3,0.3-2c-1.8-2.9-2.5-6-1.6-9.4
			c0.4-1.3,1-2.5,1.6-3.8l0,0l0.1-0.1l0,0l0,0L11.3,25l0,0c-0.9,0.8-2.1,1.4-2.7,2.4c-0.8,1.3-1.2,2.6-1.7,4c0,0,0,0,0-0.1l-0.1-0.1
			c-0.1,0.5-0.3,1.1-0.3,1.6c0.1,1.5,0.3,2.9,0.4,4.4c0,0.1,0,0.1-0.1,0.4c-2.5-3-4.1-6.3-2.7-10c0.4-1,1.2-1.8,1.7-2.8
			c0.1-0.3,0.4-0.6,0.5-1l0,0c0.3,0,0.4-0.1,0.7-0.1c0-0.1,0-0.1,0-0.3c0.1,0,0.1-0.1,0.3-0.1c1.8-1.6,3.9-2.6,6.3-3.5
			c2.6-0.9,5.4-1.5,8.1-2.3C21.4,17.5,21.5,17.5,21.6,17.8z"/>
		<path class="st2" d="M11.3,24.9L11.3,24.9C11.2,25,11.2,25,11,25.2l0,0l0,0C11.2,25,11.2,25,11.3,24.9L11.3,24.9z"/>
		
			<linearGradient id="SVGID_00000131331795750048501690000009630241675458214037_" gradientUnits="userSpaceOnUse" x1="16.5989" y1="14.0493" x2="28.2007" y2="14.0493" gradientTransform="matrix(1 0 0 -1 0 44)">
			<stop  offset="1.995193e-02" style="stop-color:#437283"/>
			<stop  offset="1" style="stop-color:#64B4B7"/>
		</linearGradient>
		<path style="fill:url(#SVGID_00000131331795750048501690000009630241675458214037_);" d="M16.8,27.2c1.3-4.3,3.9-7.4,8.4-9
			c-4.4,3-6.8,7-6,12.3c0.8,5.1,3.8,8.6,9.1,10.1c0,0.4,0,0.8-0.1,1.1c-3.8,0.4-8.2-2.1-9.9-5.8c-0.7-1.4-0.8-2.9-1.3-4.3
			C16.4,30.2,16.7,28.7,16.8,27.2z"/>
		
			<linearGradient id="SVGID_00000095303455853444522790000004711764359484047512_" gradientUnits="userSpaceOnUse" x1="11.5376" y1="12.8784" x2="22.2165" y2="12.8784" gradientTransform="matrix(1 0 0 -1 0 44)">
			<stop  offset="1.995193e-02" style="stop-color:#437283"/>
			<stop  offset="1" style="stop-color:#64B4B7"/>
		</linearGradient>
		<path style="fill:url(#SVGID_00000095303455853444522790000004711764359484047512_);" d="M22.3,43c-2,0-3.7-0.8-5.2-1.6
			c-4.4-2.8-6.5-8-4.8-13.3c0.5-1.8,1.6-3.3,2.4-4.9c0.1-0.3,0.3-0.5,0.4-0.9c1.2-1,2.5-2,3.7-3c0.8,0.8,0.8,0.8-0.1,1.6
			c-6,6-6.3,14.1-0.1,19.7C19.4,41.6,21,42.2,22.3,43z"/>
		
			<linearGradient id="SVGID_00000116954386451965069280000012459549451545813889_" gradientUnits="userSpaceOnUse" x1="1.0247" y1="20.7043" x2="18.8482" y2="20.7043" gradientTransform="matrix(1 0 0 -1 0 44)">
			<stop  offset="1.995193e-02" style="stop-color:#437283"/>
			<stop  offset="1" style="stop-color:#64B4B7"/>
		</linearGradient>
		<path style="fill:url(#SVGID_00000116954386451965069280000012459549451545813889_);" d="M18.9,16.9c-0.7,0.3-1.3,0.5-2.1,0.6
			c-3.4,0.4-6.5,1.4-9.5,3c-3.9,2-5.8,5.6-5.4,9.8c0,0.1,0,0.1,0.1,0.3c-0.1,0-0.3-0.1-0.3-0.1c-1.7-5.3-0.4-10.3,5.9-12.5
			c1-0.4,2.1-0.6,3-0.9c0.5,0,1-0.1,1.6-0.1h4.7v-0.1c-0.8,0-1.6-0.1-2.4-0.3c0-0.1-0.1-0.4-0.1-0.5c1,0.1,2.2,0.3,3.3,0.5
			C18.1,16.5,18.5,16.7,18.9,16.9z"/>
		
			<linearGradient id="SVGID_00000099628585832322627100000016105652936639270067_" gradientUnits="userSpaceOnUse" x1="23.9157" y1="17.6366" x2="29.1963" y2="17.6366" gradientTransform="matrix(1 0 0 -1 0 44)">
			<stop  offset="0.2917" style="stop-color:#C3D1D2"/>
			<stop  offset="1" style="stop-color:#959E9E"/>
		</linearGradient>
		<path style="fill:url(#SVGID_00000099628585832322627100000016105652936639270067_);" d="M29.2,30.9c0,1.3,0,2.4,0,3.8
			c-2.1-1-3.4-2.4-4.3-4.3c-2-4-0.7-9.3,3-11.9c0.4-0.3,0.8-0.4,1.2-0.5c-0.7,0.8-1.4,1.6-2.1,2.5c-2.2,3.5-1.4,7.5,2,10.1
			C29.1,30.8,29.1,30.8,29.2,30.9z"/>
		
			<linearGradient id="SVGID_00000117647676646802890210000017182643101229515684_" gradientUnits="userSpaceOnUse" x1="0.312" y1="26.0259" x2="14.5305" y2="26.0259" gradientTransform="matrix(1 0 0 -1 0 44)">
			<stop  offset="0.2917" style="stop-color:#C3D1D2"/>
			<stop  offset="1" style="stop-color:#959E9E"/>
		</linearGradient>
		<path style="fill:url(#SVGID_00000117647676646802890210000017182643101229515684_);" d="M14.6,16.5c-0.8,0.1-1.6,0.3-2.4,0.3
			c-0.5,0-1,0.1-1.6,0.1c-1,0-2,0-3,0.1c-0.9,0.1-1.7,0.6-2.5,0.9c-2.1,1.3-3.8,2.8-4.8,4.9c0-0.3,0-0.5,0.1-0.9c0-0.5,0-1.1,0-1.6
			c0.8-4.1,3.9-6.8,8.2-7.1c0.7,0.4,1.2,0.9,1.8,1.3c0.5,0.3,1,0.5,1.6,0.9c0.8,0.3,1.6,0.4,2.4,0.6C14.4,16.2,14.4,16.4,14.6,16.5z
			"/>
		
			<linearGradient id="SVGID_00000091731523269778681100000012937323484799611815_" gradientUnits="userSpaceOnUse" x1="6.6427" y1="11.3759" x2="11.3608" y2="11.3759" gradientTransform="matrix(1 0 0 -1 0 44)">
			<stop  offset="0.2917" style="stop-color:#C3D1D2"/>
			<stop  offset="1" style="stop-color:#959E9E"/>
		</linearGradient>
		<path style="fill:url(#SVGID_00000091731523269778681100000012937323484799611815_);" d="M10.9,40.2c-2.9-2.3-4.4-5.1-4.2-8.8
			c0.5-1.4,0.9-2.8,1.7-4c0.7-1,1.8-1.5,2.7-2.4c-0.5,1.3-1.3,2.5-1.6,3.8c-0.9,3.3-0.3,6.5,1.6,9.4C11.6,38.9,11.4,39.7,10.9,40.2z
			"/>
		
			<linearGradient id="SVGID_00000075878570337521824270000017053051936716553640_" gradientUnits="userSpaceOnUse" x1="34.9593" y1="10.4368" x2="41.3294" y2="10.4368" gradientTransform="matrix(1 0 0 -1 0 44)">
			<stop  offset="0.2917" style="stop-color:#C3D1D2"/>
			<stop  offset="1" style="stop-color:#959E9E"/>
		</linearGradient>
		<path style="fill:url(#SVGID_00000075878570337521824270000017053051936716553640_);" d="M35.1,37.4c0-0.6-0.1-1.1-0.1-1.8
			c0-0.3,0.1-0.6,0.4-0.6c2.9-1,4.6-3,6-5.4c-0.7,1.4-1,2.8-2,3.9c-0.9,1.3-2.2,2.3-3.4,3.4C35.7,37.2,35.3,37.3,35.1,37.4z"/>
		<path class="st2" d="M16.5,42.7c0.1,0,0.1,0,0.3,0.1c0,0,0,0.1,0,0C16.7,42.8,16.7,42.7,16.5,42.7L16.5,42.7z"/>
		<path class="st11" d="M6.6,23.7c-0.3,0-0.4,0.1-0.7,0.1c0.1-0.1,0.4-0.3,0.5-0.4l0,0C6.6,23.5,6.6,23.7,6.6,23.7z"/>
		<path class="st3" d="M11.2,24.9L11,25l0,0C11.2,25,11.2,25,11.2,24.9L11.2,24.9z"/>
		<path class="st12" d="M37.3,21.9c-0.1-0.1-0.4-0.3-0.5-0.5c0,0,0-0.1,0.1-0.1c0.1,0,0.3,0.1,0.4,0.1
			C37.3,21.5,37.3,21.7,37.3,21.9C37.4,21.9,37.3,21.9,37.3,21.9z"/>
		<path class="st12" d="M38,22.8c0.1,0.3,0.1,0.4,0.3,0.6h-0.1C38.1,23.2,38,23,38,22.8C37.8,22.8,38,22.8,38,22.8z"/>
		<path class="st0" d="M16.9,16.9h-4.7c0.8-0.1,1.6-0.3,2.4-0.3C15.3,16.7,16.1,16.7,16.9,16.9C16.9,16.8,16.9,16.8,16.9,16.9z"/>
	</g>
	<path class="st12" d="M30.9,29.4c-0.3,0-0.5,0.1-0.8,0.1c-0.8-0.5-0.3-1,0-1.5c0.7-0.4,1.2-0.9,1.8-1.3c0.1-0.1,0.1-0.3,0.3-0.4
		l0,0c0.4-0.6,0.9-1.1,1.3-1.8c0.1-0.3,0.3-0.5,0.4-1C34.4,26.2,33.4,27.9,30.9,29.4z"/>
	
		<linearGradient id="SVGID_00000139262998424060410860000005107068823376932516_" gradientUnits="userSpaceOnUse" x1="34.3981" y1="12.0166" x2="34.3981" y2="26.2631" gradientTransform="matrix(1 0 0 -1 0 44)">
		<stop  offset="1.995193e-02" style="stop-color:#437283"/>
		<stop  offset="1" style="stop-color:#64B4B7"/>
	</linearGradient>
	<path style="fill:url(#SVGID_00000139262998424060410860000005107068823376932516_);" d="M40.7,26.4c-0.8,2.9-2.9,5.3-6,5.5
		c-0.9,0-1.7-0.1-2.6-0.1c-0.7-0.3-1.3-0.6-2-0.9c-0.8-0.8-1.4-1.6-2.2-2.4c0.5-0.1,1-0.3,1.6-0.4l0,0c0.1,0,0.4-0.1,0.5-0.1
		c-0.3,0.5-0.7,1,0,1.5c-0.5,0.6,0.4,0.4,0.4,0.8c0.4,0,0.8,0,1,0c0.3,0,0.7-0.1,0.9-0.1h0.1h0.1h0.3c0.7-0.1,1.2-0.4,1.8-0.6h0.1
		l0,0l0,0l0.1-0.1h0.1h0.1c0.1-0.1,0.1-0.1,0.3-0.3v-0.1c0.3-0.3,0.5-0.5,0.8-0.8c0.3-0.3,0.5-0.5,0.7-0.8c1.3-1.9,1.2-4.3-0.1-5.6
		l-0.1-0.1c-0.1-0.1-0.3-0.3-0.4-0.4c-0.1-0.1-0.3-0.3-0.4-0.4c-0.1,0-0.1-0.1-0.3-0.1h-0.1c0-0.1-0.1-0.1-0.1-0.3
		c-0.3,0-0.5,0-0.8,0c-1.4,0-1.4,0-1.3,0.9c-0.1,0.1-0.3,0.3-0.3,0.3c0.1,1.3-0.1,1.6-1.3,1.9c-1.4,0-2.4-1.4-1.7-2.9
		c0.3-0.8,0.9-1.4,1.4-2c0.9-0.9,2.1-1.3,3.3-1.1c2.1,0,3.7,1,5,2.8C40.7,22.2,41.2,24.3,40.7,26.4z"/>
	
		<linearGradient id="SVGID_00000088099952312313359430000009558722507371814312_" gradientUnits="userSpaceOnUse" x1="3.8284" y1="33.9769" x2="33.3822" y2="33.9769" gradientTransform="matrix(1 0 0 -1 0 44)">
		<stop  offset="2.314431e-02" style="stop-color:#324F7E"/>
		<stop  offset="1" style="stop-color:#1A2341"/>
	</linearGradient>
	<path style="fill:url(#SVGID_00000088099952312313359430000009558722507371814312_);" d="M33.4,16.5c-0.4,0-0.7,0-0.9,0.1
		c-1.2-0.3-2.4,0-3.4,0.4c-1.2,0.5-2.5,1-3.7,1.5c-0.1,0-0.3-0.1-0.4-0.1c0-0.1,0-0.3-0.1-0.4c-1,0.5-2.1,1.1-3,1.6l0,0
		c0-0.6-0.4-0.6-0.9-0.8c0.7-0.5,1.2-1,1.8-1.5l-0.1-0.1c-0.4,0.1-0.7,0.3-1,0.3c-0.5,0.1-1.2,0.1-1.7,0.3c-0.3-0.3-0.4-0.4-0.7-0.6
		c1.2-0.1,2.5-0.3,3.7-0.5v-0.1c-1-0.1-2-0.1-3-0.3h-2.4h-0.1c-1-0.1-2.1-0.3-3.1-0.4c-0.8-0.3-1.6-0.4-2.4-0.6
		c-0.5-0.3-1-0.5-1.4-0.8c0,0,0-0.1-0.1-0.1c0,0,0,0-0.1,0c-0.1,0-0.1-0.1-0.3-0.1c-0.4-0.3-0.9-0.6-1.3-0.9
		c-0.5-0.6-1.2-1.3-1.7-1.9C5.1,9.6,4.2,7.4,3.7,5c0,0,0.1-0.1,0.1-0.3C4.5,5.9,5,7.1,5.7,8.3c0.4,0.8,1,1.4,1.7,2l0,0v0.1
		c0.1,0.1,0.3,0.1,0.4,0.3c0.7,0.5,1.3,1,2,1.5c0.4,0.3,0.8,0.5,1,0.9c1.7,0.6,3.3,1.3,5.1,1.3c-1.2-0.6-2.4-1.4-3.5-2
		c-0.7-0.4-1.3-0.9-1.8-1.4c-0.3-0.4-0.7-0.9-0.9-1.3l0,0C9.3,9.5,9.1,9.3,8.7,9.1C8.3,8.4,7.8,7.8,7.4,7C7.1,6.8,6.8,6.3,6.5,5.8
		C5.7,4,4.9,2.3,4,0.5c0.1,0,0.3-0.1,0.4-0.1C5,0.8,5.3,1.4,5.7,2c0-0.1,0.1,0,0.1,0l0,0c0.1,0.1,0.3,0.4,0.4,0.5l0,0
		c0.1,0.4,0.3,0.6,0.4,1s0.3,0.6,0.4,1c1,1,2.1,2,3.1,3c1.2,0.8,2.2,1.5,3.4,2.3c1,0.6,2.2,1.1,3.3,1.8c0.1,0.1,0.4,0.3,0.5,0.3
		c1,0.3,2.2,0.6,3.3,0.9c0.3,0,0.5,0,0.9,0c0.7,0.1,1.2,0.3,1.8,0.4c1.4,0,3-0.1,4.3,0.6c0.8,0.6,1.6,1.1,2.6,1l0,0
		c0.4,0.1,0.7,0.1,1,0.3C32.2,15.2,33,15.5,33.4,16.5z"/>
	
		<linearGradient id="SVGID_00000124884297149268167080000004960799894524724364_" gradientUnits="userSpaceOnUse" x1="26.8087" y1="17.3861" x2="33.445" y2="17.3861" gradientTransform="matrix(1 0 0 -1 0 44)">
		<stop  offset="2.314431e-02" style="stop-color:#324F7E"/>
		<stop  offset="1" style="stop-color:#1A2341"/>
	</linearGradient>
	<path style="fill:url(#SVGID_00000124884297149268167080000004960799894524724364_);" d="M33.4,24.7c-0.4,0.6-0.9,1.1-1.3,1.8l0,0
		c-0.1,0.1-0.1,0.3-0.3,0.4c-0.7,0.4-1.2,0.9-1.8,1.3c-0.1,0-0.4,0.1-0.5,0.1c-0.5,0.1-1,0.3-1.7,0.4c-0.4-0.8-0.7-1.4-1-2.3
		c1,0.1,1.8,0.3,2.7,0.4c0.8-0.3,1.6-0.5,2.4-0.8C32.3,25.5,32.9,25,33.4,24.7z"/>
	
		<linearGradient id="SVGID_00000153706641375150160210000005272143676500502692_" gradientUnits="userSpaceOnUse" x1="6.1938" y1="35.4512" x2="30.3174" y2="35.4512" gradientTransform="matrix(1 0 0 -1 0 44)">
		<stop  offset="1.995193e-02" style="stop-color:#437283"/>
		<stop  offset="1" style="stop-color:#64B4B7"/>
	</linearGradient>
	<path style="fill:url(#SVGID_00000153706641375150160210000005272143676500502692_);" d="M30.4,14.5c-1,0.3-1.8-0.4-2.6-1
		c-1.4-0.6-2.9-0.6-4.3-0.6c-0.7-0.1-1.2-0.3-1.8-0.4c-0.3,0-0.5,0-0.9,0c-1-0.3-2.2-0.6-3.3-0.9c-0.1-0.1-0.4-0.3-0.5-0.3
		c-1-0.6-2.2-1.1-3.3-1.8c-1.2-0.8-2.2-1.5-3.4-2.3c-1.2-1-2.1-1.9-3.1-2.9C7,4.1,6.8,3.9,6.7,3.5c-0.3-0.4-0.4-0.6-0.5-1
		c2.5,2.9,5.4,5,8.9,6.6c2.6,1,5.2,1.6,8,1.9c1.8-0.1,3.7,0.1,5.2,1.1C29.2,12.8,30.1,13.4,30.4,14.5z"/>
	
		<linearGradient id="SVGID_00000090292136146576410130000014945713250549734068_" gradientUnits="userSpaceOnUse" x1="29.8662" y1="18.6041" x2="38.284" y2="18.6041" gradientTransform="matrix(1 0 0 -1 0 44)">
		<stop  offset="2.314431e-02" style="stop-color:#324F7E"/>
		<stop  offset="1" style="stop-color:#1A2341"/>
	</linearGradient>
	<path style="fill:url(#SVGID_00000090292136146576410130000014945713250549734068_);" d="M37.3,27.6c-0.3,0.3-0.5,0.5-0.8,0.8
		c-0.3,0.3-0.5,0.5-0.8,0.8v0.1c-0.1,0.1-0.1,0.1-0.3,0.3h-0.1h-0.1c-0.1,0-0.1,0.1-0.3,0.1l0,0h-0.1c-0.7,0.3-1.3,0.4-2,0.6h-0.3
		h-0.1h-0.1c-0.3,0-0.7,0.1-0.9,0.1c-0.4,0-0.8,0-1.2,0c0-0.4-1-0.1-0.4-0.8c0.3-0.1,0.5-0.1,0.8-0.1c0.5-0.1,1.2-0.3,1.7-0.5
		c0.7-0.6,1.3-1.4,2-2c0.5-1.4,0.7-2.6-0.1-4c-0.4-0.5-0.8-1-1-1.5c-0.1-1-0.1-1,1.4-0.9c0.3,0,0.5,0,0.8,0c0,0.1,0.1,0.1,0.1,0.3
		h0.1c0.1,0,0.1,0.1,0.3,0.1c0.1,0.1,0.3,0.3,0.4,0.4c0.1,0.1,0.3,0.3,0.4,0.4l0.1,0.1C38.6,23.3,38.7,25.5,37.3,27.6z"/>
	
		<linearGradient id="SVGID_00000132808311169404673210000007864336088847945088_" gradientUnits="userSpaceOnUse" x1="3.8169" y1="34.6656" x2="15.9952" y2="34.6656" gradientTransform="matrix(1 0 0 -1 0 44)">
		<stop  offset="1.995193e-02" style="stop-color:#437283"/>
		<stop  offset="1" style="stop-color:#64B4B7"/>
	</linearGradient>
	<path style="fill:url(#SVGID_00000132808311169404673210000007864336088847945088_);" d="M16,14.4c-1.8-0.1-3.5-0.6-5.1-1.3
		c-0.4-0.3-0.8-0.5-1-0.9c-0.7-0.5-1.3-1-2-1.5c-0.1-0.1-0.3-0.3-0.4-0.4l0,0C7,9.8,6.3,9.1,5.8,8.4C5.1,7.3,4.6,6,4,4.8
		c0-0.1-0.1-0.4-0.1-0.5c1.3,1.5,2.6,3,3.8,4.4c0.4,0.3,0.8,0.5,1,0.6c0.3,0.1,0.5,0.4,0.9,0.5c0.3,0.4,0.7,0.9,0.9,1.3
		c0.7,0.5,1.2,0.9,1.8,1.4C13.6,13.2,14.8,13.8,16,14.4z"/>
</g>
</svg>
