<?xml version="1.0" encoding="utf-8"?>
<!-- Generator: Adobe Illustrator 21.0.0, SVG Export Plug-In . SVG Version: 6.00 Build 0)  -->
<svg version="1.1" id="Layer_1" xmlns="http://www.w3.org/2000/svg" xmlns:xlink="http://www.w3.org/1999/xlink" x="0px" y="0px"
	 width="43px" height="43px" viewBox="0 0 43 43" style="enable-background:new 0 0 43 43;" xml:space="preserve">
<style type="text/css">
	.st0{fill-rule:evenodd;clip-rule:evenodd;fill:#97999B;}
	.st1{fill-rule:evenodd;clip-rule:evenodd;fill:#C8B273;}
	.st2{fill-rule:evenodd;clip-rule:evenodd;fill:#B1B3B3;}
	.st3{fill-rule:evenodd;clip-rule:evenodd;fill:#C8C9C7;}
	.st4{fill-rule:evenodd;clip-rule:evenodd;fill:#53565A;}
	.st5{fill-rule:evenodd;clip-rule:evenodd;fill:#75787B;}
</style>
<g>
	<path class="st0" d="M29.7,26.3c7-3.2,7.2-12.5,4-18.9L31.6,10C34.4,14.1,35.4,21.8,29.7,26.3"/>
	<path class="st1" d="M21,27.8c10.9,1.1,15.1-9.3,9.9-17.2l-2.1,2.6c5.3,5.6,2.6,13.9-5.7,13.3L21,27.8z"/>
	<path class="st2" d="M23.6,26.1c8.3-0.3,9-8.1,4.8-12.5l-0.6,0.7C28.5,18.7,27.8,22.2,23.6,26.1"/>
	<path class="st3" d="M27.3,14.9c0.5,4.3-0.5,7.5-4.4,11.1l-1.2-0.2c1.9-1.8,4.5-5.5,2.8-7.6L27.3,14.9z"/>
	<path class="st0" d="M9.2,39c0.6-6.1,8.5-9,12.7-10.4c-0.9,0-1.3-0.1-1.8-0.2c-4.7,2.1-11.4,3.9-12.7,10.9C8,39.1,8.6,39,9.2,39"/>
	<path class="st2" d="M3.5,39.6C6,31.7,14.1,30.5,18.8,28l0.6,0.2c-6,2.5-11,4.1-12.8,11.1C5.5,39.4,4.5,39.5,3.5,39.6"/>
	<path class="st1" d="M0,39.7C1.3,36.1,8,25.4,20.7,26l-1.5,1.1c-9.2-0.8-14,5-16.4,12.5C1.7,39.7,0.8,39.7,0,39.7"/>
	<polygon class="st1" points="19.7,27.4 21.4,26.1 22.5,26.3 20.4,27.6 	"/>
	<path class="st4" d="M41.1,27.1l-0.5-0.1c-1.6-0.3-3.6-0.5-5.9-0.7c-8.5,3.3-20.9,5.6-20,11.9c6.1-0.9,21.1-5.3,24.8-7.2l0-0.8
		l1.5-1.1l0.1-1.2L41.1,27.1z"/>
	<path class="st4" d="M41.6,8.8L43,3.3l-4.7,0c-0.2,0-0.3,0-0.4,0c-0.3,0-0.7,0.2-1,0.5l-0.6,0.6C39,4.9,41.5,6.8,41.6,8.8"/>
	<path class="st5" d="M37.8,24l3.6-14.4c-0.1-2.4-2.3-4.3-5.4-4.9L34.1,7c3.5,6.1,3.2,17-4.4,19.7c-7.8,2.8-18.6,4.6-19.7,12.2
		c0.6-0.1,1.1-0.2,1.7-0.3c0.6-0.1,1.3-0.2,1.9-0.3C13.7,30.1,27.9,29.3,37.8,24"/>
	<path class="st4" d="M37.6,24.9c-0.9,0.5-1.9,0.9-2.9,1.4l2.5,0.2L37.6,24.9z"/>
</g>
</svg>
