<?xml version="1.0" encoding="UTF-8"?>
<!DOCTYPE svg PUBLIC "-//W3C//DTD SVG 1.1//EN" "http://www.w3.org/Graphics/SVG/1.1/DTD/svg11.dtd">
<!-- Creator: CorelDRAW X7 -->
<svg xmlns="http://www.w3.org/2000/svg" xml:space="preserve" width="1.11111in" height="1.11111in" version="1.1" style="shape-rendering:geometricPrecision; text-rendering:geometricPrecision; image-rendering:optimizeQuality; fill-rule:evenodd; clip-rule:evenodd"
viewBox="0 0 1111 1111"
 xmlns:xlink="http://www.w3.org/1999/xlink">
 <defs>
  <style type="text/css">
   <![CDATA[
    .fil0 {fill:#05164C}
   ]]>
  </style>
 </defs>
 <g id="Layer_x0020_1">
  <metadata id="CorelCorpID_0Corel-Layer"/>
  <g id="_513693806464">
   <path class="fil0" d="M735 1080c19,-41 24,-117 14,-174 -15,-99 -66,-140 -55,-153 3,-3 63,24 187,-40 81,66 22,235 -20,297 -33,33 -64,45 -126,70z"/>
   <path class="fil0" d="M737 872c10,41 14,104 4,152 -11,55 -15,76 -84,76 4,-44 68,-124 -3,-266 -38,-76 -92,-129 -154,-179l-13 -10c-15,-16 -51,-33 -66,-49 -25,-26 -1,-72 29,-59 98,41 260,226 287,335z"/>
   <path class="fil0" d="M607 653c-2,-3 -5,-5 -8,-8 -6,-6 -7,-8 -15,-12 -8,-11 16,-90 24,-111 53,-127 156,-212 294,-179l-1 53c-52,-8 -49,-20 -111,2 -59,23 -14,39 -97,39 8,32 25,22 5,53 -45,71 -51,111 -60,183 -16,-7 -19,-7 -31,-20z"/>
   <path class="fil0" d="M776 510c-10,137 63,132 70,153 -51,4 -141,46 -199,17 9,-66 26,-134 66,-199l63 29z"/>
   <path class="fil0" d="M879 464c-1,4 -8,1 -8,10 4,6 10,13 7,18 -8,15 -14,18 -6,30 25,36 55,5 65,2 3,-1 1,54 -15,60 -24,11 -46,2 -79,8 -11,4 -19,9 -27,17 -22,-24 -20,-63 -22,-100 62,17 64,-49 39,-59 -26,-10 -58,-11 -88,-10 18,-22 62,-45 109,-43 69,2 44,47 102,49l0 21 -14 -11c-14,-9 -58,-13 -63,8z"/>
   <path class="fil0" d="M873 703c-75,26 -55,38 -180,46 -7,0 -43,-49 -46,-58 52,9 28,7 76,6 53,0 96,-26 130,-27l20 33z"/>
   <path class="fil0" d="M269 518c-26,-10 -119,-155 -119,-194 0,-27 33,-47 51,-20 6,11 17,63 22,78 4,49 43,91 54,122 2,6 -4,8 -8,14z"/>
   <path class="fil0" d="M263 531c4,32 -18,6 -41,-15 -27,-23 -123,-114 -123,-140 0,-37 37,-49 51,-21 15,33 18,53 41,84l72 92z"/>
   <path class="fil0" d="M299 479c0,8 -10,12 -15,15 -25,-46 -70,-133 -70,-200 0,-12 15,-27 27,-27 40,0 24,85 29,105l29 107z"/>
   <path class="fil0" d="M265 575c-35,-3 -188,-93 -194,-132 0,-16 11,-31 31,-31 8,0 56,65 82,85 16,13 42,39 68,56 15,9 12,4 13,22z"/>
   <path class="fil0" d="M987 649l0 0c7,4 9,10 6,23 -10,37 -92,40 -97,4 -2,-20 19,-27 9,-50 -2,-1 -3,-2 -5,-3 -10,-3 -24,-1 -22,12 6,-2 14,-3 20,-5 6,13 -5,24 -10,35 -26,-29 -11,-23 -57,-37 -5,-3 -8,-9 -8,-15 30,-22 47,-15 79,-16 19,0 14,-3 27,-6 2,16 7,34 13,46 0,0 -31,24 -8,41 28,22 40,-31 10,-23 -3,0 -5,7 1,7 2,1 5,0 7,1 2,2 2,3 2,6 0,4 -3,6 -6,6 -6,1 -14,-3 -16,-8 -8,-14 1,-21 11,-23 10,0 16,8 23,10 2,0 9,2 12,2 14,-1 6,8 9,-7z"/>
   <path class="fil0" d="M320 367c0,72 10,73 15,98l-27 8c-7,-31 -67,-206 0,-206 48,0 12,69 12,100z"/>
   <path class="fil0" d="M278 605c-22,-5 -201,-32 -201,-74 0,-16 1,-31 16,-35 14,-3 34,21 45,28 15,10 32,21 48,28 18,9 33,16 52,24 18,8 38,6 40,29z"/>
   <path class="fil0" d="M390 321c0,40 -28,39 -28,97 0,24 6,36 12,53 -24,-13 -26,6 -35,-23 -14,-46 -18,-151 20,-151 24,0 31,18 31,24z"/>
   <path class="fil0" d="M302 625l0 7c-63,-1 -68,1 -138,-5 -49,-8 -59,-8 -59,-45 0,-22 37,5 99,19l80 11c15,4 4,9 18,13z"/>
   <path class="fil0" d="M826 456c5,0 11,13 11,18 0,16 -12,28 -30,28 -9,-4 -11,-9 -17,-9 -23,0 0,16 -50,-8 -17,-8 -27,-21 -35,-39 39,0 84,6 121,10z"/>
   <path class="fil0" d="M405 586c-31,0 -56,3 -79,-3 -84,-24 -44,-65 -33,-65 25,0 31,18 61,33 20,10 49,10 51,35z"/>
   <path class="fil0" d="M329 649l0 6c-26,0 -135,19 -143,19 -21,0 -38,-35 -17,-35 70,2 54,6 124,1 38,-4 13,3 36,9z"/>
   <path class="fil0" d="M362 683l-80 9c-35,5 -71,17 -68,-7 0,-14 26,-11 55,-14 53,-7 63,-22 88,5 5,6 2,-2 5,7z"/>
   <path class="fil0" d="M402 543c5,11 2,26 -34,6 -16,-8 -79,-34 -54,-63 20,-23 33,3 37,7 4,5 6,6 10,12 15,19 37,26 41,38z"/>
   <path class="fil0" d="M423 612l-84 10c-35,5 -46,-5 -46,-43 23,2 39,14 66,15 18,1 57,-7 64,18z"/>
   <path class="fil0" d="M590 752l-63 10c-18,4 -46,8 -64,8 -18,-26 0,-25 22,-29 67,-11 86,-24 105,11z"/>
   <path class="fil0" d="M389 709l-125 21c-16,1 -14,-7 -14,-24l119 -18c4,7 29,20 20,21z"/>
   <path class="fil0" d="M292 756c-9,-3 -13,-12 -5,-21 8,-8 88,-14 108,-16 14,-1 25,17 26,21 1,2 -30,2 -62,6 -29,4 -58,13 -67,10z"/>
   <path class="fil0" d="M475 800c-26,0 -76,11 -109,17 -14,2 -25,4 -25,-17 0,-12 33,-13 54,-16 16,-2 46,-7 64,-8 6,9 13,13 16,24z"/>
   <path class="fil0" d="M390 852c9,-1 20,-4 28,-5l87 -13c17,31 26,23 -18,30l-69 11c-25,4 -28,2 -28,-23z"/>
   <path class="fil0" d="M450 770c-31,1 -100,16 -133,16 -3,-10 -3,-8 -3,-22 31,-7 90,-12 118,-18 7,10 15,12 18,24z"/>
   <path class="fil0" d="M532 694l-90 13c-30,5 -49,16 -40,-22 23,0 105,-16 111,-13 3,1 16,11 19,22z"/>
   <path class="fil0" d="M611 782l-71 12c-33,4 -59,14 -59,-9 0,-14 18,-12 51,-18l64 -9c6,8 12,13 15,24z"/>
   <path class="fil0" d="M381 846c-20,0 -16,-18 -9,-23 7,-5 100,-16 112,-16 17,25 30,18 -25,29l-78 10z"/>
   <path class="fil0" d="M563 721l-102 18c-13,2 -23,5 -29,-2 -8,-9 -5,-18 6,-22 6,-2 24,-4 33,-6 19,-2 57,-5 70,-12l22 24z"/>
   <path class="fil0" d="M535 891c-15,0 -23,3 -37,5 -15,2 -25,3 -38,5 -11,2 -48,15 -51,-4 -2,-16 -1,-4 2,-9 3,-7 0,-4 8,-7l107 -17c3,13 8,13 9,27z"/>
   <path class="fil0" d="M629 810c-1,1 -30,1 -57,8 -35,9 -75,16 -67,-11 7,-4 101,-19 114,-19 6,11 5,8 10,22z"/>
   <path class="fil0" d="M550 922c-45,0 -124,29 -124,3 0,-15 5,-14 21,-16 12,-1 21,-4 31,-5l63 -10c4,7 9,19 9,28z"/>
   <path class="fil0" d="M499 667c-21,0 -45,5 -62,8 -21,4 -40,6 -59,10 -8,-14 -7,-6 -9,-24 12,-7 42,-9 58,-11 14,-2 21,-2 33,-4 15,-3 39,4 39,21z"/>
   <path class="fil0" d="M459 1016c0,-12 34,-15 50,-18 53,-7 65,-15 70,5 4,18 -13,15 -49,20 -34,5 -71,16 -71,-7z"/>
   <path class="fil0" d="M572 979c0,8 -49,11 -63,14 -32,5 -56,17 -56,-11 0,-13 32,-13 51,-16 17,-2 43,-6 62,-8 2,5 6,14 6,21z"/>
   <path class="fil0" d="M563 952c-44,1 -122,30 -122,6 0,-24 6,-14 53,-23 19,-4 42,-7 63,-7 2,10 5,13 6,24z"/>
   <path class="fil0" d="M584 1079c-14,4 -35,7 -49,9 -22,3 -69,17 -69,-6 0,-17 36,-16 54,-18 18,-2 42,-9 64,-9l0 24z"/>
   <path class="fil0" d="M557 910c0,-17 4,-18 48,-22 11,-1 51,-5 58,-9 14,31 15,27 -37,33 -16,3 -22,5 -39,7 -11,2 -30,7 -30,-9z"/>
   <path class="fil0" d="M647 843l-103 15c-7,1 -18,2 -20,-10 -2,-15 9,-15 27,-17l87 -12c3,11 7,12 9,24z"/>
   <path class="fil0" d="M584 1049c-28,1 -88,14 -104,15 -16,0 -14,-9 -14,-24l115 -18c0,14 3,12 3,27z"/>
   <path class="fil0" d="M550 891c-11,-16 -18,-25 13,-30l91 -12c9,39 15,19 -70,37 -9,1 -24,5 -34,5z"/>
   <path class="fil0" d="M455 631c4,4 3,2 5,9 -29,0 -84,15 -119,15 -7,-30 -15,-22 47,-33 22,-3 40,-10 54,-1l13 10z"/>
   <path class="fil0" d="M947 633c-5,-10 -10,-34 -10,-49l41 -2c1,18 12,51 12,62 0,1 -1,2 -2,2 -21,4 -32,-7 -41,-13z"/>
   <path class="fil0" d="M678 937l-95 15c-16,0 -14,-9 -14,-24l103 -15c3,6 4,16 6,24z"/>
   <path class="fil0" d="M678 970c-18,4 -41,7 -61,10 -7,0 -22,4 -29,2 -9,-3 -15,-15 -6,-22l88 -15c9,0 8,-4 8,25z"/>
   <path class="fil0" d="M678 1004l-55 9c-27,3 -36,11 -36,-22 14,-1 32,-6 45,-7 8,-1 35,-2 46,-8l0 28z"/>
   <path class="fil0" d="M672 1037l-73 12c-14,-21 -13,-28 18,-31l58 -8c0,15 -2,15 -3,27z"/>
   <path class="fil0" d="M596 1079c-9,-39 12,-22 73,-36 -3,35 -16,31 -23,32 -18,3 -30,4 -50,4z"/>
   <path class="fil0" d="M432 525c-7,10 -10,9 -21,15 -18,-14 -62,-49 -61,-64 2,-15 54,34 82,49z"/>
   <path class="fil0" d="M892 530c-27,-6 -11,-62 31,-28 5,4 15,7 13,11 -8,16 -29,20 -44,17z"/>
   <path class="fil0" d="M581 1104l0 9c-25,0 -54,1 -77,-2 -11,-2 -24,-4 -32,-4l0 -6c16,0 21,-1 33,-3l64 -10c23,-4 12,1 12,16z"/>
   <path class="fil0" d="M969 575l-27 -1c0,-22 9,-54 0,-74 23,7 27,38 31,60 3,11 8,15 -4,15z"/>
   <path class="fil0" d="M644 1107c-48,0 -54,18 -54,-18l67 -10c-5,9 -10,17 -13,28z"/>
   <path class="fil0" d="M929 455c0,18 22,7 31,30 -9,-2 -8,-4 -17,-9 -12,-8 -41,-19 -50,0 20,-5 29,-4 46,4 4,2 8,5 13,10 6,5 9,8 11,16 -11,-7 -14,-15 -36,-21 -28,-8 -26,10 -46,-3 1,-12 4,-16 14,-19 7,-3 8,-2 15,-3 20,-5 8,-1 10,-5 2,-1 4,-2 4,-4 1,-2 4,-2 5,-2l0 6z"/>
   <path class="fil0" d="M250 91c6,-11 0,-3 9,-6l-9 6z"/>
   <path class="fil0" d="M156 168c3,-7 1,-5 7,-7l-7 7z"/>
   <path class="fil0" d="M32 554c0,250 176,459 411,511 -2,7 -4,15 -4,24 0,3 1,5 1,8 -251,-53 -440,-276 -440,-543 0,-150 60,-287 156,-387 0,0 0,1 0,1l7 -7c0,0 0,0 0,0 27,-27 56,-51 88,-72 0,0 0,1 -1,2l9 -6c-1,0 -2,0 -3,0 87,-55 189,-87 300,-87 306,0 555,249 555,556 0,177 -83,336 -213,437 1,-6 2,-12 2,-19 0,-7 -1,-15 -3,-22 111,-96 182,-238 182,-396 0,-289 -234,-524 -523,-524 -289,0 -524,235 -524,524z"/>
   <path class="fil0" d="M1056 393c-22,12 -52,13 -74,26 -2,1 -4,3 -6,5 -25,25 -57,8 -65,-22 21,-31 44,-30 73,-28 18,1 39,3 63,-2 0,-1 0,-1 0,-2 6,7 10,17 10,27 0,-1 0,-3 -1,-4z"/>
  </g>
 </g>
</svg>
