<?xml version="1.0" encoding="UTF-8"?>
<!DOCTYPE svg PUBLIC "-//W3C//DTD SVG 1.1//EN" "http://www.w3.org/Graphics/SVG/1.1/DTD/svg11.dtd">
<!-- Creator: CorelDRAW X7 -->
<svg xmlns="http://www.w3.org/2000/svg" xml:space="preserve" width="1.11111in" height="1.11111in" version="1.1" style="shape-rendering:geometricPrecision; text-rendering:geometricPrecision; image-rendering:optimizeQuality; fill-rule:evenodd; clip-rule:evenodd"
viewBox="0 0 1111 1111"
 xmlns:xlink="http://www.w3.org/1999/xlink">
 <defs>
  <style type="text/css">
   <![CDATA[
    .fil0 {fill:#243662}
   ]]>
  </style>
 </defs>
 <g id="Layer_x0020_1">
  <metadata id="CorelCorpID_0Corel-Layer"/>
  <path class="fil0" d="M1111 84c0,-4 -2,-6 -6,-8 -10,-4 -21,-5 -33,-3 -17,3 -32,8 -43,16 -43,27 -76,61 -100,103 -2,4 -3,6 -3,7 -1,13 1,23 8,28 1,0 1,0 2,0 6,-2 12,-7 19,-15 0,-1 0,-1 0,-2 1,-8 4,-8 9,2 2,1 3,2 6,2l4 0c3,-4 4,-7 4,-9 2,0 4,0 6,-1 31,-21 60,-45 86,-71 5,-4 9,-7 14,-10 14,-9 23,-21 27,-39zm-14 12c-1,-3 -1,-4 -3,-5 -6,-3 -12,-4 -19,-3 -10,1 -18,3 -25,7 -26,13 -46,31 -61,54 -1,2 -2,3 -2,3 -1,8 0,13 3,17 1,0 1,0 1,0 4,-1 7,-4 12,-8 0,0 0,-1 0,-1 1,-5 3,-4 5,1 1,1 2,1 3,2l2 0c2,-2 3,-4 3,-5 1,0 2,0 3,0 19,-11 36,-23 52,-36 3,-3 6,-4 8,-6 9,-4 14,-11 18,-20zm-64 80c-18,14 -37,30 -53,46 0,0 0,1 0,1 10,1 16,4 20,7 3,3 5,7 6,12 1,4 2,9 3,13 12,-8 23,-12 33,-12 20,1 36,16 36,36 0,12 -6,25 -16,32 -1,0 0,0 0,0 3,4 8,6 17,6 15,-6 22,-20 20,-40 -4,-49 -26,-83 -66,-101zm39 104c0,-1 0,-2 0,-4 0,-7 -3,-13 -9,-18 -6,-7 -13,-9 -22,-9 -8,-1 -14,2 -20,7 0,1 -1,1 -1,2 -4,3 -7,8 -9,14 0,2 0,4 0,7 0,9 3,16 9,22 6,6 13,9 21,9 5,0 9,-1 12,-2 2,-1 4,-2 5,-3 2,-1 4,-2 5,-4 4,-4 6,-8 8,-12 1,-3 1,-6 1,-9zm-145 -99c6,-7 14,-18 26,-34 -10,-4 -20,-2 -31,0 -95,21 -156,71 -184,157 -15,45 -21,94 -16,148 4,53 13,102 27,145 12,2 25,3 38,3 90,-1 155,-30 196,-87 20,20 34,48 41,82 3,11 4,22 4,34 1,53 -9,98 -30,134 -37,66 -90,118 -159,155 -74,41 -158,69 -250,86 27,-26 52,-53 75,-83 23,-29 41,-64 52,-104 4,-12 5,-25 5,-37 1,-56 -13,-99 -39,-129 -28,-32 -60,-56 -97,-71 42,24 73,58 93,102 13,28 17,60 13,97 -6,53 -24,94 -55,124 -56,57 -125,102 -205,136 106,-3 202,-18 288,-45 54,-18 103,-39 148,-65 72,-42 126,-102 162,-179 9,-20 15,-42 18,-66 11,-96 -10,-165 -63,-206 -16,-12 -37,-29 -64,-48 -26,-20 -39,-50 -39,-89 0,-40 5,-65 17,-77 0,0 1,0 1,0 28,49 54,100 79,152 1,0 7,1 18,3 10,2 26,3 47,4 -1,0 -1,-1 -1,-1 -19,-25 -43,-46 -72,-61 1,0 1,0 2,0 17,-2 31,-2 44,1 5,1 7,2 8,2 17,4 28,13 33,29 0,1 1,4 1,11 0,6 3,9 9,8 5,0 7,-4 5,-12 -2,-8 -6,-17 -13,-26 -5,-7 -12,-13 -20,-17 0,-1 5,-2 16,-3 12,-2 26,-5 44,-11 0,0 0,-1 1,-1 0,-6 -2,-12 -6,-19 -1,0 -2,0 -4,0 -2,0 -6,0 -10,-1 -5,-1 -8,-1 -9,-1 -1,0 -3,-1 -6,-2 -4,-1 -7,-2 -9,-5 -5,2 -9,2 -14,3 -11,-1 -19,-4 -26,-11 -7,-7 -11,-16 -11,-26 0,-3 0,-8 -1,-16 -1,-7 -2,-13 -4,-19 -2,-5 -4,-9 -7,-10 -2,-3 -6,-5 -10,-6 -5,-3 -8,-1 -11,3 -3,4 -9,7 -18,7 -8,1 -16,-1 -22,-6 -7,-4 -11,-9 -13,-14 -2,-5 -3,-11 -3,-17 1,-6 4,-13 11,-21zm-30 96c-3,9 -7,40 -8,45 -2,12 0,30 5,55 5,24 26,48 63,71 5,-8 9,-17 14,-27 -24,-50 -48,-97 -74,-144zm58 -41c4,1 6,1 6,-1 -2,-19 -7,-21 -16,-8 2,5 5,8 10,9zm26 294c0,0 -1,0 -1,1 -32,38 -77,62 -133,73 -59,11 -109,5 -147,-19 -4,-2 -8,-5 -12,-8 -65,-48 -100,-126 -107,-234 -2,-2 -11,-8 -27,-16 -15,-9 -49,-24 -102,-46 -52,-21 -105,-37 -157,-46 -52,-10 -90,-15 -113,-16 -24,-1 -51,1 -81,5 -31,5 -57,11 -78,19 0,0 0,1 1,1 9,20 20,38 34,54 32,-13 88,-18 165,-14 77,4 155,24 235,60 -3,5 -7,5 -13,3 -67,-30 -147,-48 -239,-53 -60,-4 -110,4 -150,21 0,1 0,1 0,2 13,22 30,41 51,57 33,-15 73,-22 122,-21 47,2 89,7 126,17 24,6 46,12 67,18 23,7 43,14 60,23l0 7c-35,-12 -72,-23 -110,-34 -39,-11 -81,-17 -128,-20 -59,-3 -107,6 -142,27 0,1 0,1 0,2 16,19 35,34 59,46 19,-5 39,-10 59,-13 22,-4 46,-4 72,-2 43,5 77,11 101,19 25,7 51,16 79,25 27,10 37,17 29,22 -28,-13 -58,-24 -89,-33 -32,-10 -72,-17 -119,-23 -48,-5 -90,1 -129,18 0,1 0,1 1,1 20,19 43,35 70,47 66,-7 128,-6 187,6 96,18 167,47 211,87 45,41 72,71 82,93 9,21 15,48 18,81 2,34 -9,73 -34,118 -25,45 -53,80 -83,106 50,-13 98,-29 142,-47 81,-32 142,-71 182,-115 41,-45 66,-97 76,-155 10,-58 -2,-106 -35,-144zm121 -179l0 -1 -47 10c1,0 3,1 6,5 3,4 7,10 11,18 3,7 6,14 9,19 0,0 1,0 1,0 15,-12 21,-29 20,-51zm-556 -97c-29,-16 -60,-29 -95,-41 -56,-21 -118,-36 -184,-48 -31,-5 -62,-9 -95,-13 -56,-5 -98,-6 -127,-2 -29,5 -44,7 -45,8 0,1 0,2 1,5 -1,0 0,1 0,1 6,24 15,44 28,61 0,0 0,0 0,0 1,0 16,-3 47,-9 31,-7 67,-8 109,-5 41,4 72,7 91,11 20,4 48,10 84,20 36,10 74,23 116,39 41,16 79,36 113,59 0,0 0,1 0,2 5,55 16,104 34,149 19,38 45,66 78,83 -37,-37 -62,-86 -73,-147 -8,-38 -9,-76 -5,-114 -20,-24 -46,-44 -77,-59zm476 26c0,11 9,20 20,20 11,0 19,-9 19,-20 0,-11 -8,-20 -19,-20 -11,0 -20,9 -20,20zm5 0c0,-9 6,-15 15,-15 8,0 14,6 14,15 0,8 -6,14 -14,14 -9,0 -15,-6 -15,-14z"/>
 </g>
</svg>
