<?xml version="1.0" encoding="UTF-8"?>
<!DOCTYPE svg PUBLIC "-//W3C//DTD SVG 1.1//EN" "http://www.w3.org/Graphics/SVG/1.1/DTD/svg11.dtd">
<!-- Creator: CorelDRAW X7 -->
<svg xmlns="http://www.w3.org/2000/svg" xml:space="preserve" width="1.11111in" height="1.11111in" version="1.1" style="shape-rendering:geometricPrecision; text-rendering:geometricPrecision; image-rendering:optimizeQuality; fill-rule:evenodd; clip-rule:evenodd"
viewBox="0 0 1111 1111"
 xmlns:xlink="http://www.w3.org/1999/xlink">
 <defs>
  <style type="text/css">
   <![CDATA[
    .fil1 {fill:#FFDE3D}
    .fil0 {fill:#ED3237}
   ]]>
  </style>
 </defs>
 <g id="Layer_x0020_1">
  <metadata id="CorelCorpID_0Corel-Layer"/>
  <g id="_661864779520">
   <g>
    <path class="fil0" d="M0 666c46,-39 84,-55 122,-65 352,-80 533,259 787,238 -138,129 -330,81 -460,0 -139,-83 -281,-178 -449,-173z"/>
    <path class="fil0" d="M674 752c69,49 189,110 286,46 -95,24 -132,-48 -186,-52 -43,-6 -62,16 -100,6z"/>
    <path class="fil0" d="M1111 702c-62,-25 -183,-59 -258,0 134,-2 115,39 168,32 42,-5 57,-31 90,-32z"/>
    <path class="fil0" d="M776 738c91,-65 162,23 240,8 -86,90 -182,-14 -240,-8z"/>
   </g>
   <path class="fil1" d="M558 192c260,2 470,213 473,472 -15,-5 -119,-31 -206,35 -19,5 -45,15 -62,27 -20,0 -63,0 -99,11 -3,-1 -8,-3 -10,-3 -124,-53 -267,-221 -567,-146 -1,0 -1,0 -1,0 39,-225 236,-397 472,-396z"/>
  </g>
 </g>
</svg>
