<?xml version="1.0" encoding="UTF-8"?>
<!DOCTYPE svg PUBLIC "-//W3C//DTD SVG 1.1//EN" "http://www.w3.org/Graphics/SVG/1.1/DTD/svg11.dtd">
<!-- Creator: CorelDRAW X7 -->
<svg xmlns="http://www.w3.org/2000/svg" xml:space="preserve" width="1.11111in" height="1.11111in" version="1.1" style="shape-rendering:geometricPrecision; text-rendering:geometricPrecision; image-rendering:optimizeQuality; fill-rule:evenodd; clip-rule:evenodd"
viewBox="0 0 1111 1111"
 xmlns:xlink="http://www.w3.org/1999/xlink">
 <defs>
  <style type="text/css">
   <![CDATA[
    .fil0 {fill:#004846;fill-rule:nonzero}
   ]]>
  </style>
 </defs>
 <g id="Layer_x0020_1">
  <metadata id="CorelCorpID_0Corel-Layer"/>
  <g id="_661864775936">
   <path class="fil0" d="M898 239c71,-7 142,-13 213,-20 -22,72 -64,140 -131,177 -26,15 -54,24 -82,30 -88,17 -177,34 -261,66 -50,20 -98,45 -135,83 -68,74 -130,153 -192,231 -31,40 -77,67 -126,73 -49,6 -104,0 -143,-34 -37,-33 -44,-86 -40,-133 9,-103 75,-201 169,-246 8,-32 12,-65 24,-95 15,-26 48,-19 73,-19 21,2 47,-5 61,14 18,24 7,55 3,82 -5,34 -32,62 -63,74 -66,24 -133,50 -185,99 -30,29 -51,69 -50,112 -1,30 9,62 32,82 30,28 75,34 114,27 58,-11 108,-49 142,-96 76,-106 151,-212 226,-317 26,-36 57,-68 92,-94 75,-56 167,-84 259,-96z"/>
   <path class="fil0" d="M660 505c76,-26 156,-37 235,-54 -7,40 -24,79 -54,106 -44,43 -106,59 -165,65 -79,11 -164,27 -224,84 -39,42 -75,87 -114,129 -20,21 -46,34 -74,42 20,-17 42,-32 59,-52 26,-30 46,-64 70,-96 42,-53 89,-104 140,-149 37,-33 80,-58 127,-75z"/>
   <path class="fil0" d="M487 720c46,-20 101,-26 147,-3 22,11 39,31 52,52 -25,-7 -50,-20 -76,-13 -21,7 -32,28 -42,45 -17,31 -38,62 -70,80 -29,17 -71,14 -94,-11 -18,-20 -17,-50 -6,-73 18,-37 53,-61 89,-77z"/>
  </g>
 </g>
</svg>
