<?xml version="1.0" encoding="UTF-8"?>
<!DOCTYPE svg PUBLIC "-//W3C//DTD SVG 1.1//EN" "http://www.w3.org/Graphics/SVG/1.1/DTD/svg11.dtd">
<!-- Creator: CorelDRAW X7 -->
<svg xmlns="http://www.w3.org/2000/svg" xml:space="preserve" width="1.11111in" height="1.11111in" version="1.1" style="shape-rendering:geometricPrecision; text-rendering:geometricPrecision; image-rendering:optimizeQuality; fill-rule:evenodd; clip-rule:evenodd"
viewBox="0 0 1111 1111"
 xmlns:xlink="http://www.w3.org/1999/xlink">
 <defs>
  <style type="text/css">
   <![CDATA[
    .fil2 {fill:#21287B}
    .fil0 {fill:#21287B}
    .fil1 {fill:#A3333A}
   ]]>
  </style>
 </defs>
 <g id="Layer_x0020_1">
  <metadata id="CorelCorpID_0Corel-Layer"/>
  <g id="_661853723616">
   <path class="fil0" d="M508 1061c-258,-24 -460,-241 -460,-505 0,-281 227,-508 508,-508 280,0 507,227 507,508 0,255 -188,466 -434,502l44 41c250,-54 438,-277 438,-543 0,-307 -249,-556 -555,-556 -307,0 -556,249 -556,556 0,306 249,555 556,555 2,0 5,0 8,0 -25,-7 -46,-26 -56,-50z"/>
   <path class="fil1" d="M182 765c28,17 56,29 86,46 162,97 190,155 321,281 23,23 17,15 48,12l-301 -306c-1,0 -9,-8 -9,-8 -73,-67 -110,-120 -224,-170 -135,-60 31,115 79,145z"/>
   <path class="fil2" d="M961 427c24,-40 31,-70 31,-133 6,4 11,11 17,21 -36,-67 -87,-125 -148,-170 3,2 5,4 7,6 51,44 8,100 -33,139l-151 150c-1,1 -2,2 -3,3l-136 132c-41,41 -117,120 -126,175 -13,80 24,108 53,146 16,20 105,112 161,166 11,-2 22,-4 32,-6 -25,-29 -55,-53 -79,-82 -31,-39 -41,-65 -15,-116 37,-74 196,-207 250,-265l48 -50c35,-35 65,-73 92,-116z"/>
  </g>
 </g>
</svg>
