<?xml version="1.0" encoding="utf-8"?>
<!-- Generator: Adobe Illustrator 27.9.0, SVG Export Plug-In . SVG Version: 6.00 Build 0)  -->
<svg version="1.1" xmlns="http://www.w3.org/2000/svg" xmlns:xlink="http://www.w3.org/1999/xlink" x="0px" y="0px" width="43px"
	 height="43px" viewBox="0 0 43 43" style="enable-background:new 0 0 43 43;" xml:space="preserve">
<style type="text/css">
	.st0{fill:#FDDBCA;}
	.st1{fill:#2AB703;}
	.st2{display:none;fill:none;}
	.st3{fill:#027B7D;}
	.st4{fill:#023D65;}
	.st5{fill:#92BA8B;}
	.st6{fill:url(#SVGID_1_);}
	.st7{fill-rule:evenodd;clip-rule:evenodd;fill:#244A79;}
	.st8{fill:#F9B717;}
	.st9{fill:url(#SVGID_00000136381677174369737200000001290389289460756880_);}
	.st10{fill:#C9A847;}
	.st11{fill:#052245;}
	.st12{fill:#29449B;}
	.st13{fill:#C27E35;}
	.st14{fill:#162233;}
	.st15{fill:#303192;}
</style>
<g id="Layer_1">
</g>
<g id="Layer_3">
</g>
<g id="Layer_2">
</g>
<g id="Layer_4">
	<g>
		<g>
			<path class="st15" d="M41.9,20.5c-0.1,0-0.1-0.1-0.2-0.1c-0.1,0-0.3,0-0.5,0c-0.1,0-0.1,0-0.3,0h0c-0.1,0-0.1-0.1-0.2-0.2
				c-0.3-0.4-0.7-0.9-1-1.3c-0.7-0.8-1.4-1.5-2.1-2.2c-1.1-1-2.2-2-3.5-2.8c-0.4-0.3-0.9-0.6-1.3-0.9c-0.1,0-0.1-0.1-0.2-0.1
				c0,0,0,0,0,0c-0.1,0-0.2-0.1-0.4-0.1c-0.9-0.5-1.8-1-2.7-1.5c-0.9-0.4-1.7-0.7-2.6-1.1c-0.3-0.1-0.6-0.2-0.9-0.3
				c-0.2-0.1-0.3-0.1-0.4,0c-0.8,0.6-1.7,1.2-2.5,1.8c-0.4,0.3-0.9,0.7-1.3,1c-0.1,0.1-0.2,0.2-0.4,0.2c0,0,0,0,0,0
				c-0.1,0.1-0.2,0.1-0.2,0.2c-1.1,1-2.2,2-3.4,3c-0.5,0.4-0.9,0.8-1.4,1.3c-1,1-1.9,1.9-2.9,2.9c-0.1,0.1-0.2,0.2-0.3,0.2
				c-0.2,0.3-1.6,1.9-1.9,2.1c-0.7-0.7-1.3-1.4-2-2.1c0,0,0,0,0,0c-0.1,0-0.1-0.1-0.2-0.1c-0.5-0.5-1-1.1-1.6-1.6
				c0.3-0.3,0.6-0.6,0.9-0.9c0.5-0.6,1.1-1.1,1.6-1.7c1-1,2-2,2.9-3c0.1-0.1,0.2-0.2,0.3-0.2c0,0,0,0,0,0c0.1-0.1,0.1-0.1,0.2-0.2
				c1.1-1,2.2-2.1,3.4-3.1c1.3-1.1,2.7-2.2,4.2-3.1c0.6-0.3,1.2-0.7,1.7-1c0.2-0.1,0.3-0.2,0.5-0.2c0.2,0,0.4,0,0.6,0.1
				c0.6,0.3,1.2,0.6,1.8,0.9c0.7,0.3,1.3,0.7,2,1.1c0.9,0.5,1.8,1.1,2.8,1.7c1.3,0.8,2.5,1.8,3.7,2.8c0.3,0.3,0.7,0.6,1,0.8
				c0.1,0.1,0.1,0.1,0.2,0.2c0,0,0,0,0,0c0.1,0,0.2,0.1,0.3,0.2c0.7,0.7,1.5,1.4,2.2,2.2c0.6,0.7,1.2,1.4,1.8,2.1
				c0.7,0.9,1.3,1.9,1.9,2.9C41.9,20.4,41.9,20.4,41.9,20.5z"/>
			<path class="st15" d="M42.9,26.9c-0.2,0.1-0.3,0.2-0.5,0.4c-0.3,0.2-0.6,0.5-1,0.7c-0.1,0.1-0.2,0.1-0.3,0.1
				c0,0.1-0.1,0.1-0.1,0.2c-0.9,0.8-1.7,1.6-2.5,2.4c-0.7,0.8-1.4,1.6-2,2.5c-0.6,0.8-1.2,1.5-1.8,2.3c-0.1,0.1-0.1,0.1-0.2,0.2
				c0,0,0,0,0,0c-0.1,0.1-0.1,0.1-0.2,0.2c-1,1.1-2,2.1-3.2,3.1c-1.6,1.3-3.5,2.1-5.6,2.3c-1.1,0.1-2.3,0-3.4-0.2
				c-1.4-0.3-2.6-0.9-3.8-1.5c-1.4-0.8-2.6-1.7-3.8-2.8c-0.3-0.3-0.7-0.6-1-1c-0.1-0.1-0.2-0.2-0.3-0.4c0,0,0.1,0,0.1,0
				c0.8,0.3,1.6,0.6,2.5,0.9c1,0.3,2.1,0.5,3.1,0.6c0.2,0,0.4,0.1,0.5,0.1c1.2,0.1,2.4-0.1,3.6-0.4c0.7-0.2,1.3-0.5,2-0.8
				c0.1-0.1,0.3-0.1,0.4-0.1c0,0,0,0,0,0c0.1-0.1,0.3-0.2,0.4-0.2c1.3-0.7,2.5-1.5,3.6-2.4c0.3-0.2,0.6-0.5,0.9-0.8
				c1.3-1.1,2.6-2.1,4.1-2.9c0.6-0.3,1.3-0.7,1.9-1c0.1-0.1,0.3-0.1,0.4-0.1c0,0,0,0,0,0c0.4-0.2,0.9-0.4,1.3-0.5
				C39.6,27,41.9,26.7,42.9,26.9z"/>
			<path class="st15" d="M32.6,18.3c-0.3,0.7-0.4,1.5-0.4,2.3c0,0.8,0.1,1.6,0.1,2.4c0,0.6,0.1,1.2,0.1,1.8c0,1.1-0.3,2.1-0.9,3
				c-0.4,0.6-0.8,1.1-1.4,1.5c-0.4,0.2-0.7,0.5-1.1,0.7c-0.1,0.1-0.3,0.1-0.4,0.2c-0.1-0.1,0-0.2,0-0.2c0.1-0.1,0.1-0.1,0.2-0.1
				c0.6-0.4,1.1-0.9,1.6-1.5c0.7-0.9,1-1.9,1.2-2.9c0.1-0.4,0.1-0.9,0.1-1.4c0-0.9-0.1-1.9-0.1-2.8c0-0.5-0.1-1,0-1.4
				c0.1-0.7,0.4-1.2,0.9-1.6C32.6,18.1,32.7,18.2,32.6,18.3z"/>
			<path class="st15" d="M14.9,34.7c-0.1,0-0.1,0-0.2,0c-1-0.3-1.9-0.7-2.8-1.2c-0.7-0.4-1.4-0.8-2-1.3c-1-0.7-1.7-1.6-2.5-2.5
				c-0.3-0.4-0.7-0.9-1-1.4c0-0.1-0.1-0.1-0.1-0.3c0,0-0.1-0.1-0.1-0.1C5.5,27,5,26,4.5,25c-0.6-1.4-1.3-2.9-1.9-4.3
				c0-0.1-0.1-0.1-0.1-0.3c0,0-0.1-0.1-0.1-0.1c-0.4-0.8-0.8-1.6-1.1-2.4c-0.3-0.8-0.7-1.5-1.1-2.2c-0.1-0.2-0.2-0.4-0.3-0.6
				c0.2-0.1,0.3,0,0.4,0c0.3,0.1,0.6,0.4,0.9,0.6c1,0.9,1.8,2,2.5,3.2c0.2,0.4,0.4,0.8,0.6,1.2c0,0.1,0.1,0.2,0.1,0.3c0,0,0,0,0,0
				c0.1,0,0.1,0.1,0.1,0.2c0.4,0.9,0.8,1.8,1.3,2.7C6.4,24.7,7,26,7.7,27.3c0.1,0.2,0.2,0.3,0.3,0.5c0,0.1,0.1,0.1,0.1,0.3
				c0,0,0,0,0,0c0.1,0,0.1,0.1,0.2,0.2c0.2,0.2,0.3,0.5,0.5,0.7c0.7,1,1.4,1.9,2.2,2.8c0.2,0.2,0.5,0.4,0.7,0.6c0.9,0.8,2,1.5,3,2.2
				C14.7,34.6,14.8,34.6,14.9,34.7z"/>
			<path class="st15" d="M22.7,34.4c-0.9,0.2-1.9,0.4-2.8,0.3c-1.4-0.1-2.7-0.5-3.9-1.1c-0.7-0.3-1.3-0.8-1.9-1.3
				c-1-0.7-1.9-1.6-2.7-2.5c-0.4-0.5-0.8-1-1.2-1.6c0,0,0-0.1,0-0.1c0,0,0,0,0,0C10.1,28,10,28,10,27.9c-0.3-0.4-0.6-0.9-0.8-1.3
				c-0.9-1.4-1.7-2.9-2.5-4.4c-0.2-0.5-0.5-1-0.7-1.5c-0.1-0.2-0.2-0.4-0.3-0.6c0-0.1-0.1-0.1,0-0.2c0,0,0.1,0.1,0.1,0.1
				c0.5,0.6,1,1.2,1.4,1.8c0.5,0.7,0.9,1.5,1.4,2.2c0.8,1.3,1.7,2.5,2.5,3.8c0,0.1,0.1,0.1,0.1,0.2c0,0,0,0,0,0
				c0.1,0,0.1,0.1,0.2,0.2c0.4,0.5,0.8,1,1.2,1.4c0.7,0.8,1.6,1.5,2.4,2.1c0.5,0.3,1,0.6,1.5,0.9c1.1,0.6,2.3,1,3.5,1.3
				c0.7,0.2,1.5,0.3,2.2,0.4C22.5,34.4,22.6,34.4,22.7,34.4z"/>
			<path class="st15" d="M28.7,22.5c0,2-0.6,3.8-1.7,5.4c-0.5,0.8-1.2,1.5-2,2c-0.6,0.4-1.3,0.6-2,0.7c-0.1,0-0.2,0-0.3,0
				c-0.1,0-0.2,0-0.2-0.1c0-0.1,0.1-0.1,0.1-0.2c0.4-0.2,0.9-0.4,1.3-0.6c0.7-0.4,1.3-0.9,1.9-1.5c0.8-0.8,1.4-1.8,1.9-2.9
				c0.4-0.9,0.7-1.9,0.8-2.9c0-0.1,0-0.1,0.2-0.2C28.6,22.4,28.7,22.5,28.7,22.5z"/>
			<path class="st15" d="M25.6,32c-0.3,0.2-0.6,0.3-0.9,0.4c-0.5,0.1-1,0.2-1.4,0.2c-1.3,0-2.5-0.1-3.8-0.5
				c-1.7-0.5-3.3-1.3-4.6-2.5c-0.5-0.4-1-0.9-1.5-1.3c-0.1-0.1-0.1-0.1-0.2-0.2c0,0,0,0,0,0c-0.1,0-0.2-0.1-0.2-0.2
				c-0.5-0.6-1-1.2-1.5-1.8c-0.5-0.6-0.9-1.2-1.3-1.8c-0.4-0.6-0.8-1.3-1.1-1.9c0-0.1-0.1-0.2-0.1-0.3c0.1-0.1,0.2,0,0.2,0.1
				c0.3,0.4,0.7,0.8,1,1.2c0.3,0.3,0.6,0.6,0.9,1c0.3,0.3,0.5,0.6,0.8,0.8c0.9,0.9,1.8,1.8,2.8,2.7c0.1,0,0.1,0.1,0.2,0.2
				c0,0,0,0,0,0c0.1,0,0.2,0.1,0.3,0.2c0.7,0.5,1.3,1,2,1.5c1.4,0.9,2.8,1.6,4.3,2c0.4,0.1,0.9,0.2,1.3,0.2C23.7,32,24.6,32,25.6,32
				C25.5,31.9,25.6,31.9,25.6,32z"/>
			<path class="st15" d="M30.6,22.2c0,0.8,0,1.5-0.2,2.3c-0.2,0.9-0.5,1.8-0.9,2.7c-0.1,0.3-0.3,0.5-0.5,0.8c0,0.1-0.1,0.1-0.2,0.2
				c0,0,0,0,0,0c-0.9,1.1-2.1,1.9-3.4,2.4c-0.1-0.1,0-0.2,0.1-0.3c0.2-0.2,0.5-0.4,0.7-0.6c0.5-0.5,0.9-0.9,1.3-1.4
				c0.1-0.1,0.1-0.1,0.2-0.1c0.3-0.4,0.5-0.8,0.8-1.1c0.2-0.4,0.5-0.8,0.7-1.2c0.2-0.4,0.4-0.8,0.6-1.2c0.2-0.4,0.3-0.9,0.4-1.3
				c0.1-0.4,0.2-0.9,0.3-1.3C30.6,22,30.6,22.1,30.6,22.2z"/>
		</g>
		<path class="st15" d="M43.1,23.7C43.1,23.7,43.1,23.7,43.1,23.7c-0.1-0.1-0.2-0.1-0.2-0.2c-0.6-1-1.3-2-2-3c0,0,0,0,0,0h0
			c0.1,0,0.2,0,0.3,0c0.2,0,0.3,0,0.5,0c0.1,0,0.2,0,0.2,0.1l0,0c0.1,0,0.1,0.1,0.1,0.2c0.2,0.5,0.5,1,0.7,1.6
			c0.1,0.3,0.2,0.7,0.4,1C43.2,23.4,43.2,23.5,43.1,23.7z"/>
	</g>
</g>
</svg>
