<svg id="Layer_1" data-name="Layer 1" xmlns="http://www.w3.org/2000/svg" viewBox="0 0 300 235.8"><defs><style>.cls-1{fill:#ec0c0f;}.cls-2{fill:#051f5f;}.cls-3{fill:#07205f;}.cls-4{fill:#f2f6f5;}.cls-5{fill:#eb0f11;}</style></defs><path class="cls-1" d="M71.2,146.3c-.8-3.1-2.6-5.7-4-8.5-3.1-6.6-6.3-13-9.5-19.5L43.3,88.6c-4.2-8.7-8.4-17.4-12.7-26.1L24.8,51.2a4.2,4.2,0,0,0-.4-1c1.6-.5,3.2.1,4.7.2,3,.3,5.8.7,8.7,1.2a56,56,0,0,1,7,2c1.3.4,2.5,1.5,4,1.3a53.9,53.9,0,0,1,8.8,11.9c4.9,8.5,10.4,16.7,15.7,25,8.7,13.6,17.5,27,26.6,40.3,7.8,11.3,15.7,22.5,24.3,33.2l8.7,10.5.5.4a34.1,34.1,0,0,0,3.9,4.5,80.1,80.1,0,0,0,16.8,14.5l1.7,1.1a32.2,32.2,0,0,0,5.6,3.4h0a92.1,92.1,0,0,0,10.3,5.5,54.5,54.5,0,0,0,14.8,4.2,161.6,161.6,0,0,0,24,1.8l5.7.2c4.2.1,8.3.2,12.4,0a10.3,10.3,0,0,0,3.9.2c4.2-.4,8.5,0,12.7.1,7,.1,14.1.4,21.2.7,9.1.3,18.3.6,27.5.7l5.4.5c.5.1.9.2,1,.7s-.4.7-.9.8l-1.2.2c-18.8.2-37.6,0-56.4-.1-6.4,0-12.8-.2-19.2-.4h-.9a2.4,2.4,0,0,0-2-.5H177c-3.8-.3-7.6-.3-11.4-.4s-10.6-.9-15.8-1.5a22,22,0,0,1-3.7-.6c-2.9-.8-5.9-1.3-8.8-2.1l-6.9-2c-1.5-.5-2.9-1.3-4.5-1.3a3.8,3.8,0,0,0-3-1.1l-9.7-4.5c-1.1-1.4-2.8-1.8-4.3-2.7s-1.9-1.7-3.3-1.7c-5.6-4.4-10.8-9.2-14.8-15.2s-6.4-10.2-9.3-15.5c-1.1-2.1-2.2-4.2-3.4-6.2s-2.3-4.9-3.6-7.3S72.7,148,71.2,146.3Z" transform="translate(-0.3 -31.6)"/><path class="cls-2" d="M221.7,214.7h.9c-1.9,1.9-4.4,2.5-6.8,3.5a51,51,0,0,1-22.2,3.7,44.5,44.5,0,0,1-11.9-2.6,86.6,86.6,0,0,0-31.5-4.9,40.8,40.8,0,0,0-17.6,5.2c-15.6,8.6-31.2,16.9-46.8,25.3-9.8,5.2-19.5,10.5-29.4,15.3-5.6,2.6-11.3,5-17.3,6a119.6,119.6,0,0,1-19.8,1.1h-.4c-.4,0-.9,0-.9-.6s.5-.5.9-.5c4-.3,7.7-1.9,11.3-3.4a26.4,26.4,0,0,0,8.1-5.5c8.7-7.9,17.6-15.6,26.4-23.6l37.8-34.4,2.4-2.3c.2.1.3.3.5.3,1.8,0,3.1,1,4.5,1.9a8.9,8.9,0,0,0,3.3,1.5l9.7,4.5c.5,1.8,1.8,1.2,3,1.1s3,.8,4.5,1.3l6.9,2c2.9.8,5.9,1.3,8.8,2.1a22,22,0,0,0,3.7.6c5.2.6,10.5,1.2,15.8,1.5s7.6.1,11.4.4c.2.6.7.5,1.2.5h43.5Z" transform="translate(-0.3 -31.6)"/><path class="cls-3" d="M48.8,54.9c-1.5.2-2.7-.9-4-1.3a56,56,0,0,0-7-2c-2.9-.5-5.7-.9-8.7-1.2-1.5-.1-3.1-.7-4.7-.2-2.3-4.3-6.2-7.1-10-9.9A107,107,0,0,0,1.3,32.6l-.8-.5-.2-.4c.6-.3,1.2.1,1.7.3,13,5.6,26,11.1,38.6,17.6a38.9,38.9,0,0,1,7.8,4.8C48.6,54.5,48.7,54.8,48.8,54.9Z" transform="translate(-0.3 -31.6)"/><path class="cls-3" d="M228.6,211.4c-4.1.2-8.2.1-12.4,0,2.4-1.1,4.9-1.6,7.3-2.6a125.2,125.2,0,0,0,16.7-7.5,5.6,5.6,0,0,1,1.8-.7,1.6,1.6,0,0,1-.8,1.5,140.3,140.3,0,0,1-11.6,8.7A3.3,3.3,0,0,0,228.6,211.4Z" transform="translate(-0.3 -31.6)"/><path class="cls-4" d="M154.1,195.2a80.1,80.1,0,0,1-16.8-14.5,34.1,34.1,0,0,1-3.9-4.5,1.7,1.7,0,0,1,2,1.4,2,2,0,0,0,1.2,1.3c.7.3,1.4.4,1.4,1.4s.3.3.6.4,1.9.1,1.4,1.6.1.4.2.4a3.5,3.5,0,0,1,2.2,2.1l.3.3c1.4-.1,2.1.3,2,1.9s.9.5,1.3.9,1.1,2.2,2.7,1.8a.4.4,0,0,1,.3.4c.5,1.6,1.8,1.8,3.1,1.9s1.5-.2,2.2-.1.6-.1.8.3a2.5,2.5,0,0,1-2.4.5C153.2,193.7,154.1,194.2,154.1,195.2Z" transform="translate(-0.3 -31.6)"/><path class="cls-4" d="M71.2,146.3c1.5,1.7,2.2,3.9,3.3,5.9s2.4,4.8,3.6,7.3c-1.7-.9-2-2.7-2.7-4.2s-.6-2-1.4-2.3-.4-.2-.5-.6c-.2-2.2-1.5-3.9-3-5.8C70.5,146.5,71.1,146.7,71.2,146.3Z" transform="translate(-0.3 -31.6)"/><path class="cls-4" d="M171.7,205.2a92.1,92.1,0,0,1-10.3-5.5h2c0,1,1.1.6,1.4,1.3s1.4.4,2.1.8,1.2.5,1.5,1.1a.6.6,0,0,0,.6.4A2.9,2.9,0,0,1,171.7,205.2Z" transform="translate(-0.3 -31.6)"/><path class="cls-3" d="M113.2,200.8a8.9,8.9,0,0,1-3.3-1.5c-1.4-.9-2.7-1.9-4.5-1.9-.2,0-.3-.2-.5-.3l.7-.7c1.4,0,2.2,1.1,3.3,1.7S112.1,199.4,113.2,200.8Z" transform="translate(-0.3 -31.6)"/><path class="cls-4" d="M161.4,199.7a32.2,32.2,0,0,1-5.6-3.4c1.5,0,2.4,1.4,3.6,1.8s.7.5,1.2.5S161.4,199.1,161.4,199.7Z" transform="translate(-0.3 -31.6)"/><path class="cls-4" d="M265.3,236.5a2.5,2.5,0,0,0-.6,1.4c-.6.1-1.1-.2-1-.8S264.7,236.5,265.3,236.5Z" transform="translate(-0.3 -31.6)"/><path class="cls-3" d="M209.4,214.7H178.2c-.5,0-1,.1-1.2-.5h18.2a5.1,5.1,0,0,0,2.1.3H208C208.4,214.5,209,214.3,209.4,214.7Z" transform="translate(-0.3 -31.6)"/><path class="cls-5" d="M209.4,214.7c-.4-.4-1-.2-1.4-.2H197.3a5.1,5.1,0,0,1-2.1-.3h24.5a2.4,2.4,0,0,1,2,.5Z" transform="translate(-0.3 -31.6)"/><path class="cls-3" d="M125.9,206.4c-1.2.1-2.5.7-3-1.1A3.8,3.8,0,0,1,125.9,206.4Z" transform="translate(-0.3 -31.6)"/></svg>