<?xml version="1.0" encoding="UTF-8"?>
<!DOCTYPE svg PUBLIC "-//W3C//DTD SVG 1.1//EN" "http://www.w3.org/Graphics/SVG/1.1/DTD/svg11.dtd">
<!-- Creator: CorelDRAW X8 -->
<svg xmlns="http://www.w3.org/2000/svg" xml:space="preserve" width="1.11111in" height="1.11111in" version="1.1" style="shape-rendering:geometricPrecision; text-rendering:geometricPrecision; image-rendering:optimizeQuality; fill-rule:evenodd; clip-rule:evenodd"
viewBox="0 0 1111 1111"
 xmlns:xlink="http://www.w3.org/1999/xlink">
 <defs>
  <style type="text/css">
   <![CDATA[
    .fil0 {fill:none}
    .fil1 {fill:#F02137}
    .fil2 {fill:#F8909B}
   ]]>
  </style>
 </defs>
 <g id="Layer_x0020_1">
  <metadata id="CorelCorpID_0Corel-Layer"/>
  <rect class="fil0" width="1111" height="1111"/>
  <g id="_199560869024">
   <path class="fil1" d="M151 537l448 0 105 0c0,0 0,0 0,-1 6,-71 41,-127 102,-170 2,-2 4,-3 6,-4 60,-41 143,-70 243,-89l-401 -2c-101,-1 -211,25 -306,76 -83,44 -154,108 -197,190z"/>
   <path class="fil1" d="M600 567l-600 0 1111 273c-81,-21 -198,-86 -273,-129 -81,-48 -125,-96 -130,-141 0,-1 0,-2 0,-3l-107 0 -1 0z"/>
   <path class="fil1" d="M712 565c3,45 47,94 133,143 67,-26 115,-91 115,-168 0,-87 -60,-159 -142,-177 -3,2 -6,4 -9,7 -60,42 -95,98 -100,168l0 2 0 22 1 0 2 0 0 3z"/>
   <path class="fil2" d="M600 562l109 0 0 -22 0 2 -2 0 -108 0 0 14c1,2 1,4 1,6z"/>
  </g>
 </g>
</svg>
