<?xml version="1.0" encoding="utf-8"?>
<!-- Generator: Adobe Illustrator 27.9.0, SVG Export Plug-In . SVG Version: 6.00 Build 0)  -->
<svg version="1.1" xmlns="http://www.w3.org/2000/svg" xmlns:xlink="http://www.w3.org/1999/xlink" x="0px" y="0px" width="43px"
	 height="43px" viewBox="0 0 43 43" style="enable-background:new 0 0 43 43;" xml:space="preserve">
<style type="text/css">
	.st0{fill:#FDDBCA;}
	.st1{fill:#2AB803;}
	.st2{display:none;fill:none;}
	.st3{fill:#14191D;}
	.st4{fill:#231F20;}
	.st5{fill:none;stroke:#231F20;stroke-width:0.216;stroke-miterlimit:2.6131;}
	.st6{fill:#027B7D;}
	.st7{fill:#09679D;}
	.st8{fill:#1C3E73;}
	.st9{fill:url(#SVGID_00000114790806217650981330000004480681236463547558_);}
	.st10{fill:url(#SVGID_00000155137409800293329130000002501009712406419375_);}
	.st11{fill:url(#SVGID_00000005969744883529544360000014242138649209107109_);}
	.st12{fill:url(#SVGID_00000067932227570945904660000007854539510887790221_);}
	.st13{fill:url(#SVGID_00000153697434140493899970000009062281578274206891_);}
	.st14{fill:#819BC1;}
	.st15{fill:url(#SVGID_00000039826890850440998550000013246100720240162992_);}
	.st16{fill:#195083;}
	.st17{fill:url(#SVGID_00000040540876004294850100000016421343252160071558_);}
	.st18{fill:url(#SVGID_00000142873993159254845730000005440885943779869106_);}
	.st19{fill:url(#SVGID_00000089573205598247056180000004698189548190068154_);}
	.st20{fill:url(#SVGID_00000112591056493700853050000009120242848237406398_);}
	.st21{fill:url(#SVGID_00000115507685930802916350000003174655857793739681_);}
	.st22{fill:url(#SVGID_00000170265763780597564290000011114581538971025338_);}
	.st23{fill:#FBFBFB;}
	.st24{fill:#242321;}
	.st25{fill:#1F2F84;}
	.st26{fill:#233553;}
	.st27{fill-rule:evenodd;clip-rule:evenodd;fill:url(#SVGID_00000039840838125169785420000009549389558824829362_);}
	.st28{fill-rule:evenodd;clip-rule:evenodd;fill:#1A3C24;}
	.st29{fill-rule:evenodd;clip-rule:evenodd;fill:url(#SVGID_00000105413203664497746590000016530317260120699529_);}
	.st30{fill-rule:evenodd;clip-rule:evenodd;fill:url(#SVGID_00000072265582941783129600000006774084546914215836_);}
	.st31{fill-rule:evenodd;clip-rule:evenodd;fill:#265D19;}
	.st32{fill-rule:evenodd;clip-rule:evenodd;fill:url(#SVGID_00000029005724918976437080000008796868256449796775_);}
	.st33{fill-rule:evenodd;clip-rule:evenodd;fill:url(#SVGID_00000163794942500047629130000004231568112628272304_);}
	.st34{fill-rule:evenodd;clip-rule:evenodd;fill:url(#SVGID_00000003796177552064754610000015763425880412035748_);}
	.st35{fill-rule:evenodd;clip-rule:evenodd;fill:url(#SVGID_00000075164378964761663960000003375296414074852776_);}
	.st36{fill-rule:evenodd;clip-rule:evenodd;fill:url(#SVGID_00000023962423035631076020000014717894665005550769_);}
	.st37{fill-rule:evenodd;clip-rule:evenodd;fill:url(#SVGID_00000173871108988289158460000000071401596544740245_);}
	.st38{fill-rule:evenodd;clip-rule:evenodd;fill:url(#SVGID_00000116194767947186977870000000975019701023008148_);}
	.st39{fill-rule:evenodd;clip-rule:evenodd;fill:url(#SVGID_00000127020614629039037590000015137819950653653951_);}
	.st40{fill-rule:evenodd;clip-rule:evenodd;fill:url(#SVGID_00000085216624820129868190000008051866270607225762_);}
	.st41{fill:#7B858A;}
	.st42{fill-rule:evenodd;clip-rule:evenodd;fill:#61207F;stroke:#61207F;stroke-width:0.216;stroke-miterlimit:10;}
</style>
<g id="Layer_1">
</g>
<g id="Layer_3">
</g>
<g id="Layer_2">
</g>
<g id="Layer_4">
	<g>
		<polygon class="st41" points="28,32.6 22,32.6 25,37.3 		"/>
		<polygon class="st41" points="18.5,37.6 24.5,37.6 21.5,32.9 		"/>
		<polygon class="st41" points="15,32.6 21,32.6 18,37.3 		"/>
		<polygon class="st41" points="31.5,27 25.5,27 28.5,31.7 		"/>
		<polygon class="st41" points="28,32 22,32 25,27.3 		"/>
		<polygon class="st41" points="18.5,27 24.5,27 21.5,31.7 		"/>
		<polygon class="st41" points="15,32 21,32 18,27.3 		"/>
		<polygon class="st41" points="17.5,27 11.5,27 14.5,31.7 		"/>
		<polygon class="st41" points="31.5,26.5 25.5,26.5 28.5,21.8 		"/>
		<polygon class="st41" points="14,21.5 8.1,21.5 11.1,26.2 		"/>
		<polygon class="st41" points="17.5,26.5 11.5,26.5 14.5,21.8 		"/>
		<path class="st42" d="M19.6,6.8c0.1-0.5,0.2-1,0.2-1.5c0-0.5-0.1-1.1-0.2-1.6c0.5,0.8,0.8,2,0.8,3.1c0,0.6-0.1,1.3-0.3,1.9
			c-3.4-1.6-4.2-5.1-3.3-8.6c1.5,0.2,2.9,0.8,3.9,2c0.8-0.1,1.6-0.2,2.5-0.2c1.2,0,2.5,0.1,3.7,0.4c0.6-0.6,1.3-1,2.2-1.3
			c1.3,1.1,2.2,2.8,2.5,4.4C32,6.3,32.6,7,32.9,7.5c0.5,0.6,2,2.4,1.6,3.4c0.3,0.4,0.4,0.9,0.4,1.4c0,0.6-0.2,1.2-0.7,1.7
			c0-0.1-0.1-0.1-0.1-0.2c0.2-0.3,0.3-0.7,0.3-1.1c0-0.4-0.1-0.8-0.4-1.2c-0.7,0.5-0.4,2.1-0.3,2.4c0.5,1,0.4,3.4-0.8,3.8
			c-0.9,0.3-3.6-0.3-4.6-0.8c0,0-0.1,0-0.1-0.1c0.4,0,3.7,0.4,4.5-0.1c0.5-0.4,0.8-1.1,0.8-1.7c0-0.4-0.1-0.7-0.4-1.1
			c-0.6,0.4-1.2,0.8-2.3,1.3c-1.1,0.5-2.7,0.9-3.8,1.3c-3.4,1-6.1,0.6-8.1-2.6C19,13.5,19,13.4,19,13.4c0,0,1,1,1.1,1
			c0.2-0.1-0.1-0.8-0.2-0.9c0-0.1,0-0.2,0.1,0c0.1,0.2,0.5,0.7,1,1.2c1.8,1.7,3.5,1.7,5.7,1.2c1.5-0.3,6.2-1.6,6.6-2.7
			c0.2-0.5,0.3-1.5-0.7-1.8c-0.2,0-0.7-0.8-0.8-1.1c0-0.3,0.6,0.2,0.8,0.3c1,0.3,2.1-0.3,1.2-1.3c-0.7-0.9-1.8-2-2.9-2.7
			c-0.3-1.2-0.6-2-1.1-2.6c-2.8-0.8-6-1-8.8-0.4c-0.8-1.4-2.3-1.8-3.9-1.9C16.9,3.5,18,5.7,19.6,6.8z"/>
		<path class="st42" d="M14,20.9c-6.2-2,0-11,2.7-13.9c-4.4,2.9-7.7,7.8-8.7,13.9L14,20.9z"/>
		<path class="st42" d="M29.5,9.5c0,0,0-0.1-0.1-0.2C29.3,9.2,29.2,9,29,8.8c-0.1-0.2-0.3-0.3-0.5-0.4c-0.2-0.1-0.4-0.3-0.9-0.5
			c-0.5-0.2-1.1-0.4-1.8-0.7c-0.1,0.1-0.1,0.1,0,0.2c0.8,0.7,0.6,1.2,1.8,1.4C28.3,9,29,9,29.5,9.7C29.5,9.6,29.5,9.6,29.5,9.5z"/>
		<path class="st42" d="M24.7,17.9c1.5,1.6,2.2,3.8,1.8,6c0.5-0.9,1.1-1.7,1.6-2.6c0,0-1.9-2.4-1.3-3.9
			C26.2,17.5,25.5,17.7,24.7,17.9z"/>
		<polygon class="st41" points="18.5,38.2 24.5,38.2 21.5,42.8 		"/>
	</g>
</g>
</svg>
