<?xml version="1.0" encoding="UTF-8"?>
<!DOCTYPE svg PUBLIC "-//W3C//DTD SVG 1.1//EN" "http://www.w3.org/Graphics/SVG/1.1/DTD/svg11.dtd">
<!-- Creator: CorelDRAW X7 -->
<svg xmlns="http://www.w3.org/2000/svg" xml:space="preserve" width="1.11111in" height="1.11111in" version="1.1" style="shape-rendering:geometricPrecision; text-rendering:geometricPrecision; image-rendering:optimizeQuality; fill-rule:evenodd; clip-rule:evenodd"
viewBox="0 0 1111 1111"
 xmlns:xlink="http://www.w3.org/1999/xlink">
 <defs>
  <style type="text/css">
   <![CDATA[
    .fil0 {fill:#1F2468}
    .fil1 {fill:#C1A46C}
   ]]>
  </style>
 </defs>
 <g id="Layer_x0020_1">
  <metadata id="CorelCorpID_0Corel-Layer"/>
  <g id="_662037454096">
   <path class="fil0" d="M0 720c110,29 114,191 315,189 161,-2 236,-111 302,-205 193,-280 197,-354 494,-509 -360,56 -561,702 -854,580 28,-2 54,-3 79,-10 43,-11 43,-18 57,-32 -97,23 -124,27 -216,-13 -60,-25 -136,-74 -177,0z"/>
   <path class="fil1" d="M399 916c180,12 200,-85 301,-233 74,-108 154,-199 279,-240 -144,9 -241,143 -304,225 -212,273 -172,170 -276,248z"/>
   <path class="fil1" d="M550 907c83,-16 126,-90 163,-154 51,-86 64,-111 144,-159 -83,12 -137,82 -174,138 -17,25 -30,54 -47,79 -19,28 -43,51 -67,74 -8,8 -13,13 -19,22z"/>
   <path class="fil1" d="M669 858c79,-14 82,-127 146,-157 -55,6 -64,31 -87,67 -20,31 -48,63 -59,90z"/>
   <path class="fil1" d="M626 895c52,12 95,6 140,-7 -25,-12 -47,-17 -80,-15 -33,1 -42,8 -60,22z"/>
  </g>
 </g>
</svg>
