<?xml version="1.0" encoding="utf-8"?>
<!-- Generator: Adobe Illustrator 21.0.0, SVG Export Plug-In . SVG Version: 6.00 Build 0)  -->
<svg version="1.1" id="Layer_1" xmlns="http://www.w3.org/2000/svg" xmlns:xlink="http://www.w3.org/1999/xlink" x="0px" y="0px"
	 width="43px" height="43px" viewBox="0 0 43 43" style="enable-background:new 0 0 43 43;" xml:space="preserve">
<style type="text/css">
	.st0{fill:#FF0000;}
</style>
<g>
	<path class="st0" d="M0,21.5C0.1,9.5,9.5,0.1,21.5,0C33.7,0.2,43,9.7,43,21.6c0,12-9.6,21.4-21.6,21.4C9.6,43,0.1,33.6,0,21.5z
		 M21.5,1.3C10.5,1.2,1.6,10.1,1.3,20.8C1.1,26.5,3,31.4,6.9,35.6c3.8,3.9,8.5,6,13.9,6.2c6,0.2,11.1-1.9,15.3-6.2
		c3.9-4.1,5.8-9.1,5.6-14.7C41.4,10,32.5,1.2,21.5,1.3z"/>
	<path class="st0" d="M26.6,12.2c-1.1,0.2-2.1,0.6-3,1.1c-1.3,0.7-2.4,1.7-3.2,2.9c-0.2,0.2-0.3,0.5-0.4,0.7
		c-0.7,1.1-1.4,2.2-2.1,3.2c-0.3,0.3-0.5,0.7-0.8,1c-0.1,0.1-0.3,0.3-0.4,0.4c-0.1,0.1-0.2,0.2-0.3,0.2c-0.1,0-0.1-0.1-0.2-0.2
		c-0.3-0.3-0.6-0.3-0.9-0.1c-0.2,0.1-0.3,0.3-0.4,0.4c-0.4,0.5-0.6,1.1-0.9,1.7c0,0.1,0,0.2-0.1,0.2c0,0,0,0-0.1-0.1
		c0-0.6,0-1.2,0.1-1.9c0-0.2,0.1-0.3,0.2-0.5c0.1-0.2,0.2-0.2,0.4-0.2c0.1,0,0.2,0,0.2-0.1c0.1-0.2,0.2-0.4,0.3-0.7
		c0-0.1,0.1-0.2,0.2-0.1c0.3,0.1,0.5,0,0.8-0.1c0.3-0.2,0.6-0.4,0.9-0.6c0.6-0.5,1.1-1.1,1.5-1.7c0.8-1.2,1.8-2.3,2.9-3.2
		c1.3-1,2.7-1.8,4.3-2.2C25.8,12.3,26.2,12.2,26.6,12.2z"/>
	<path class="st0" d="M15.8,27.7c0.3,0.1,0.5,0.2,0.7,0.3c1.2,0.5,2.5,1,3.7,1.5c0.8,0.3,1.6,0.6,2.3,0.9c2.5,1.2,4.2,3.1,5,5.8
		c0.1,0.3,0.2,0.7,0.2,1c-0.1,0-0.1-0.1-0.1-0.2c-0.6-2-1.7-3.6-3.3-4.8c-0.7-0.5-1.4-1-2.3-1.3c-0.9-0.3-1.7-0.6-2.5-1
		c-1.2-0.6-2.4-1.3-3.6-2.1C16,27.9,15.9,27.9,15.8,27.7z"/>
	<path class="st0" d="M15.9,28.5c1.8,1.2,3.6,2.2,5.5,3.2c1.7,1,3,2.3,3.9,4c0.6,1.3,0.9,2.6,0.9,4c-0.1-0.7-0.2-1.3-0.4-2
		c-0.5-1.6-1.4-2.9-2.6-4c-0.5-0.5-1.1-0.9-1.7-1.2c-2-1-3.8-2.4-5.5-3.9C16,28.6,15.9,28.6,15.9,28.5
		C15.9,28.5,15.9,28.5,15.9,28.5z"/>
	<path class="st0" d="M33.4,7c-0.2,1.1-0.6,2.2-1.3,3.1c-0.6,0.8-1.4,1.3-2.4,1.4c-0.7,0.1-1.4,0.2-2.1,0.2c0,0-0.1,0-0.1,0
		c0.7-0.4,1.5-0.8,2.2-1.3c0.7-0.5,1.4-1,2-1.6C32.3,8.3,32.9,7.7,33.4,7z"/>
	<path class="st0" d="M24.3,12.4c0.1-0.1,0.2-0.2,0.2-0.2c1-0.6,1.9-1.3,2.8-2c1-0.8,1.9-1.7,2.5-2.9c0.2-0.4,0.4-0.8,0.5-1.3
		c0-0.1,0-0.2,0.1-0.3c0,0.2,0,0.3,0,0.4c0,1-0.2,1.9-0.6,2.8c-0.4,0.7-0.8,1.3-1.5,1.7c-0.3,0.2-0.7,0.4-1,0.6
		c-0.9,0.3-1.8,0.6-2.7,1C24.6,12.3,24.5,12.3,24.3,12.4z"/>
	<path class="st0" d="M24.5,15c0.3,0,0.6,0,0.8,0c1.1,0.2,2,0.5,3,0.9c0.8,0.3,1.6,0.5,2.4,0.7c0.5,0.1,0.9,0.1,1.5,0
		c-0.3,0.3-0.4,0.6-0.7,0.8c-0.2,0.2-0.5,0.3-0.9,0.3c-0.5,0-1-0.1-1.5-0.3c-0.6-0.2-1.1-0.5-1.6-0.8c-0.8-0.6-1.8-1-2.7-1.4
		C24.7,15.2,24.7,15.1,24.5,15C24.5,15.1,24.5,15.1,24.5,15z"/>
	<path class="st0" d="M30.2,19.8c-0.4,0.4-0.7,0.6-1.2,0.8c-0.6,0.1-1.1,0.1-1.6-0.1c-0.9-0.3-1.6-0.9-2.2-1.6
		c-0.4-0.4-0.8-0.9-1.2-1.2c-0.3-0.3-0.6-0.5-1-0.7c0-0.1,0.1-0.1,0.2,0c0.3,0.1,0.6,0.2,0.9,0.4c0.7,0.4,1.4,0.8,2.1,1.3
		c0.9,0.7,2,1,3.1,1.2C29.5,19.8,29.8,19.8,30.2,19.8z"/>
	<path class="st0" d="M23.9,16.1c0.5,0.2,1,0.3,1.5,0.5c1.4,0.5,2.8,1,4.2,1.4c0.5,0.1,1,0.3,1.5,0.2c0,0,0.1,0,0.1,0.1
		c-0.3,0.5-0.7,0.8-1.2,0.9c-0.3,0.1-0.7,0-1,0c-0.7-0.2-1.4-0.5-2-0.9c-0.3-0.2-0.5-0.4-0.8-0.6c-0.7-0.5-1.4-0.9-2.1-1.3
		C24.1,16.2,24,16.2,23.9,16.1z"/>
	<path class="st0" d="M16.6,25.2c-0.1-0.3-0.3-0.7-0.4-1c-0.1-0.3-0.3-0.7-0.6-0.9c-0.1-0.1-0.1-0.1-0.1-0.2c0-0.1,0-0.2-0.1-0.2
		c-0.1,0-0.1,0.1-0.1,0.1c-0.1,0.5-0.2,1-0.3,1.5c0,0.2,0,0.5,0,0.7c0.1,0.5,0.2,0.9,0.3,1.4c0,0,0,0.1,0,0.2
		c-0.2-0.2-0.3-0.4-0.4-0.6c-0.3-0.3-0.4-0.7-0.3-1.1c0.1-0.4,0.1-0.8,0.1-1.3c0-0.1,0-0.2,0-0.2c-0.1,0-0.2,0.2-0.2,0.3
		c-0.1,0.3-0.2,0.7-0.2,1c0,0.3,0,0.7,0,1c0,0.1,0,0.2,0,0.3c-0.1,0-0.1-0.1-0.1-0.1c-0.3-0.5-0.4-1-0.3-1.5
		c0.2-0.6,0.4-1.3,0.8-1.8c0.1-0.2,0.3-0.4,0.5-0.5c0.1,0,0.2-0.1,0.3-0.1c0.2,0,0.2,0,0.3,0.2c0,0.1,0,0.3,0.1,0.4
		c0.1,0,0.3-0.1,0.4-0.1c0.2-0.1,0.2-0.1,0.3,0.1c0.3,0.7,0.7,1.4,1,2c0,0,0,0.1,0,0.1c-0.2-0.3-0.4-0.5-0.6-0.8
		c-0.1-0.2-0.3-0.5-0.5-0.7c-0.1-0.1-0.2-0.2-0.3-0.2c-0.1,0-0.2,0-0.2,0.2c0.1,0.3,0.1,0.5,0.2,0.8c0.1,0.3,0.2,0.6,0.3,0.9
		C16.7,24.9,16.7,25,16.6,25.2z"/>
	<path class="st0" d="M20.2,21c0.7,0.5,1.4,1.1,2,1.8c0.6,0.7,1.2,1.4,2,2c0.4,0.3,0.9,0.6,1.5,0.8c0,0,0,0,0.1,0
		c-0.4,0.4-0.9,0.5-1.4,0.4c-0.4-0.1-0.8-0.3-1.1-0.6c-0.4-0.4-0.8-0.9-1.1-1.4C21.5,22.9,20.9,21.9,20.2,21z"/>
	<path class="st0" d="M33.3,14.7c0,0.1-0.1,0.1-0.1,0.2c-0.4,0.3-0.9,0.6-1.3,0.9c-0.4,0.3-0.8,0.3-1.2,0.3
		c-0.8-0.1-1.6-0.4-2.3-0.8c-0.7-0.4-1.4-0.7-2.1-1c0.1,0,0.1,0,0.2,0c0.8,0,1.6,0.1,2.4,0.3c0.8,0.2,1.7,0.3,2.5,0.3
		C32,15,32.7,14.9,33.3,14.7z"/>
	<path class="st0" d="M26.9,24.1c-0.5,0.4-0.9,0.6-1.5,0.6c-0.5-0.1-1-0.3-1.4-0.7c-0.4-0.3-0.7-0.7-1-1.2c-0.6-0.8-1.2-1.6-1.8-2.4
		c-0.1-0.1-0.3-0.3-0.4-0.4c0.1-0.1,0.1,0,0.2,0c0.8,0.7,1.7,1.4,2.5,2.2c0.7,0.7,1.6,1.3,2.5,1.7C26.3,23.9,26.6,24,26.9,24.1z"/>
	<path class="st0" d="M22.4,18.1c0.8,0.4,1.6,0.9,2.3,1.5c0.9,0.8,1.9,1.4,3.1,1.6c0.4,0.1,0.8,0.1,1.3,0.1c0,0.1-0.1,0.1-0.2,0.1
		c-0.4,0.2-0.8,0.3-1.2,0.5c-0.2,0.1-0.4,0.1-0.6,0c-0.4-0.1-0.8-0.3-1.2-0.5c-0.7-0.4-1.3-1-1.9-1.6c-0.4-0.4-0.8-0.9-1.2-1.4
		C22.7,18.4,22.6,18.2,22.4,18.1z"/>
	<path class="st0" d="M21.4,18.9c0.2,0,0.2,0.1,0.3,0.1c0.6,0.4,1.1,0.8,1.6,1.3c1.1,1.1,2.4,1.8,3.9,2.3c0.1,0,0.2,0.1,0.3,0.1
		c0.1,0,0.2,0,0.2,0.1c0,0.1,0,0.1-0.1,0.2c-0.5,0.6-1.2,0.7-1.9,0.4c-0.3-0.2-0.6-0.4-0.8-0.6c-0.9-0.9-1.7-1.8-2.5-2.7
		C22.2,19.6,21.8,19.2,21.4,18.9z"/>
	<path class="st0" d="M34.5,10.1c-0.1,0.3-0.2,0.5-0.4,0.7c-0.1,0.3-0.3,0.5-0.4,0.8c-0.5,1-1.6,1.5-2.8,1.3
		c-0.8-0.1-1.7-0.2-2.5-0.3c-0.4,0-0.8-0.1-1.3-0.1c0.2-0.1,0.4-0.1,0.7-0.1c1.1-0.1,2.2-0.2,3.3-0.3c0.4,0,0.8-0.1,1.2-0.3
		c0.8-0.4,1.4-0.9,2-1.5C34.3,10.2,34.4,10.1,34.5,10.1z"/>
	<path class="st0" d="M26.7,13.5c0.1-0.1,0.2-0.1,0.3-0.1c0.8-0.1,1.7-0.1,2.5-0.1c0.3,0,0.7,0.1,1,0.1c1.1,0.1,2.2-0.1,3.2-0.6
		c0,0,0.1,0,0.1,0c0,0,0,0,0,0c0,0,0,0,0,0.1c-0.3,0.4-0.6,0.8-1,1.2c-0.2,0.2-0.4,0.3-0.7,0.3c-0.7,0-1.3-0.1-1.9-0.2
		C29.1,14,27.9,13.7,26.7,13.5z"/>
	<path class="st0" d="M24.6,10.6c0.1,0.4,0.1,0.8-0.1,1.2c-0.1,0.1-0.2,0.2-0.3,0.2c-0.2,0.1-0.5,0.1-0.7,0.2
		c-0.7,0.1-1.3,0-1.9-0.1c-1-0.1-2.1-0.1-3.1-0.2c-0.3,0-0.6,0-0.9,0c0.1-0.1,0.2-0.1,0.2-0.1c0.7-0.1,1.5-0.2,2.2-0.2
		c1.2,0,2.4-0.2,3.6-0.6C23.9,10.9,24.2,10.8,24.6,10.6z"/>
	<path class="st0" d="M13.3,18.5c-0.1,0.1-0.1,0.3-0.2,0.4c0-0.1,0-0.2-0.1-0.2c-0.1-0.5-0.8-0.5-1-0.2c-0.1,0.1-0.1,0.2-0.2,0.3
		c-0.1,0.2-0.2,0.4-0.5,0.6c0.1-0.3,0.1-0.6,0.2-0.9c0-0.1,0.1-0.2,0.2-0.2c0.6-0.6,1.6-0.6,2.1,0.1c0.3,0.4,0.5,0.8,0.7,1.3
		c0,0.1,0.1,0.1,0,0.2c-0.1,0-0.1-0.1-0.2,0c-0.2,0.4-0.2,0.8-0.4,1.2c-0.1-0.2-0.1-0.4-0.2-0.5c-0.2,0.3-0.3,0.7-0.4,1
		c-0.1,0-0.1-0.1-0.1-0.1c-0.2-0.4-0.5-0.9-0.7-1.3c-0.1-0.1-0.1-0.2-0.1-0.4c0.1-0.3,0-0.5,0.1-0.8c0.2,0.4,0.5,0.8,0.7,1.3
		c0.1-0.3,0.2-0.6,0.3-0.9c0.1,0.1,0.1,0.2,0.2,0.3C14,19.2,13.8,18.8,13.3,18.5z"/>
	<path class="st0" d="M24.5,26.6c-0.6,0.6-1.5,0.6-2.1-0.1c-0.5-0.5-0.8-1.1-1.2-1.7c-0.2-0.3-0.3-0.6-0.5-1
		c-0.3-0.8-0.8-1.5-1.4-2.1c0-0.1-0.1-0.1-0.1-0.2c0,0,0,0,0-0.1c0.2,0.1,0.3,0.2,0.3,0.3c0.4,0.3,0.7,0.7,1,1.1
		c0.5,0.6,0.9,1.1,1.3,1.7c0.6,0.9,1.5,1.6,2.5,2C24.3,26.6,24.4,26.6,24.5,26.6z"/>
	<path class="st0" d="M22.5,27.3c-0.7,0.2-1.2,0-1.7-0.4c-0.2-0.2-0.4-0.4-0.6-0.7c-0.2-0.4-0.4-0.7-0.5-1.1
		c-0.3-0.9-0.7-1.8-1.2-2.6c0,0-0.1-0.1-0.1-0.2c0.2,0.1,0.3,0.3,0.4,0.4c0.5,0.6,1,1.3,1.5,1.9c0.6,0.7,1.1,1.4,1.7,2.1
		C22.2,27,22.4,27.1,22.5,27.3z"/>
	<path class="st0" d="M24.1,8.7c0.1,0.4,0.2,0.7,0.1,1.1c-0.1,0.3-0.3,0.6-0.6,0.7c-0.3,0.1-0.6,0.1-1,0.1c-1.2,0.1-2.3,0.2-3.5,0.3
		c-0.4,0-0.9,0-1.4,0c0.1-0.1,0.1-0.1,0.2-0.1c1-0.2,2.1-0.4,3.2-0.6c0.9-0.1,1.8-0.5,2.5-1.1C23.8,8.9,24,8.8,24.1,8.7z"/>
	<path class="st0" d="M11.1,22.1c0,0.2,0,0.3,0.1,0.4c0,0.1,0.1,0.2,0.2,0.1c0.1-0.1,0.2-0.2,0.3-0.3c0.1-0.2,0.1-0.4,0.2-0.6
		c0.1,0.2,0.2,0.3,0.3,0.5c0.1,0.2,0.1,0.2,0.2,0c0.1-0.1,0.2-0.3,0.2-0.4c0-0.1,0-0.2,0.1-0.2c0,0.5-0.1,0.9-0.3,1.4
		c0,0.1-0.1,0.2-0.2,0.3c-0.2,0.3-0.2,0.3-0.5,0.1c-0.1-0.1-0.2-0.1-0.2-0.2c0,0,0,0-0.1,0c-0.1,0.1,0,0.1,0,0.2
		c0.1,0.2,0.1,0.4,0,0.6c-0.2,0.7-0.3,1.4-0.5,2.2c0,0,0,0.1-0.1,0.1c-0.1-0.1-0.2-0.2-0.2-0.4c-0.1-0.4-0.1-0.7-0.1-1.1
		c0-0.4,0.1-0.8,0.2-1.2c0,0,0,0,0,0c-0.1,0.2-0.2,0.3-0.3,0.5C10.6,23.9,10.9,22.5,11.1,22.1z"/>
	<path class="st0" d="M17.2,9.3c-0.2,0.1-0.3,0.3-0.5,0.4c-1,0.9-1.6,2-1.8,3.3c-0.1,0.6-0.1,1.2,0.1,1.8c0,0.2,0,0.2-0.2,0.3
		c-0.2,0.1-0.4,0.2-0.6,0.3C13.7,13.4,14.5,10.7,17.2,9.3z"/>
	<path class="st0" d="M15.1,28.5c0.3,0.1,0.5,0.3,0.7,0.5c0.6,0.5,1.1,1,1.6,1.6c0.3,0.3,0.6,0.7,1,0.9c0.5,0.4,1,0.7,1.7,0.8
		c0,0.1,0,0.1-0.1,0.2c-0.4,0.3-0.8,0.4-1.3,0.2c-0.3-0.2-0.6-0.4-0.9-0.7c-0.2-0.2-0.3-0.4-0.5-0.6C16.7,30.3,16,29.4,15.1,28.5z"
		/>
	<path class="st0" d="M12.2,27.4c-0.2-0.1-0.3-0.2-0.4-0.3c-0.2-0.3-0.4-0.6-0.5-0.9c0-0.1,0-0.2,0-0.2c0.1-0.4,0.1-0.8,0.2-1.2
		c0.1,0.1,0.1,0.2,0.1,0.3c0.1,0.1,0.2,0.2,0.3,0.2c0.3,0,0.6,0,0.8,0c0,0.1-0.1,0.2-0.1,0.3c-0.1,0.3,0,0.4,0.3,0.5
		c0,0,0.1,0,0.1,0c0.2,0,0.2,0,0.2,0.2c-0.2,0.6-0.3,1.1-0.5,1.7c-0.1-0.1-0.1-0.1-0.1-0.2c-0.2-0.4-0.2-0.8-0.3-1.3
		c0-0.3-0.2-0.4-0.4-0.6C12,26.5,12.2,26.9,12.2,27.4z"/>
	<path class="st0" d="M23.5,12.6c-0.2,0.2-0.3,0.3-0.4,0.3c-0.3,0.1-0.7,0.2-0.9,0.5c-0.1,0.1-0.3,0.1-0.4,0.1
		c-0.3,0-0.6-0.1-0.9-0.1c-1.2-0.2-2.3-0.4-3.5-0.4C19.4,12.7,21.4,12.7,23.5,12.6z"/>
	<path class="st0" d="M17.7,23.5c0.5,0.7,1.1,1.3,1.5,2.1c0.3,0.5,0.6,1.1,0.9,1.5c0,0.1,0.1,0.1,0.1,0.2c0,0,0,0,0,0.1
		c-0.4,0.1-0.9,0.1-1.3-0.1c-0.2-0.1-0.3-0.3-0.4-0.6c-0.2-0.8-0.4-1.6-0.6-2.4C17.9,24,17.8,23.8,17.7,23.5z"/>
	<path class="st0" d="M18.5,9.8c0.5-0.2,0.9-0.3,1.4-0.4c0.2-0.1,0.5-0.1,0.7-0.2c0.8-0.2,1.4-0.7,1.8-1.4c0.2-0.3,0.3-0.5,0.4-0.8
		c0.1,0.2,0.1,0.3,0.1,0.4c0,0.3,0,0.7-0.1,1c-0.2,0.6-0.7,1.1-1.6,1.2c-0.8,0-1.6,0.1-2.5,0.3C18.7,9.8,18.6,9.8,18.5,9.8z"/>
	<path class="st0" d="M12.7,24.2c-0.2,0.3-0.1,0.5,0.1,0.7c-0.4,0.1-0.7-0.1-0.7-0.5c0-0.2,0.1-0.5,0.3-0.6c0.2-0.2,0.3-0.5,0.4-0.8
		c0.1-0.3,0.2-0.5,0.3-0.8c0.1,1.3,0.5,2.5,0.8,3.8c-0.2-0.1-0.4-0.2-0.6-0.3c-0.1,0-0.1-0.1-0.1-0.2c-0.1-0.4-0.3-0.7-0.4-1.1
		C12.8,24.3,12.8,24.3,12.7,24.2z"/>
	<path class="st0" d="M16.4,9.3c0.8-1.4,1.1-2.9,0.9-4.4c0.1,0,0.1,0.1,0.1,0.1c0.3,0.6,0.4,1.3,0.5,2c0,0.3,0,0.6-0.1,0.9
		C17.6,8.6,17.1,9,16.4,9.3z"/>
	<path class="st0" d="M17.6,17.4c-0.2,0.5-0.5,0.9-0.8,1.3C16.6,19,16.3,19.1,16,19c-0.5-0.1-0.9-0.2-1.3-0.5c0,0-0.1,0-0.1-0.1
		c-0.1-0.2-0.3-0.4-0.5-0.6c0.2,0,0.4,0,0.6,0.1c0.3,0,0.7,0.1,1,0.1C16.4,18.2,17,18,17.6,17.4C17.5,17.5,17.6,17.5,17.6,17.4z"/>
	<path class="st0" d="M11.2,20.1c0.1,0.1,0.2,0.2,0.3,0.3c0.1,0,0.1-0.1,0.1-0.2c0-0.1,0-0.1,0-0.2c0.1,0,0.1,0.1,0.1,0.1
		c0,0,0.1,0.1,0.1,0.1c0.1-0.1,0.1-0.2,0.1-0.4c0-0.2,0-0.4,0-0.7c0-0.1,0-0.2,0.1-0.3c0.1,0.2,0.1,0.4,0.1,0.6c0,0.3,0,0.5,0.1,0.8
		c0,0.2,0,0.2,0.2,0.1c-0.1,0.5-0.1,0.9-0.2,1.3c-0.1-0.2-0.1-0.5-0.2-0.8c-0.2,0.4-0.4,0.7-0.6,1.1c0-0.3,0-0.6,0-0.9
		c-0.2,0.1-0.3,0.3-0.4,0.5c-0.1,0.2-0.2,0.3-0.4,0.5c0-0.1,0.1-0.2,0.1-0.3c0.1-0.2,0.1-0.4,0.1-0.6C10.9,20.8,10.9,20.5,11.2,20.1
		z"/>
	<path class="st0" d="M16.7,16.2c-0.2,0.4-0.5,0.8-0.8,1.1c-0.1,0.1-0.3,0.2-0.5,0.3c-0.1,0.1-0.3,0.1-0.4,0
		c-0.4-0.2-0.9-0.2-1.4-0.1c-0.1,0-0.2,0-0.4,0c-0.1-0.1-0.2-0.1,0-0.2c0.3-0.3,0.6-0.4,1-0.4c0.4,0,0.8,0,1.1,0
		c0.4-0.1,0.8-0.3,1.2-0.5C16.6,16.3,16.7,16.2,16.7,16.2z"/>
	<path class="st0" d="M18.6,8.7c1.7-0.3,2.3-1.4,2.5-3c0.2,0.6,0.4,1.2,0.2,1.9c-0.1,0.5-0.4,0.8-0.9,0.9c-0.4,0.1-0.9,0.2-1.3,0.2
		C19,8.8,18.8,8.8,18.6,8.7z"/>
	<path class="st0" d="M15.4,29.3c0.4,0.4,0.8,0.8,1,1.3c0.5,0.8,1,1.6,1.8,2.2c0,0.1-0.1,0.1-0.2,0.1c-0.5,0.1-1-0.2-1.3-0.6
		c-0.3-0.3-0.5-0.7-0.6-1.1C16,30.5,15.7,29.9,15.4,29.3C15.4,29.4,15.4,29.3,15.4,29.3z"/>
	<path class="st0" d="M16.9,24.2c0.4,0.6,0.7,1.2,1,1.8c0.2,0.5,0.4,0.9,0.6,1.3c0,0,0,0.1,0,0.1c-0.4,0.2-0.9,0-1.1-0.4
		c-0.2-0.3-0.3-0.6-0.3-1c0-0.3,0-0.6-0.1-0.9C17,24.8,16.9,24.5,16.9,24.2z"/>
	<path class="st0" d="M12.2,17.2c0.5-0.4,0.8-0.8,1.2-1.2c0.1-0.1,0.1-0.1,0.2-0.1c0.5-0.2,0.9-0.4,1.4-0.7c0,0,0.1,0,0.1,0
		c0,0.1,0,0.1,0,0.2c-0.1,0.3-0.3,0.6-0.5,0.8c-0.2,0.2-0.4,0.4-0.7,0.4c-0.2,0-0.4,0.1-0.6,0.3c-0.1,0.1-0.2,0.2-0.3,0.3
		c-0.1,0.1-0.3,0.2-0.4,0.1C12.5,17.2,12.4,17.2,12.2,17.2z"/>
	<path class="st0" d="M14.9,28.1c-0.1-0.1-0.1-0.2-0.2-0.2c-0.1,0-0.2,0.1-0.2,0.2c-0.1,0.2,0,0.3,0,0.5c0.1,0.4,0.1,0.8,0,1.2
		c0,0,0,0.1-0.1,0.1c-0.1-0.2-0.3-0.3-0.4-0.5c-0.4-0.5-0.3-0.3-0.1-0.9c0.2-0.6,0.5-1.3,0.7-1.9c0-0.1,0-0.1,0.1-0.1
		c0.1,0,0.1,0.1,0.1,0.1c0.1,0.2,0.2,0.4,0.2,0.6C15,27.5,15,27.8,14.9,28.1z"/>
	<path class="st0" d="M21.3,14c-0.2,0.2-0.5,0.4-0.7,0.6c0,0-0.1,0-0.2,0c-1-0.3-2-0.4-3-0.6c-0.1,0-0.1,0-0.2-0.1
		c0.1-0.1,0.2-0.1,0.3-0.1c0.3,0,0.6-0.1,0.8-0.1c0.9,0,1.9,0,2.8,0.1C21.1,13.9,21.2,13.9,21.3,14z"/>
	<path class="st0" d="M13.5,26.6c0,0.2-0.1,0.3,0,0.5c0,0.1,0.1,0.1,0.2,0.1c0.1-0.2,0.3-0.3,0.3-0.5c0-0.1,0.1-0.2,0.2-0.1
		c0.1,0,0.2,0,0.2,0.2c0.1,0.3,0,0.6-0.2,0.8c-0.3,0.4-0.6,0.9-0.8,1.4c0,0-0.1,0.1-0.1,0.1c0,0-0.1,0.1-0.1,0.1c0,0,0-0.1,0-0.1
		c0-0.6-0.1-1.2,0.1-1.8C13.3,26.9,13.3,26.8,13.5,26.6z"/>
	<path class="st0" d="M22.8,21c-0.2-0.2-0.4-0.3-0.6-0.5c-0.7-0.6-1.4-1-2.2-1.5c-0.1-0.1-0.3-0.2-0.4-0.3c-0.1-0.1-0.1-0.3-0.1-0.4
		c0.1-0.1,0.1-0.1,0.2-0.1c0,0,0,0,0.1,0c0.9,0.6,1.8,1.3,2.5,2.1C22.5,20.5,22.7,20.7,22.8,21C22.8,20.9,22.8,20.9,22.8,21z"/>
	<path class="st0" d="M18.2,8.4c0.6-1,1-2,1.2-3.2c0.1,0.1,0.1,0.1,0.1,0.2c0,0.4,0,0.8,0.1,1.2c0,0.3,0,0.6-0.1,0.9
		c-0.2,0.5-0.5,0.8-1,0.9C18.3,8.4,18.3,8.4,18.2,8.4C18.3,8.4,18.2,8.4,18.2,8.4z"/>
	<path class="st0" d="M13.4,14.4c0.1,0.3,0.1,0.5,0,0.7c-0.1,0.2-0.2,0.4-0.3,0.6c-0.4,0.6-0.9,1-1.5,1.3c0-0.1,0-0.2,0-0.2
		c0.1-0.2,0.2-0.4,0.3-0.7c0-0.1,0.1-0.2,0.2-0.3c0.5-0.4,0.8-0.8,1.1-1.4C13.3,14.5,13.3,14.4,13.4,14.4z"/>
	<path class="st0" d="M16.8,27.2c-0.4,0-0.6-0.2-0.8-0.5c-0.1-0.2-0.2-0.5-0.2-0.7c0-0.6,0.1-1.2-0.1-1.8c0.1,0,0.1,0.1,0.1,0.1
		c0.3,0.4,0.4,0.9,0.5,1.4c0,0.4,0.2,0.9,0.4,1.3C16.7,27,16.8,27.1,16.8,27.2z"/>
	<path class="st0" d="M11.3,14.3c0.6,1,0.5,2.3-0.8,3.2c0.2-0.5,0.4-1,0.5-1.6C11.2,15.4,11.3,14.9,11.3,14.3z"/>
	<path class="st0" d="M24.5,18.9c-0.1-0.1-0.2-0.1-0.2-0.2c-0.7-0.5-1.4-0.9-2.2-1.3c-0.4-0.2-0.8-0.4-1.3-0.5
		c-0.2,0-0.2-0.1-0.1-0.3c0.1-0.1,0.1-0.1,0.2-0.1c0.2,0,0.3,0,0.4,0.1c0.2,0.1,0.5,0.2,0.7,0.3c0.7,0.5,1.4,0.9,2,1.5
		c0.1,0.1,0.2,0.2,0.3,0.3C24.5,18.8,24.5,18.8,24.5,18.9z"/>
	<path class="st0" d="M23.4,19.8c-0.1-0.1-0.3-0.2-0.4-0.3c-0.6-0.5-1.3-1-2-1.4c-0.2-0.1-0.3-0.2-0.5-0.2c-0.1-0.1-0.3-0.1-0.4-0.3
		c-0.1-0.1-0.1-0.2,0.1-0.2c0.2,0,0.3,0,0.5,0c0.5,0.2,0.9,0.6,1.3,0.9c0.5,0.4,0.9,0.8,1.2,1.2C23.3,19.6,23.4,19.7,23.4,19.8
		C23.4,19.8,23.4,19.8,23.4,19.8z"/>
	<path class="st0" d="M9.1,21.2c-0.2-0.3-0.3-0.6-0.2-0.9C8.9,20.1,9,20,9,19.9c0.2-0.3,0.5-0.6,0.8-0.9c0,0.1,0,0.1,0.1,0.2
		c0.1,0.2,0.2,0.4,0.5,0.4c0.2,0,0.3,0,0.5,0.1c0,0.1-0.1,0.2-0.2,0.2C10.5,20,10.3,20,10,20c-0.5,0-0.8,0.2-0.9,0.7
		C9.1,20.9,9.2,21,9.1,21.2z"/>
	<path class="st0" d="M26.2,16.2c-0.1,0-0.3-0.1-0.4-0.1c-0.9-0.3-1.8-0.5-2.7-0.6c-0.3,0-0.7-0.1-1-0.1c-0.1,0-0.2-0.1-0.1-0.2
		c0-0.1,0.1-0.1,0.2-0.2c0.1-0.1,0.3,0,0.4,0c1.2,0.2,2.3,0.5,3.3,1C26,16.1,26.1,16.1,26.2,16.2C26.1,16.2,26.1,16.2,26.2,16.2z"/>
	<path class="st0" d="M25.4,17.5c-1-0.6-2.1-1-3.2-1.3c-0.2-0.1-0.5-0.1-0.7-0.2c-0.2,0-0.2-0.1-0.1-0.2c0.1-0.1,0.2-0.1,0.3-0.1
		c0.1,0,0.2,0,0.3,0.1C23.3,16.2,24.4,16.7,25.4,17.5C25.4,17.5,25.5,17.5,25.4,17.5C25.5,17.5,25.5,17.5,25.4,17.5z"/>
	<path class="st0" d="M11.3,18.1c-0.1,0.3-0.2,0.6-0.2,0.8c0,0.3-0.2,0.4-0.5,0.4c-0.3,0-0.4-0.2-0.4-0.5c0-0.1,0-0.2-0.1-0.2
		c-0.1,0-0.1-0.1,0-0.2c0.2-0.3,0.4-0.5,0.7-0.6c0.1-0.1,0.3-0.1,0.5-0.2c-0.1,0.1-0.1,0.2-0.2,0.2c-0.1,0.1-0.2,0.1-0.3,0.2
		c-0.1,0.1,0,0.2,0,0.3c0.1,0.1,0.1,0,0.2,0C11,18.3,11.1,18.2,11.3,18.1z"/>
	<path class="st0" d="M27.8,14.1c-0.5-0.1-1-0.1-1.5-0.1c-0.8,0-1.6,0-2.4,0.1c-0.2,0-0.4,0-0.5,0.1c-0.1,0-0.2,0-0.1-0.2
		c0-0.1,0.1-0.2,0.2-0.2c0.1,0,0.2-0.1,0.4-0.1c1.3-0.1,2.5,0.1,3.8,0.4c0.1,0,0.1,0,0.2,0C27.8,14.1,27.8,14.1,27.8,14.1z"/>
	<path class="st0" d="M20.1,23.7c-0.1-0.1-0.2-0.2-0.3-0.3c-0.5-0.7-1.1-1.3-1.8-1.9c-0.1-0.1-0.2-0.2-0.2-0.3
		c-0.1-0.1-0.1-0.2,0-0.3c0.1-0.1,0.2-0.2,0.3-0.1c0.8,0.8,1.5,1.6,2,2.6C20.1,23.6,20.1,23.6,20.1,23.7
		C20.2,23.7,20.1,23.7,20.1,23.7z"/>
	<path class="st0" d="M19.1,24.4c-0.1-0.1-0.1-0.1-0.2-0.2c-0.5-0.7-1-1.4-1.6-2c-0.1-0.1-0.1-0.2-0.2-0.2c0-0.1-0.1-0.2,0-0.2
		c0.1-0.1,0.1-0.1,0.2,0c0.1,0,0.2,0.1,0.3,0.1c0.1,0.1,0.2,0.2,0.3,0.3c0.5,0.7,0.8,1.4,1.1,2.2C19.1,24.3,19.1,24.4,19.1,24.4
		C19.1,24.4,19.1,24.4,19.1,24.4z"/>
	<path class="st0" d="M16.9,15.1c0.5,0,2.8,0.1,3.1,0.2c-0.2,0.2-0.4,0.4-0.6,0.6c0,0-0.1,0-0.1,0c-0.7-0.3-1.5-0.5-2.3-0.7
		C17,15.1,17,15.1,16.9,15.1z"/>
	<path class="st0" d="M20.9,22.6c-0.3-0.2-0.5-0.5-0.7-0.7c-0.3-0.3-0.7-0.6-1.1-0.9c-0.2-0.2-0.4-0.3-0.6-0.6
		c-0.1-0.1-0.2-0.2-0.1-0.4c0.1-0.1,0.3,0,0.4,0.1c0.2,0.1,0.3,0.2,0.4,0.3c0.5,0.5,0.9,1.1,1.3,1.7C20.7,22.3,20.8,22.4,20.9,22.6z
		"/>
	<path class="st0" d="M26.5,15c-0.3,0-0.6-0.1-0.9-0.1c-0.8-0.1-1.5-0.2-2.3-0.1c-0.2,0-0.4,0-0.6,0c-0.1,0-0.2,0-0.2-0.1
		c0-0.1,0.1-0.1,0.2-0.1c0.2-0.1,0.4-0.1,0.6-0.1c0.9,0,1.8,0.1,2.7,0.4C26.1,14.8,26.3,14.8,26.5,15C26.5,14.9,26.5,14.9,26.5,15z"
		/>
	<path class="st0" d="M16.2,31.9c-0.3,0-0.5,0-0.7-0.2c-0.1-0.1-0.2-0.2-0.2-0.4c0-0.6-0.1-1.2-0.3-1.9c0.1,0,0.1,0.1,0.1,0.2
		c0.2,0.4,0.4,0.8,0.6,1.2c0.1,0.3,0.2,0.5,0.3,0.7C16.2,31.7,16.2,31.8,16.2,31.9z"/>
	<path class="st0" d="M28.3,13c-0.6,0-1.2,0.1-1.7,0.1c-0.4,0-0.9,0.1-1.3,0.2c-0.3,0.1-0.5,0.1-0.8,0C25.2,12.9,27.2,12.7,28.3,13z
		"/>
	<path class="st0" d="M21.1,21.1c-0.3-0.3-0.6-0.5-0.9-0.8c-0.3-0.2-0.6-0.5-0.9-0.7c-0.1-0.1-0.2-0.2-0.3-0.3
		c-0.1-0.1-0.1-0.2,0-0.3c0.1-0.1,0.2-0.1,0.3,0C19.8,19.7,20.4,20.4,21.1,21.1C21.1,21.1,21,21.1,21.1,21.1z"/>
	<path class="st0" d="M18.9,16.3c-0.1,0.2-0.3,0.3-0.4,0.5c0,0-0.1,0-0.1,0c-0.3-0.2-0.7-0.4-1-0.6c-0.1,0-0.1-0.1-0.1-0.2
		c0-0.1,0.1-0.1,0.2-0.1c0,0,0.1,0,0.1,0C18,16.1,18.4,16.2,18.9,16.3C18.9,16.3,18.9,16.3,18.9,16.3z"/>
	<path class="st0" d="M14.8,19c0.3,0.1,0.7,0.2,0.9,0.4c0.1,0.1,0.1,0.1,0,0.2c-0.1,0.1-0.2,0.2-0.3,0.3c-0.2,0.1-0.4,0-0.5-0.2
		C14.9,19.5,14.8,19.3,14.8,19z"/>
	<path class="st0" d="M14.9,29.7c0.1,0.4,0,0.8,0.1,1.3c-0.2,0-0.3-0.2-0.3-0.3c0-0.1,0-0.3,0-0.4C14.7,30.1,14.8,29.9,14.9,29.7z"
		/>
</g>
</svg>
