<?xml version="1.0" encoding="utf-8"?>
<!-- Generator: Adobe Illustrator 27.9.0, SVG Export Plug-In . SVG Version: 6.00 Build 0)  -->
<svg version="1.1" xmlns="http://www.w3.org/2000/svg" xmlns:xlink="http://www.w3.org/1999/xlink" x="0px" y="0px" width="43px"
	 height="43px" viewBox="0 0 43 43" style="enable-background:new 0 0 43 43;" xml:space="preserve">
<style type="text/css">
	.st0{fill:#2AB703;}
	.st1{display:none;fill:none;}
	.st2{fill:#027B7D;}
	.st3{fill:#023D65;}
	.st4{fill-rule:evenodd;clip-rule:evenodd;fill:#244A79;}
	.st5{fill:#303192;}
	.st6{fill:#721E90;}
	.st7{fill:#CB2888;}
	.st8{fill:#06519C;}
	.st9{fill:url(#SVGID_1_);}
	.st10{fill:#02723B;}
	.st11{fill:#F69520;}
	.st12{fill:#0A0A0A;}
	.st13{fill:#96BFE5;}
	.st14{fill:#FFFFFF;}
	.st15{fill:none;stroke:#06519C;stroke-miterlimit:10;}
	.st16{fill:#987E71;}
	.st17{fill:#224476;}
	.st18{fill:#D2AE6E;}
	.st19{fill:#6CCCDB;}
	.st20{fill:#154772;}
	.st21{fill:#104371;}
	.st22{fill:#FDFDFE;}
	.st23{fill:url(#SVGID_00000002361850546222953670000011555239192266408121_);}
	.st24{fill:url(#SVGID_00000004516737427077233510000004140549168361711495_);}
	.st25{fill:url(#SVGID_00000129901730398138959520000002076628555696698550_);}
	.st26{fill:url(#SVGID_00000123438341940041549630000011302914366966675882_);}
	.st27{fill:url(#SVGID_00000048460275948136023800000010658267607411963278_);}
	.st28{fill:url(#SVGID_00000145738848331911130510000004334236438855803832_);}
	.st29{fill:url(#SVGID_00000154394312055257182360000001762906616893231260_);}
	.st30{fill:url(#SVGID_00000160175732692350223830000010007642513201881479_);}
</style>
<g id="Layer_1">
</g>
<g id="Layer_3">
</g>
<g id="Layer_2">
</g>
<g id="Layer_4">
	<rect x="-1.3" y="-0.5" width="44.6" height="46.3"/>
	<g id="Layer_4_00000065778912445250994100000006087253042304820381_">
		<g>
			<g>
				
					<linearGradient id="SVGID_1_" gradientUnits="userSpaceOnUse" x1="20.8081" y1="-505.5421" x2="20.8081" y2="-479.1597" gradientTransform="matrix(1 0 0 -1 0 -470.3617)">
					<stop  offset="1.065558e-08" style="stop-color:#FFF22B"/>
					<stop  offset="1" style="stop-color:#E1A908"/>
				</linearGradient>
				<path class="st9" d="M33.6,12.5c-0.1,0-0.2,0.1-0.3,0.1c-0.7,0.2-1.2,0.4-1.9,0.6c-0.1,0-0.2,0-0.3-0.1
					c-0.7-0.6-1.4-1.2-2.1-1.8l-0.1-0.1c0.4,0.8,0.8,1.6,1.1,2.4c-0.3,0.1-0.6,0.2-0.9,0.3c-0.5-0.4-1-0.9-1.4-1.2l0,0
					c0.2,0.5,0.5,1,0.7,1.5c-0.7,0.2-1.3,0.4-2,0.6l0,0c0.1,0,0.1,0,0.2,0c1.1,0,2,0,3.1,0c1.3,0,2.8,0.2,4.1,0.6
					c0.9,0.3,1.7,0.6,2.5,1.2c0.6,0.4,1.2,0.9,1.6,1.3c0.7,0.8,1.2,1.6,1.7,2.6c0.5,0.9,0.9,1.7,1.2,2.7c0,0,0,0,0,0.1
					c-0.1,0-0.1,0-0.2,0c-1.1,0-2.2,0-3.3,0c-0.1,0-0.2,0-0.2-0.1c-0.9-1.2-1.7-2.6-2.6-3.8c0,0,0-0.1-0.1-0.1
					c0.3,1.3,0.5,2.7,0.8,4c-0.1,0-0.1,0-0.2,0c-0.4,0-0.7,0-1.1,0c-0.1,0-0.2,0-0.2-0.1c-0.5-0.8-1.1-1.5-1.6-2.3L32,20.7
					c0.2,0.9,0.3,1.6,0.5,2.5c-3.8,0-7.7,0-11.6,0c0.4,0.6,0.8,1.1,1.2,1.5c0.4,0.5,0.8,1.1,1.2,1.5c0.4,0.5,0.8,1.1,1.2,1.5
					c0.4,0.5,0.8,1.1,1.2,1.5c0.4,0.5,0.8,1.1,1.2,1.5c0.4,0.5,0.8,1.1,1.2,1.5c0.4,0.5,0.8,1,1.2,1.5c0.4,0.5,0.8,1.1,1.2,1.5
					c-6.3,0-12.8,0-19.1,0c3.2-4.1,6.3-8.2,9.5-12.3c-3.8,0-7.7,0-11.5,0c0.2-0.9,0.3-1.7,0.5-2.5l0,0c-0.6,0.9-1.2,1.7-1.7,2.5
					c-0.5,0-0.9,0-1.3,0c0.3-1.3,0.5-2.7,0.8-4l0,0l-0.1,0.1c-0.8,1.1-1.5,2.2-2.2,3.3c-0.1,0.2-0.3,0.4-0.4,0.6
					c0,0.1-0.1,0.1-0.2,0.1c-1.2,0-2.3,0-3.5,0c0,0,0,0-0.1,0c0.1-0.1,0.1-0.3,0.2-0.4c0.3-0.7,0.7-1.4,1-2.1c0.4-0.9,1-1.7,1.5-2.4
					c0.8-0.9,1.6-1.6,2.7-2.1c1-0.5,1.9-0.8,3-1c0.5-0.1,1.1-0.1,1.6-0.2c0.5,0,1-0.1,1.3-0.1c1,0,1.8,0,2.8,0c0.1,0,0.1,0,0.2,0
					l0,0c-0.7-0.2-1.3-0.4-2-0.6c0.2-0.5,0.5-1.1,0.7-1.5l0,0c-0.5,0.4-1,0.9-1.5,1.2c-0.3-0.1-0.6-0.2-0.9-0.3
					c0.4-0.9,0.8-1.6,1.1-2.5c-0.1,0.1-0.2,0.1-0.3,0.2c-0.7,0.6-1.3,1.2-2,1.7c-0.1,0.1-0.1,0.1-0.2,0.1c-0.8-0.4-1.4-0.6-2.2-0.8
					l0,0v-0.1c0.6-0.7,1.1-1.4,1.7-2c0.9-0.9,1.9-1.3,3.2-1.5c0.4-0.1,0.9-0.1,1.2-0.1c0.9,0,1.7,0.2,2.5,0.5c1.3,0.4,2.7,0.8,4,1.2
					c0.2,0,0.3,0,0.4,0c1.2-0.4,2.6-0.8,3.8-1.2c0.8-0.2,1.5-0.4,2.3-0.4c0.8-0.1,1.5-0.1,2.3,0.1c0.9,0.2,1.6,0.7,2.3,1.2
					c0.6,0.6,1.2,1.2,1.6,1.8C33.4,12.1,33.5,12.3,33.6,12.5z M20.7,22.8c1.6-2.7,3.3-5.4,5-8.1c-0.1,0-0.1,0-0.1,0
					c-0.3,0.1-0.5,0.2-0.8,0.2c-1.2,0.4-2.4,0.7-3.5,1.1c-0.2,0.1-0.4,0.2-0.6,0.1c-0.2,0-0.4-0.1-0.6-0.1l0,0
					c-1.3-0.4-2.8-0.8-4.1-1.2h-0.1C17.5,17.5,19.1,20.1,20.7,22.8z"/>
			</g>
			
				<linearGradient id="SVGID_00000053534415779925143320000009154233005550514053_" gradientUnits="userSpaceOnUse" x1="20.6162" y1="-505.6328" x2="20.6162" y2="-493.0146" gradientTransform="matrix(1 0 0 -1 0 -470.3617)">
				<stop  offset="0" style="stop-color:#EABA0E"/>
				<stop  offset="0.83" style="stop-color:#EFCD57"/>
			</linearGradient>
			<polygon style="fill:url(#SVGID_00000053534415779925143320000009154233005550514053_);" points="20.9,22.6 10.8,35.3 30.4,35.3 
							"/>
		</g>
	</g>
</g>
</svg>
