<?xml version="1.0" encoding="UTF-8"?>
<!DOCTYPE svg PUBLIC "-//W3C//DTD SVG 1.1//EN" "http://www.w3.org/Graphics/SVG/1.1/DTD/svg11.dtd">
<!-- Creator: CorelDRAW X7 -->
<svg xmlns="http://www.w3.org/2000/svg" xml:space="preserve" width="1.11111in" height="1.11111in" version="1.1" style="shape-rendering:geometricPrecision; text-rendering:geometricPrecision; image-rendering:optimizeQuality; fill-rule:evenodd; clip-rule:evenodd"
viewBox="0 0 1111 1111"
 xmlns:xlink="http://www.w3.org/1999/xlink">
 <defs>
  <style type="text/css">
   <![CDATA[
    .fil2 {fill:#110E69}
    .fil1 {fill:#F88602}
    .fil0 {fill:yellow;fill-rule:nonzero}
   ]]>
  </style>
 </defs>
 <g id="Layer_x0020_1">
  <metadata id="CorelCorpID_0Corel-Layer"/>
  <g id="_661864784864">
   <path class="fil0" d="M0 764c138,-42 300,-107 429,-190 99,-63 178,-137 211,-219 4,-11 9,-16 14,-18 4,0 7,0 10,2 3,2 5,5 7,9 7,13 10,37 3,59 -13,35 -32,74 -57,109 -21,30 -47,57 -76,77 -26,18 -51,34 -73,48 -24,15 -46,27 -63,36 -36,19 -73,24 -100,29 -15,2 -27,3 -35,7 -48,20 -103,40 -154,50 -43,8 -83,11 -116,3l-4 0 4 -2zm430 -188c-127,82 -288,146 -426,189 32,6 71,4 111,-4 52,-11 106,-30 154,-50 8,-4 20,-5 35,-8 28,-4 65,-9 100,-28 17,-9 39,-21 63,-36 22,-14 47,-30 73,-48 29,-20 54,-47 75,-77 25,-34 44,-73 56,-108 8,-22 5,-44 -2,-57 -2,-3 -4,-6 -7,-8 -2,-2 -4,-2 -7,-1 -4,1 -9,6 -13,16 -33,82 -112,157 -212,220z"/>
   <path class="fil1" d="M658 103c250,0 453,202 453,453 0,250 -203,452 -453,452 -250,0 -453,-202 -453,-452 0,-251 203,-453 453,-453z"/>
   <path class="fil2" d="M0 765c245,-75 566,-220 641,-409 17,-45 48,5 32,50 -23,66 -70,143 -132,186 -54,37 -103,66 -136,84 -55,29 -114,26 -135,36 -87,37 -197,70 -270,53zm236 193c122,-21 301,-86 466,-214 100,-77 136,-146 142,-196 11,-94 -22,-92 -27,-76 -39,107 -146,227 -326,321 -36,19 -60,67 -94,90 -47,31 -109,50 -161,75zm-184 -39c-41,17 -8,-27 2,-31 202,-80 371,-167 505,-276 84,-69 150,-143 193,-244 16,-37 13,-90 33,-126 7,-12 37,-16 39,-2 8,61 0,129 -15,183 -44,153 -193,263 -342,337 -79,40 -278,101 -415,159z"/>
  </g>
 </g>
</svg>
