<?xml version="1.0" encoding="UTF-8"?>
<!DOCTYPE svg PUBLIC "-//W3C//DTD SVG 1.0//EN" "http://www.w3.org/TR/2001/REC-SVG-20010904/DTD/svg10.dtd">
<!-- Creator: CorelDRAW X8 -->
<svg xmlns="http://www.w3.org/2000/svg" xml:space="preserve" width="1.11111in" height="1.11111in" version="1.0" style="shape-rendering:geometricPrecision; text-rendering:geometricPrecision; image-rendering:optimizeQuality; fill-rule:evenodd; clip-rule:evenodd"
viewBox="0 0 1111 1111"
 xmlns:xlink="http://www.w3.org/1999/xlink">
 <defs>
  <style type="text/css">
   <![CDATA[
    .fil0 {fill:none}
    .fil1 {fill:#D9B36D}
   ]]>
  </style>
 </defs>
 <g id="Layer_x0020_1">
  <metadata id="CorelCorpID_0Corel-Layer"/>
  <rect class="fil0" width="1111" height="1111"/>
  <g id="_1641402712592">
   <path class="fil1" d="M661 921c86,-76 152,-154 197,-233 22,-37 56,-67 101,-88 -24,8 -46,8 -66,1 -48,-11 -84,2 -109,41 -7,14 -13,31 -19,50 -17,8 -19,-5 -6,-39 104,-463 -553,-381 -603,-653 -26,226 86,284 275,377 230,152 239,293 230,544z"/>
   <path class="fil1" d="M611 655c18,37 33,97 43,181 13,-200 -67,-352 -240,-456 -39,-19 -97,-53 -174,-101 18,77 33,119 46,126 179,83 287,166 325,250z"/>
   <path class="fil1" d="M248 1111c254,-52 253,-69 395,-175 0,-196 -43,-325 -130,-388 -97,-66 -174,-111 -231,-134 7,33 15,58 23,74 4,10 22,21 54,33 108,46 175,119 201,220 9,57 -11,120 -60,188 -73,100 -135,150 -252,182z"/>
   <path class="fil1" d="M391 629c69,17 121,56 157,115 -13,-83 -60,-145 -143,-186 -18,-8 -49,-26 -93,-51 19,71 45,112 79,122z"/>
  </g>
 </g>
</svg>
