<?xml version="1.0" encoding="UTF-8"?>
<!DOCTYPE svg PUBLIC "-//W3C//DTD SVG 1.0//EN" "http://www.w3.org/TR/2001/REC-SVG-20010904/DTD/svg10.dtd">
<!-- Creator: CorelDRAW X8 -->
<svg xmlns="http://www.w3.org/2000/svg" xml:space="preserve" width="0.59722in" height="0.59722in" version="1.0" style="shape-rendering:geometricPrecision; text-rendering:geometricPrecision; image-rendering:optimizeQuality; fill-rule:evenodd; clip-rule:evenodd"
viewBox="0 0 597 597"
 xmlns:xlink="http://www.w3.org/1999/xlink">
 <defs>
  <style type="text/css">
   <![CDATA[
    .fil0 {fill:#C4A373}
    .fil1 {fill:#4872B7}
   ]]>
  </style>
 </defs>
 <g id="Layer_x0020_1">
  <metadata id="CorelCorpID_0Corel-Layer"/>
  <g id="logo.eps">
   <path class="fil0" d="M127 433c8,2 12,2 17,0 5,-2 8,-9 6,-14 -1,-3 -3,-4 -6,-2 -5,5 -10,10 -17,16zm395 -46c-1,3 -3,5 -5,7 -38,37 -75,75 -113,113 -5,5 -11,7 -18,7 -6,0 -11,0 -17,0 0,1 -1,2 -1,3 26,26 53,52 81,80 -6,0 -10,0 -14,0 -29,0 -58,0 -86,0 -5,0 -8,-1 -11,-4 -23,-24 -47,-48 -70,-71 -4,-4 -8,-7 -16,-8 27,28 54,54 80,80 -2,3 -4,2 -6,2 -25,0 -50,0 -76,0 -11,1 -19,-4 -27,-12 -35,-35 -71,-70 -106,-106 -14,-14 -36,-16 -51,-5 -5,4 -5,-1 -5,-4 -1,-2 -1,-5 -1,-7 0,-21 12,-36 32,-43 4,-2 7,-4 9,-8 10,-17 27,-24 46,-24 41,0 82,0 122,0 9,2 19,1 28,1 75,0 150,-1 225,-1z"/>
   <path class="fil1" d="M522 387c-75,0 -150,1 -225,1 -9,0 -19,1 -28,-1 -9,-10 -19,-20 -29,-30 -20,-21 -31,-44 -30,-73 0,-19 0,-37 0,-56 10,23 29,39 46,56 24,24 47,48 71,72 3,3 6,5 11,3 0,-3 -3,-4 -5,-6 -30,-30 -60,-61 -91,-91 -22,-22 -34,-48 -33,-79 0,-18 0,-35 0,-53 3,0 3,2 4,4 5,12 13,23 22,32 36,36 72,72 109,108 25,26 51,52 76,77 4,4 9,7 17,9 -5,-5 -7,-8 -10,-10 -62,-63 -125,-125 -187,-187 -20,-21 -31,-45 -31,-75 0,-28 0,-57 0,-88 6,27 18,48 37,66 21,20 42,42 63,62 16,16 32,31 47,47 15,17 32,32 48,48 41,41 82,82 122,122 7,8 11,14 11,20 0,8 -5,15 -15,22z"/>
  </g>
 </g>
</svg>
